<svg width="105" height="72" fill="none" xmlns="http://www.w3.org/2000/svg"><g opacity=".4"><path d="M2.271 4.544a2.272 2.272 0 1 0 0-4.543 2.272 2.272 0 0 0 0 4.543Zm33.309 0a2.271 2.271 0 1 0 0-4.543 2.271 2.271 0 0 0 0 4.543Zm33.499 0A2.271 2.271 0 1 0 69.078 0a2.271 2.271 0 0 0 0 4.543Zm33.309 0a2.271 2.271 0 1 0 0-4.542 2.271 2.271 0 0 0 0 4.542ZM2.271 26.884a2.271 2.271 0 1 0 0-4.543 2.271 2.271 0 0 0 0 4.543Z" fill="#FCB35E"/><path d="M35.58 26.884a2.271 2.271 0 1 0 0-4.543 2.271 2.271 0 0 0 0 4.543Z" fill="#fff"/><path d="M69.079 26.884a2.271 2.271 0 1 0-.001-4.543 2.271 2.271 0 0 0 0 4.543Zm33.309 0a2.27 2.27 0 1 0 0-4.542 2.27 2.27 0 0 0 0 4.542ZM2.271 49.413a2.271 2.271 0 1 0 0-4.543 2.271 2.271 0 0 0 0 4.543Zm33.309 0a2.271 2.271 0 1 0 0-4.543 2.271 2.271 0 0 0 0 4.543Z" fill="#FCB35E"/><path d="M69.079 49.413a2.271 2.271 0 1 0-.001-4.543 2.271 2.271 0 0 0 0 4.543Z" fill="#fff"/><path d="M102.388 49.413a2.27 2.27 0 1 0 0-4.542 2.27 2.27 0 0 0 0 4.542ZM2.271 71.942a2.272 2.272 0 1 0 0-4.543 2.272 2.272 0 0 0 0 4.543Zm33.309 0a2.271 2.271 0 1 0 0-4.543 2.271 2.271 0 0 0 0 4.543Zm33.499 0a2.271 2.271 0 1 0-.001-4.543 2.271 2.271 0 0 0 0 4.543Zm33.309 0a2.271 2.271 0 1 0 0-4.542 2.271 2.271 0 0 0 0 4.542Z" fill="#FCB35E"/></g></svg>