<svg width="1252" height="312" fill="none" xmlns="http://www.w3.org/2000/svg"><path d="M1124.06 297.855c-8.7.946-17.41 1.702-26.3 2.648-101.257 10.405-205.916 20.999-294.488-25.35-52.803-27.62-93.871-73.212-133.426-117.101-32.741-36.323-66.618-73.97-107.308-101.968C481.157.466 376.688-12.399 294.929-17.128c-20.818-1.324-42.015-2.08-62.455-3.027-71.728-3.027-145.917-6.053-215.942-25.16-3.217-.947-6.245-1.703-9.463-2.65H.635a792.449 792.449 0 0 0 15.33 4.541C86.179-24.317 160.557-21.1 232.285-18.263c20.44.757 41.636 1.703 62.455 3.027 81.569 4.918 185.66 17.593 266.662 73.023 40.501 27.62 74.378 65.267 106.93 101.589 39.744 44.079 80.813 89.86 133.994 117.48 89.14 46.538 193.988 35.944 295.614 25.539 8.9-.946 17.61-1.702 26.31-2.648 40.12-3.973 84.03-6.432 127.56-3.406v-1.891c-43.53-3.216-87.63-.568-127.75 3.405Z" fill="#fff"/></svg>