<svg width="1149" height="817" fill="none" xmlns="http://www.w3.org/2000/svg"><g opacity=".3"><path d="M27.848 151.818c0 1.325-.946 2.271-2.271 2.271s-2.271-.946-2.271-2.271.946-2.271 2.27-2.271c1.136 0 2.272 1.135 2.272 2.271Z" fill="#fff"/><path d="M58.886 154.089a2.271 2.271 0 1 0 0-4.542 2.271 2.271 0 0 0 0 4.542Zm33.498 0a2.271 2.271 0 1 0 0-4.542 2.271 2.271 0 0 0 0 4.542Zm33.499 0a2.27 2.27 0 1 0 0-4.541 2.27 2.27 0 0 0 0 4.541Zm33.309 0a2.271 2.271 0 1 0 0-4.543 2.271 2.271 0 0 0 0 4.543Zm33.499 0a2.271 2.271 0 1 0 0-4.543 2.271 2.271 0 0 0 0 4.543Zm-164.843 20.24c0 1.325-.946 2.271-2.271 2.271s-2.271-.946-2.271-2.271c0-1.324.946-2.27 2.27-2.27 1.136 0 2.272.946 2.272 2.27Zm31.038 2.271a2.27 2.27 0 1 0 .001-4.541 2.27 2.27 0 0 0 0 4.541Z" fill="#FCB35E"/><path d="M92.384 176.6a2.27 2.27 0 1 0 .001-4.541 2.27 2.27 0 0 0 0 4.541Z" fill="#fff"/><path d="M125.883 176.6a2.27 2.27 0 1 0 0-4.541 2.27 2.27 0 1 0 0 4.541Zm33.309 0a2.27 2.27 0 1 0 0-4.541 2.27 2.27 0 0 0 0 4.541Z" fill="#FCB35E"/><path d="M192.691 176.6a2.27 2.27 0 1 0 0-4.541 2.27 2.27 0 0 0 0 4.541Z" fill="#fff"/><path d="M27.848 196.842c0 1.325-.946 2.271-2.271 2.271s-2.271-.946-2.271-2.271.946-2.271 2.27-2.271c1.136 0 2.272.946 2.272 2.271Zm31.038 2.271a2.27 2.27 0 1 0 .001-4.541 2.27 2.27 0 0 0 0 4.541Zm33.498 0a2.27 2.27 0 1 0 .001-4.541 2.27 2.27 0 0 0 0 4.541Z" fill="#FCB35E"/><path d="M125.883 199.113a2.27 2.27 0 1 0 0-4.542 2.271 2.271 0 0 0 0 4.542Z" fill="#fff"/><path d="M159.192 199.113a2.27 2.27 0 1 0 0-4.541 2.27 2.27 0 0 0 0 4.541Zm33.499 0a2.27 2.27 0 1 0 0-4.541 2.27 2.27 0 0 0 0 4.541ZM27.848 219.355c0 1.324-.946 2.271-2.271 2.271s-2.271-.947-2.271-2.271c0-1.325.946-2.272 2.27-2.272 1.136-.189 2.272.947 2.272 2.272Z" fill="#FCB35E"/><path d="M58.886 221.625a2.271 2.271 0 1 0 0-4.542 2.271 2.271 0 0 0 0 4.542Z" fill="#fff"/><path d="M92.384 221.625a2.271 2.271 0 1 0 0-4.542 2.271 2.271 0 0 0 0 4.542Zm33.499 0a2.27 2.27 0 1 0 0-4.541 2.27 2.27 0 0 0 0 4.541Zm33.309 0a2.271 2.271 0 1 0 0-4.543 2.271 2.271 0 0 0 0 4.543Zm33.499 0a2.271 2.271 0 1 0 0-4.543 2.271 2.271 0 0 0 0 4.543Zm162.571 87.779c0 1.324-.946 2.271-2.271 2.271s-2.271-.947-2.271-2.271c0-1.325.946-2.271 2.271-2.271s2.271.946 2.271 2.271Zm442.482 416.193c0 1.324-.946 2.27-2.271 2.27s-2.271-.946-2.271-2.27c0-1.325.946-2.271 2.271-2.271 1.325-.189 2.271.946 2.271 2.271ZM260.634 3.123c0 1.325-.946 2.271-2.271 2.271s-2.271-.946-2.271-2.27c0-1.326.946-2.272 2.271-2.272s2.271 1.136 2.271 2.271Zm885.726 382.142c1.25 0 2.27-1.016 2.27-2.271a2.275 2.275 0 0 0-4.55 0 2.275 2.275 0 0 0 2.28 2.271ZM27.848 241.677c0 1.325-.946 2.271-2.271 2.271s-2.271-.946-2.271-2.271c0-1.324.946-2.27 2.27-2.27 1.136 0 2.272 1.135 2.272 2.27Zm31.038 2.271a2.271 2.271 0 1 0 0-4.542 2.271 2.271 0 0 0 0 4.542Zm33.498 0a2.271 2.271 0 1 0 0-4.542 2.271 2.271 0 0 0 0 4.542Zm33.499 0a2.27 2.27 0 1 0 0-4.541 2.27 2.27 0 0 0 0 4.541Z" fill="#FCB35E"/><path d="M159.192 243.948a2.271 2.271 0 1 0 0-4.543 2.271 2.271 0 0 0 0 4.543Zm791.282 55.997c0 1.325-.946 2.271-2.271 2.271s-2.271-.946-2.271-2.271.946-2.271 2.271-2.271c1.325-.19 2.271.946 2.271 2.271Zm-757.783-55.997a2.271 2.271 0 1 0 0-4.543 2.271 2.271 0 0 0 0 4.543Zm260.417 440.22a2.271 2.271 0 1 0 0-4.543 2.271 2.271 0 0 0 0 4.543Zm265.905-156.451a2.27 2.27 0 1 0 0-4.541 2.27 2.27 0 0 0 0 4.541Zm238.653 288.687a2.271 2.271 0 1 0 0-4.543 2.271 2.271 0 0 0 0 4.543ZM602.999 104.145c0 1.324-.946 2.271-2.271 2.271s-2.271-.947-2.271-2.271c0-1.325.946-2.271 2.271-2.271s2.271.946 2.271 2.271Z" fill="#fff"/></g></svg>