<svg width="241" height="84" fill="none" xmlns="http://www.w3.org/2000/svg"><g opacity=".4"><path d="M238.728 79.837a2.011 2.011 0 1 0 0 4.022 2.011 2.011 0 0 0 0-4.022Z" fill="#fff"/><path d="M209.223 79.837a2.012 2.012 0 1 0 0 4.024 2.012 2.012 0 0 0 0-4.024Zm-29.673 0a2.012 2.012 0 1 0 0 4.024 2.012 2.012 0 0 0 0-4.024Z" fill="#FCB35E"/><path d="M150.044 79.837a2.012 2.012 0 1 0 0 4.024 2.012 2.012 0 0 0 0-4.024Z" fill="#fff"/><path d="M120.37 79.837a2.011 2.011 0 1 0 0 4.022 2.011 2.011 0 0 0 0-4.022Zm-29.673 0a2.012 2.012 0 1 0 0 4.024 2.012 2.012 0 0 0 0-4.024ZM59.18 81.849c0-1.174.838-2.012 2.011-2.012 1.174 0 2.012.838 2.012 2.012 0 1.173-.838 2.011-2.012 2.011-1.173 0-2.011-.838-2.011-2.011Zm-27.663-2.012a2.012 2.012 0 1 0 0 4.023 2.012 2.012 0 0 0 0-4.023Zm-29.504 0a2.012 2.012 0 1 0 0 4.023 2.012 2.012 0 0 0 0-4.023Zm236.715-19.942a2.011 2.011 0 1 0 0 4.022 2.011 2.011 0 0 0 0-4.022Zm-29.505 0a2.012 2.012 0 1 0 0 4.025 2.012 2.012 0 0 0 0-4.025Zm-29.673 0a2.012 2.012 0 1 0 0 4.025 2.012 2.012 0 0 0 0-4.025Zm-29.506 0a2.012 2.012 0 1 0 0 4.025 2.012 2.012 0 0 0 0-4.025Zm-29.674 0a2.011 2.011 0 1 0 0 4.023 2.011 2.011 0 0 0 0-4.023Z" fill="#FCB35E"/><path d="M90.697 59.895a2.012 2.012 0 1 0 0 4.024 2.012 2.012 0 0 0 0-4.023Z" fill="#fff"/><path d="M59.18 61.907c0-1.173.838-2.011 2.011-2.011 1.174 0 2.012.838 2.012 2.011 0 1.174-.838 2.012-2.012 2.012-1.173 0-2.011-.838-2.011-2.012Zm-27.663-2.012a2.012 2.012 0 1 0 0 4.024 2.012 2.012 0 0 0 0-4.023Z" fill="#FCB35E"/><path d="M2.013 59.895a2.012 2.012 0 1 0 0 4.024 2.012 2.012 0 0 0 0-4.023Z" fill="#fff"/><path d="M238.728 40.121a2.011 2.011 0 1 0 0 4.022 2.011 2.011 0 0 0 0-4.022Z" fill="#FCB35E"/><path d="M209.223 40.121a2.012 2.012 0 1 0 0 4.024 2.012 2.012 0 0 0 0-4.024Z" fill="#fff"/><path d="M179.55 40.121a2.012 2.012 0 1 0 0 4.024 2.012 2.012 0 0 0 0-4.024Zm-29.506 0a2.012 2.012 0 1 0 0 4.024 2.012 2.012 0 0 0 0-4.024Zm-29.674 0a2.011 2.011 0 1 0 0 4.022 2.011 2.011 0 0 0 0-4.022Zm-29.673 0a2.012 2.012 0 1 0 0 4.024 2.012 2.012 0 0 0 0-4.024Z" fill="#FCB35E"/><path d="M59.18 42.133c0-1.174.838-2.012 2.011-2.012 1.174 0 2.012.838 2.012 2.012 0 1.173-.838 2.011-2.012 2.011-1.173 0-2.011-1.005-2.011-2.011Z" fill="#fff"/><path d="M31.517 40.121a2.012 2.012 0 1 0 0 4.023 2.012 2.012 0 0 0 0-4.023Zm-29.504 0a2.012 2.012 0 1 0 0 4.024 2.012 2.012 0 0 0 0-4.024ZM238.728 20.18a2.011 2.011 0 1 0 0 4.022 2.011 2.011 0 0 0 0-4.022Zm-29.505 0a2.012 2.012 0 1 0 0 4.024 2.012 2.012 0 0 0 0-4.024Z" fill="#FCB35E"/><path d="M179.55 20.18a2.012 2.012 0 1 0 0 4.024 2.012 2.012 0 0 0 0-4.024Z" fill="#fff"/><path d="M150.044 20.18a2.012 2.012 0 1 0 0 4.024 2.012 2.012 0 0 0 0-4.024Z" fill="#FCB35E"/><path d="M120.37 20.18a2.011 2.011 0 1 0 0 4.022 2.011 2.011 0 0 0 0-4.022Z" fill="#fff"/><path d="M90.697 20.18a2.012 2.012 0 1 0 0 4.023 2.012 2.012 0 0 0 0-4.023ZM59.18 22.191c0-1.173.838-2.011 2.011-2.011 1.174 0 2.012.838 2.012 2.011 0 1.174-.838 2.012-2.012 2.012-1.173 0-2.011-.838-2.011-2.012ZM31.517 20.18a2.012 2.012 0 1 0 0 4.023 2.012 2.012 0 0 0 0-4.023Zm-29.504 0a2.012 2.012 0 1 0 0 4.023 2.012 2.012 0 0 0 0-4.023ZM238.728.238a2.011 2.011 0 1 0 0 4.022 2.011 2.011 0 0 0 0-4.022Zm-29.505 0a2.012 2.012 0 1 0 0 4.024 2.012 2.012 0 0 0 0-4.024Zm-29.673 0a2.012 2.012 0 1 0 0 4.024 2.012 2.012 0 0 0 0-4.024Zm-29.506 0a2.012 2.012 0 1 0 0 4.024 2.012 2.012 0 0 0 0-4.024Zm-29.674 0a2.011 2.011 0 1 0 0 4.022 2.011 2.011 0 0 0 0-4.022Zm-29.673 0a2.012 2.012 0 1 0 0 4.023 2.012 2.012 0 0 0 0-4.023ZM59.18 2.25c0-1.174.838-2.012 2.011-2.012 1.174 0 2.012.838 2.012 2.012 0 1.173-.838 2.011-2.012 2.011-1.173 0-2.011-.838-2.011-2.011Z" fill="#FCB35E"/><path d="M31.517.238a2.012 2.012 0 1 0 0 4.023 2.012 2.012 0 0 0 0-4.023Zm-29.504 0a2.012 2.012 0 1 0 0 4.023 2.012 2.012 0 0 0 0-4.023Z" fill="#fff"/></g></svg>