<svg width="280" height="103" fill="none" xmlns="http://www.w3.org/2000/svg"><g opacity=".4" filter="url(#a)"><path d="M6.271 5.042a2.27 2.27 0 1 0 0-4.542 2.27 2.27 0 0 0 0 4.542Z" fill="#fff"/><path d="M39.58 5.042A2.27 2.27 0 1 0 39.582.5a2.27 2.27 0 0 0 0 4.542Zm33.499 0a2.27 2.27 0 1 0 0-4.542 2.27 2.27 0 0 0 0 4.542Z" fill="#FCB35E"/><path d="M106.388 5.042a2.27 2.27 0 1 0 .001-4.54 2.27 2.27 0 0 0-.001 4.54Z" fill="#fff"/><path d="M139.886 5.042a2.27 2.27 0 1 0 .001-4.54 2.27 2.27 0 0 0-.001 4.54Zm33.498 0a2.27 2.27 0 1 0 .001-4.54 2.27 2.27 0 0 0-.001 4.54Zm35.581-2.271c0 1.325-.946 2.27-2.271 2.27s-2.271-.945-2.271-2.27c0-1.324.946-2.27 2.271-2.27s2.271.946 2.271 2.27Zm31.227 2.271a2.271 2.271 0 1 0 0-4.542 2.271 2.271 0 0 0 0 4.542Zm33.31 0a2.271 2.271 0 1 0 0-4.542 2.271 2.271 0 0 0 0 4.542ZM6.271 27.554a2.271 2.271 0 1 0 0-4.542 2.271 2.271 0 0 0 0 4.542Zm33.309 0a2.27 2.27 0 1 0 .001-4.542 2.27 2.27 0 0 0 0 4.542Zm33.499 0a2.27 2.27 0 1 0 0-4.542 2.27 2.27 0 0 0 0 4.542Zm33.309 0a2.27 2.27 0 1 0 .001-4.54 2.27 2.27 0 0 0-.001 4.54Zm33.498 0a2.27 2.27 0 1 0 .001-4.54 2.27 2.27 0 0 0-.001 4.54Z" fill="#FCB35E"/><path d="M173.384 27.554a2.27 2.27 0 1 0 .001-4.54 2.27 2.27 0 0 0-.001 4.54Z" fill="#fff"/><path d="M208.965 25.283c0 1.325-.946 2.271-2.271 2.271s-2.271-.946-2.271-2.27c0-1.325.946-2.271 2.271-2.271s2.271.946 2.271 2.27Zm31.227 2.271a2.271 2.271 0 1 0 0-4.542 2.271 2.271 0 0 0 0 4.542Z" fill="#FCB35E"/><path d="M273.502 27.554a2.271 2.271 0 1 0 0-4.542 2.271 2.271 0 0 0 0 4.542Z" fill="#fff"/><path d="M6.271 49.877a2.27 2.27 0 1 0 0-4.542 2.27 2.27 0 0 0 0 4.542Z" fill="#FCB35E"/><path d="M39.58 49.877a2.27 2.27 0 1 0 .001-4.542 2.27 2.27 0 0 0 0 4.542Z" fill="#fff"/><path d="M73.079 49.877a2.27 2.27 0 1 0 0-4.542 2.27 2.27 0 0 0 0 4.542Zm33.309 0a2.27 2.27 0 1 0 .001-4.54 2.27 2.27 0 0 0-.001 4.54Zm33.498 0a2.27 2.27 0 1 0 .001-4.54 2.27 2.27 0 0 0-.001 4.54Zm33.498 0a2.27 2.27 0 1 0 .001-4.54 2.27 2.27 0 0 0-.001 4.54Z" fill="#FCB35E"/><path d="M208.965 47.606c0 1.325-.946 2.271-2.271 2.271s-2.271-.946-2.271-2.27c0-1.325.946-2.271 2.271-2.271s2.271 1.135 2.271 2.27Z" fill="#fff"/><path d="M240.192 49.877a2.27 2.27 0 1 0 0-4.542 2.27 2.27 0 0 0 0 4.542Zm33.31 0a2.27 2.27 0 1 0 0-4.542 2.27 2.27 0 0 0 0 4.542ZM6.271 72.39a2.271 2.271 0 1 0 0-4.542 2.271 2.271 0 0 0 0 4.542Zm33.309 0a2.27 2.27 0 1 0 0-4.542 2.27 2.27 0 0 0 0 4.542Z" fill="#FCB35E"/><path d="M73.079 72.39a2.271 2.271 0 1 0 0-4.542 2.271 2.271 0 0 0 0 4.542Z" fill="#fff"/><path d="M106.388 72.39a2.27 2.27 0 1 0 .001-4.54 2.27 2.27 0 0 0-.001 4.54Z" fill="#FCB35E"/><path d="M139.886 72.39a2.27 2.27 0 1 0 .001-4.54 2.27 2.27 0 0 0-.001 4.54Z" fill="#fff"/><path d="M173.384 72.39a2.27 2.27 0 1 0 .001-4.54 2.27 2.27 0 0 0-.001 4.54Zm35.581-2.27c0 1.324-.946 2.27-2.271 2.27s-2.271-.946-2.271-2.27c0-1.326.946-2.272 2.271-2.272s2.271.946 2.271 2.271Zm31.227 2.27a2.271 2.271 0 1 0 0-4.542 2.271 2.271 0 0 0 0 4.542Zm33.31 0a2.271 2.271 0 1 0 0-4.542 2.271 2.271 0 0 0 0 4.542ZM6.271 94.903a2.271 2.271 0 1 0 0-4.543 2.271 2.271 0 0 0 0 4.543Zm33.309 0a2.271 2.271 0 1 0 0-4.542 2.271 2.271 0 0 0 0 4.542Zm33.499 0a2.271 2.271 0 1 0 0-4.543 2.271 2.271 0 0 0 0 4.543Zm33.309 0a2.27 2.27 0 1 0 0-4.542 2.27 2.27 0 0 0 0 4.542Zm33.498 0a2.27 2.27 0 1 0 0-4.542 2.27 2.27 0 0 0 0 4.542Zm33.498 0a2.27 2.27 0 1 0 0-4.542 2.27 2.27 0 0 0 0 4.542Zm35.581-2.271c0 1.324-.946 2.27-2.271 2.27s-2.271-.946-2.271-2.27c0-1.325.946-2.272 2.271-2.272s2.271.947 2.271 2.272Z" fill="#FCB35E"/><path d="M240.192 94.903a2.271 2.271 0 1 0 0-4.543 2.271 2.271 0 0 0 0 4.543Zm33.31 0a2.271 2.271 0 1 0 0-4.543 2.271 2.271 0 0 0 0 4.543Z" fill="#fff"/></g><defs><filter id="a" x="0" y=".5" width="279.772" height="102.402" filterUnits="userSpaceOnUse" color-interpolation-filters="sRGB"><feFlood flood-opacity="0" result="BackgroundImageFix"/><feColorMatrix in="SourceAlpha" values="0 0 0 0 0 0 0 0 0 0 0 0 0 0 0 0 0 0 127 0" result="hardAlpha"/><feOffset dy="4"/><feGaussianBlur stdDeviation="2"/><feComposite in2="hardAlpha" operator="out"/><feColorMatrix values="0 0 0 0 0 0 0 0 0 0 0 0 0 0 0 0 0 0 0.25 0"/><feBlend in2="BackgroundImageFix" result="effect1_dropShadow_134_1554"/><feBlend in="SourceGraphic" in2="effect1_dropShadow_134_1554" result="shape"/></filter></defs></svg>