<svg width="85" height="74" fill="none" xmlns="http://www.w3.org/2000/svg"><path fill-rule="evenodd" clip-rule="evenodd" d="m13.627.565.9-.565h55.755l.9.563 12.959 26.698-.16 1.11-40.837 44.856h-1.479L.892 28.37l-.16-1.108L13.626.565ZM15.155 2 2.826 27.525l39.58 43.542 39.64-43.541L69.656 2h-54.5Z" fill="#fff"/><path fill-rule="evenodd" clip-rule="evenodd" d="M78.5 28.698H6.373v-2H78.5v2ZM40.136 66.44 27.367 31.075l1.881-.68 12.77 35.366-1.882.679ZM27.087 24.285l5.247-20.371 1.936.499-5.246 20.371-1.937-.499ZM43.234 65.76l12.77-35.365 1.88.68L45.116 66.44l-1.88-.68Zm13.058-40.973-5.31-20.372 1.936-.504 5.31 20.372-1.936.504Z" fill="#fff"/></svg>