<svg width="95" height="272" fill="none" xmlns="http://www.w3.org/2000/svg"><g opacity=".4"><path d="M89.927 2.636a2.271 2.271 0 1 0 4.542-.001 2.271 2.271 0 0 0-4.542.001Z" fill="#fff"/><path d="M89.927 35.92a2.271 2.271 0 1 0 4.542 0 2.271 2.271 0 0 0-4.542 0Zm0 33.474a2.271 2.271 0 1 0 4.542-.001 2.271 2.271 0 0 0-4.542.001Z" fill="#FCB35E"/><path d="M89.927 102.678a2.272 2.272 0 1 0 4.543-.001 2.272 2.272 0 0 0-4.543.001Z" fill="#fff"/><path d="M89.927 136.152a2.27 2.27 0 0 0 2.272 2.27 2.27 2.27 0 1 0-2.272-2.27Zm0 33.473a2.27 2.27 0 0 0 2.272 2.269 2.27 2.27 0 1 0 0-4.539 2.27 2.27 0 0 0-2.272 2.27Zm2.272 35.554c-1.325 0-2.272-.946-2.272-2.27s.947-2.27 2.272-2.27c1.325 0 2.272.946 2.272 2.27s-.947 2.27-2.272 2.27Zm-2.272 31.204a2.27 2.27 0 0 0 2.272 2.27 2.27 2.27 0 1 0-2.272-2.27Zm0 33.284a2.27 2.27 0 0 0 2.272 2.27 2.27 2.27 0 1 0-2.272-2.27ZM67.398 2.636a2.271 2.271 0 1 0 4.542-.001 2.271 2.271 0 0 0-4.542.001Zm0 33.284a2.271 2.271 0 1 0 4.542 0 2.271 2.271 0 0 0-4.542 0Zm0 33.474a2.271 2.271 0 1 0 4.542-.001 2.271 2.271 0 0 0-4.542.001Zm0 33.284a2.272 2.272 0 1 0 4.543-.001 2.272 2.272 0 0 0-4.543.001Zm0 33.474a2.27 2.27 0 0 0 2.272 2.27 2.27 2.27 0 1 0-2.272-2.27Z" fill="#FCB35E"/><path d="M67.398 169.625a2.27 2.27 0 0 0 2.272 2.269 2.27 2.27 0 1 0 0-4.539 2.27 2.27 0 0 0-2.272 2.27Z" fill="#fff"/><path d="M69.67 205.179c-1.326 0-2.272-.946-2.272-2.27s.946-2.27 2.272-2.27c1.325 0 2.271.946 2.271 2.27s-.946 2.27-2.271 2.27Zm-2.272 31.204a2.27 2.27 0 0 0 2.272 2.27 2.27 2.27 0 1 0-2.272-2.27Z" fill="#FCB35E"/><path d="M67.398 269.667a2.27 2.27 0 0 0 2.272 2.27 2.27 2.27 0 1 0-2.272-2.27Z" fill="#fff"/><path d="M45.058 2.636a2.271 2.271 0 1 0 4.542 0 2.271 2.271 0 0 0-4.542 0Z" fill="#FCB35E"/><path d="M45.058 35.92a2.271 2.271 0 1 0 4.542 0 2.271 2.271 0 0 0-4.542 0Z" fill="#fff"/><path d="M45.058 69.394a2.271 2.271 0 1 0 4.542-.001 2.271 2.271 0 0 0-4.542.001Zm0 33.284a2.272 2.272 0 1 0 4.543-.001 2.272 2.272 0 0 0-4.543.001Zm0 33.474a2.27 2.27 0 0 0 2.272 2.27 2.27 2.27 0 1 0-2.272-2.27Zm0 33.473a2.27 2.27 0 0 0 2.272 2.269 2.27 2.27 0 1 0 0-4.539 2.27 2.27 0 0 0-2.272 2.27Z" fill="#FCB35E"/><path d="M47.33 205.179c-1.326 0-2.272-.946-2.272-2.27s.946-2.27 2.272-2.27c1.325 0 2.272.946 2.272 2.27s-1.136 2.27-2.272 2.27Z" fill="#fff"/><path d="M45.058 236.383a2.27 2.27 0 0 0 2.272 2.27 2.27 2.27 0 1 0-2.272-2.27Zm0 33.284a2.27 2.27 0 0 0 2.272 2.27 2.27 2.27 0 1 0-2.272-2.27ZM22.529 2.636a2.271 2.271 0 1 0 4.542 0 2.271 2.271 0 0 0-4.542 0Zm0 33.284a2.271 2.271 0 1 0 4.542 0 2.271 2.271 0 0 0-4.542 0Z" fill="#FCB35E"/><path d="M22.529 69.394a2.271 2.271 0 1 0 4.542-.001 2.271 2.271 0 0 0-4.542.001Z" fill="#fff"/><path d="M22.529 102.678a2.272 2.272 0 1 0 4.543-.001 2.272 2.272 0 0 0-4.543.001Z" fill="#FCB35E"/><path d="M22.529 136.152a2.27 2.27 0 0 0 2.271 2.27 2.27 2.27 0 1 0-2.271-2.27Z" fill="#fff"/><path d="M22.529 169.625a2.27 2.27 0 0 0 2.271 2.269 2.27 2.27 0 1 0 0-4.539 2.27 2.27 0 0 0-2.271 2.27Zm2.271 35.554c-1.325 0-2.271-.946-2.271-2.27s.946-2.27 2.271-2.27c1.326 0 2.272.946 2.272 2.27s-.946 2.27-2.272 2.27Zm-2.271 31.204a2.27 2.27 0 0 0 2.271 2.27 2.27 2.27 0 1 0-2.271-2.27Zm0 33.284a2.27 2.27 0 0 0 2.271 2.27 2.27 2.27 0 1 0-2.271-2.27ZM0 2.636a2.271 2.271 0 1 0 4.543-.001A2.271 2.271 0 0 0 0 2.636ZM0 35.92a2.271 2.271 0 1 0 4.542 0 2.271 2.271 0 0 0-4.542 0Zm0 33.474a2.271 2.271 0 1 0 4.542-.001A2.271 2.271 0 0 0 0 69.394Zm0 33.284a2.272 2.272 0 1 0 4.543-.001 2.272 2.272 0 0 0-4.543.001Zm0 33.474a2.27 2.27 0 0 0 2.272 2.27A2.27 2.27 0 1 0 0 136.152Zm0 33.473a2.27 2.27 0 0 0 2.272 2.269 2.27 2.27 0 1 0 0-4.539A2.27 2.27 0 0 0 0 169.625Zm2.272 35.554c-1.325 0-2.272-.946-2.272-2.27s.947-2.27 2.272-2.27c1.325 0 2.272.946 2.272 2.27s-.947 2.27-2.272 2.27Z" fill="#FCB35E"/><path d="M0 236.383a2.27 2.27 0 0 0 2.272 2.27A2.27 2.27 0 1 0 0 236.383Zm0 33.284a2.27 2.27 0 0 0 2.272 2.27A2.27 2.27 0 1 0 0 269.667Z" fill="#fff"/></g></svg>