<svg width="260" height="96" fill="none" xmlns="http://www.w3.org/2000/svg"><g opacity=".4"><path d="M23.58 5.357a2.27 2.27 0 1 0 .001-4.541 2.27 2.27 0 0 0 0 4.541Zm33.499 0a2.27 2.27 0 1 0 0-4.542 2.27 2.27 0 0 0 0 4.542Z" fill="#FCB35E"/><path d="M90.388 5.357a2.27 2.27 0 1 0 0-4.542 2.27 2.27 0 0 0 0 4.542Z" fill="#fff"/><path d="M123.886 5.357a2.27 2.27 0 1 0 .001-4.54 2.27 2.27 0 0 0-.001 4.54Zm33.498 0a2.27 2.27 0 1 0 .001-4.54 2.27 2.27 0 0 0-.001 4.54Zm35.581-2.271c0 1.325-.946 2.271-2.271 2.271s-2.271-.946-2.271-2.27c0-1.325.946-2.271 2.271-2.271s2.271.946 2.271 2.27Zm31.227 2.271a2.271 2.271 0 1 0 0-4.542 2.271 2.271 0 0 0 0 4.542Zm33.31 0a2.271 2.271 0 1 0 0-4.542 2.271 2.271 0 0 0 0 4.542ZM23.58 27.87a2.271 2.271 0 1 0 0-4.542 2.271 2.271 0 0 0 0 4.542Zm33.499 0a2.271 2.271 0 1 0 0-4.542 2.271 2.271 0 0 0 0 4.542Zm33.309 0a2.271 2.271 0 1 0 0-4.542 2.271 2.271 0 0 0 0 4.542Zm33.498 0a2.27 2.27 0 1 0 0-4.54 2.27 2.27 0 0 0 0 4.54Z" fill="#FCB35E"/><path d="M157.384 27.87a2.27 2.27 0 1 0 0-4.54 2.27 2.27 0 0 0 0 4.54Z" fill="#fff"/><path d="M192.965 25.6c0 1.324-.946 2.27-2.271 2.27s-2.271-.946-2.271-2.27c0-1.326.946-2.272 2.271-2.272s2.271.947 2.271 2.271Zm31.227 2.27a2.271 2.271 0 1 0 0-4.542 2.271 2.271 0 0 0 0 4.542Z" fill="#FCB35E"/><path d="M257.502 27.87a2.271 2.271 0 1 0 0-4.542 2.271 2.271 0 0 0 0 4.542ZM23.58 50.194a2.271 2.271 0 1 0 0-4.542 2.271 2.271 0 0 0 0 4.542Z" fill="#fff"/><path d="M57.079 50.194a2.271 2.271 0 1 0 0-4.543 2.271 2.271 0 0 0 0 4.543Zm33.309 0a2.271 2.271 0 1 0 0-4.543 2.271 2.271 0 0 0 0 4.543Zm33.498 0a2.27 2.27 0 1 0 0-4.542 2.27 2.27 0 0 0 0 4.542Zm33.498 0a2.27 2.27 0 1 0 0-4.542 2.27 2.27 0 0 0 0 4.542Z" fill="#FCB35E"/><path d="M192.965 47.922c0 1.325-.946 2.272-2.271 2.272s-2.271-.947-2.271-2.272c0-1.324.946-2.27 2.271-2.27s2.271 1.135 2.271 2.27Z" fill="#fff"/><path d="M224.192 50.194a2.271 2.271 0 1 0 0-4.543 2.271 2.271 0 0 0 0 4.543Zm33.31 0a2.271 2.271 0 1 0 0-4.543 2.271 2.271 0 0 0 0 4.543ZM23.58 72.706a2.271 2.271 0 1 0 0-4.542 2.271 2.271 0 0 0 0 4.542Z" fill="#FCB35E"/><path d="M57.079 72.706a2.271 2.271 0 1 0 0-4.542 2.271 2.271 0 0 0 0 4.542Z" fill="#fff"/><path d="M90.388 72.706a2.271 2.271 0 1 0 0-4.542 2.271 2.271 0 0 0 0 4.542Z" fill="#FCB35E"/><path d="M123.886 72.706a2.27 2.27 0 1 0 0-4.541 2.27 2.27 0 0 0 0 4.54Z" fill="#fff"/><path d="M157.384 72.706a2.27 2.27 0 1 0 0-4.541 2.27 2.27 0 0 0 0 4.54Zm35.581-2.271c0 1.325-.946 2.27-2.271 2.27s-2.271-.945-2.271-2.27c0-1.325.946-2.271 2.271-2.271s2.271.946 2.271 2.27Zm31.227 2.271a2.271 2.271 0 1 0 0-4.543 2.271 2.271 0 0 0 0 4.543Zm33.31 0a2.271 2.271 0 1 0 0-4.543 2.271 2.271 0 0 0 0 4.543ZM23.58 95.217a2.27 2.27 0 1 0 .001-4.541 2.27 2.27 0 0 0 0 4.541Zm33.499 0a2.27 2.27 0 1 0 0-4.542 2.27 2.27 0 0 0 0 4.542Zm33.309 0a2.27 2.27 0 1 0 0-4.542 2.27 2.27 0 0 0 0 4.542Zm33.498 0a2.27 2.27 0 1 0 .001-4.54 2.27 2.27 0 0 0-.001 4.54Zm33.498 0a2.27 2.27 0 1 0 .001-4.54 2.27 2.27 0 0 0-.001 4.54Zm35.581-2.27c0 1.324-.946 2.27-2.271 2.27s-2.271-.946-2.271-2.27c0-1.325.946-2.271 2.271-2.271s2.271.946 2.271 2.27Z" fill="#FCB35E"/><path d="M224.192 95.217a2.271 2.271 0 1 0 0-4.542 2.271 2.271 0 0 0 0 4.542Zm33.31 0a2.271 2.271 0 1 0 0-4.542 2.271 2.271 0 0 0 0 4.542Z" fill="#fff"/></g></svg>