<svg width="241" height="185" fill="none" xmlns="http://www.w3.org/2000/svg"><g opacity=".4"><path d="M238.728 180.523a2.011 2.011 0 1 0 0 4.023 2.011 2.011 0 0 0 0-4.023Z" fill="#fff"/><path d="M209.223 180.523a2.012 2.012 0 1 0 0 4.025 2.012 2.012 0 0 0 0-4.025Zm-29.673 0a2.012 2.012 0 1 0 0 4.025 2.012 2.012 0 0 0 0-4.025Z" fill="#FCB35E"/><path d="M150.044 180.523a2.012 2.012 0 1 0 0 4.025 2.012 2.012 0 0 0 0-4.025Z" fill="#fff"/><path d="M120.37 180.523a2.011 2.011 0 1 0 0 4.023 2.011 2.011 0 0 0 0-4.023Zm-29.673 0a2.012 2.012 0 1 0 0 4.024 2.012 2.012 0 0 0 0-4.024Zm-31.517 2.012c0-1.173.838-2.012 2.011-2.012 1.174 0 2.012.839 2.012 2.012 0 1.174-.838 2.012-2.012 2.012-1.173 0-2.011-.838-2.011-2.012Zm-27.663-2.012a2.012 2.012 0 1 0 .001 4.024 2.012 2.012 0 0 0 0-4.024Zm-29.504 0a2.012 2.012 0 1 0 0 4.024 2.012 2.012 0 0 0 0-4.024Zm236.715-19.94a2.011 2.011 0 1 0 0 4.023 2.011 2.011 0 0 0 0-4.023Zm-29.505 0a2.012 2.012 0 1 0 0 4.025 2.012 2.012 0 0 0 0-4.025Zm-29.673 0a2.012 2.012 0 1 0 0 4.025 2.012 2.012 0 0 0 0-4.025Zm-29.506 0a2.012 2.012 0 1 0 0 4.025 2.012 2.012 0 0 0 0-4.025Zm-29.674 0a2.011 2.011 0 1 0 0 4.023 2.011 2.011 0 0 0 0-4.023Z" fill="#FCB35E"/><path d="M90.697 160.583a2.012 2.012 0 1 0 0 4.024 2.012 2.012 0 0 0 0-4.024Z" fill="#fff"/><path d="M59.18 162.595c0-1.174.838-2.012 2.011-2.012 1.174 0 2.012.838 2.012 2.012 0 1.173-.838 2.011-2.012 2.011-1.173 0-2.011-.838-2.011-2.011Zm-27.663-2.012a2.012 2.012 0 1 0 .001 4.024 2.012 2.012 0 0 0 0-4.024Z" fill="#FCB35E"/><path d="M2.013 160.583a2.012 2.012 0 1 0 0 4.024 2.012 2.012 0 0 0 0-4.024Z" fill="#fff"/><path d="M238.728 140.808a2.01 2.01 0 1 0 0 4.023 2.012 2.012 0 1 0 0-4.023Z" fill="#FCB35E"/><path d="M209.223 140.808a2.011 2.011 0 1 0-.001 4.023 2.011 2.011 0 0 0 .001-4.023Z" fill="#fff"/><path d="M179.55 140.808a2.011 2.011 0 1 0-.001 4.023 2.011 2.011 0 0 0 .001-4.023Zm-29.506 0a2.011 2.011 0 1 0-.001 4.023 2.011 2.011 0 0 0 .001-4.023Zm-29.674 0a2.01 2.01 0 1 0 0 4.023 2.012 2.012 0 0 0 0-4.023Zm-29.673 0a2.011 2.011 0 1 0 0 4.022 2.011 2.011 0 0 0 0-4.022Z" fill="#FCB35E"/><path d="M59.18 142.819c0-1.173.838-2.011 2.011-2.011 1.174 0 2.012.838 2.012 2.011 0 1.174-.838 2.012-2.012 2.012-1.173 0-2.011-1.006-2.011-2.012Z" fill="#fff"/><path d="M31.517 140.808a2.011 2.011 0 1 0 0 4.022 2.011 2.011 0 0 0 0-4.022Zm-29.504 0a2.011 2.011 0 1 0-.002 4.022 2.011 2.011 0 0 0 .002-4.022Zm236.715-19.94a2.01 2.01 0 1 0 0 4.021 2.01 2.01 0 0 0 0-4.021Zm-29.505 0a2.011 2.011 0 1 0-.001 4.023 2.011 2.011 0 0 0 .001-4.023Z" fill="#FCB35E"/><path d="M179.55 120.868a2.011 2.011 0 1 0-.001 4.023 2.011 2.011 0 0 0 .001-4.023Z" fill="#fff"/><path d="M150.044 120.868a2.011 2.011 0 1 0-.001 4.023 2.011 2.011 0 0 0 .001-4.023Z" fill="#FCB35E"/><path d="M120.37 120.868a2.01 2.01 0 1 0 0 4.021 2.01 2.01 0 0 0 0-4.021Z" fill="#fff"/><path d="M90.697 120.868a2.011 2.011 0 1 0 0 4.022 2.011 2.011 0 0 0 0-4.022Zm-31.517 2.011c0-1.173.838-2.011 2.011-2.011 1.174 0 2.012.838 2.012 2.011s-.838 2.011-2.012 2.011c-1.173 0-2.011-.838-2.011-2.011Zm-27.663-2.011a2.011 2.011 0 1 0 0 4.022 2.011 2.011 0 0 0 0-4.022Zm-29.504 0a2.011 2.011 0 1 0-.002 4.022 2.011 2.011 0 0 0 .002-4.022Zm236.715-19.943a2.01 2.01 0 1 0 0 4.022 2.01 2.01 0 0 0 0-4.022Zm-29.505 0a2.012 2.012 0 1 0 0 4.023 2.012 2.012 0 0 0 0-4.023Zm-29.673 0a2.012 2.012 0 1 0 0 4.023 2.012 2.012 0 0 0 0-4.023Zm-29.506 0a2.012 2.012 0 1 0 0 4.023 2.012 2.012 0 0 0 0-4.023Zm-29.674 0a2.01 2.01 0 1 0 0 4.022 2.01 2.01 0 0 0 0-4.022Zm-29.673 0a2.011 2.011 0 1 0 0 4.023 2.011 2.011 0 0 0 0-4.023Zm-31.517 2.012c0-1.174.838-2.012 2.011-2.012 1.174 0 2.012.838 2.012 2.012 0 1.173-.838 2.011-2.012 2.011-1.173 0-2.011-.838-2.011-2.011Z" fill="#FCB35E"/><path d="M31.517 100.925a2.011 2.011 0 1 0 0 4.023 2.011 2.011 0 0 0 0-4.023Zm-29.504 0a2.011 2.011 0 1 0-.001 4.023 2.011 2.011 0 0 0 0-4.023Z" fill="#fff"/></g><g opacity=".4"><path d="M238.728 79.6a2.012 2.012 0 1 0 .001 4.022 2.012 2.012 0 0 0-.001-4.023Z" fill="#fff"/><path d="M209.223 79.6a2.012 2.012 0 1 0 0 4.025 2.012 2.012 0 0 0 0-4.024Zm-29.673 0a2.012 2.012 0 1 0 0 4.025 2.012 2.012 0 0 0 0-4.024Z" fill="#FCB35E"/><path d="M150.044 79.6a2.012 2.012 0 1 0 0 4.025 2.012 2.012 0 0 0 0-4.024Z" fill="#fff"/><path d="M120.37 79.6a2.011 2.011 0 1 0 0 4.023 2.011 2.011 0 0 0 0-4.022Zm-29.673 0a2.012 2.012 0 1 0 0 4.024 2.012 2.012 0 0 0 0-4.023ZM59.18 81.612c0-1.173.838-2.011 2.011-2.011 1.174 0 2.012.838 2.012 2.011 0 1.174-.838 2.012-2.012 2.012-1.173 0-2.011-.838-2.011-2.012ZM31.517 79.6a2.012 2.012 0 1 0 0 4.024 2.012 2.012 0 0 0 0-4.023Zm-29.504 0a2.012 2.012 0 1 0 0 4.024 2.012 2.012 0 0 0 0-4.023Zm236.715-19.942a2.011 2.011 0 1 0 0 4.022 2.011 2.011 0 0 0 0-4.022Zm-29.505 0a2.012 2.012 0 1 0 0 4.024 2.012 2.012 0 0 0 0-4.024Zm-29.673 0a2.012 2.012 0 1 0 0 4.024 2.012 2.012 0 0 0 0-4.024Zm-29.506 0a2.012 2.012 0 1 0 0 4.024 2.012 2.012 0 0 0 0-4.024Zm-29.674 0a2.011 2.011 0 1 0 0 4.022 2.011 2.011 0 0 0 0-4.022Z" fill="#FCB35E"/><path d="M90.697 59.658a2.012 2.012 0 1 0 0 4.024 2.012 2.012 0 0 0 0-4.024Z" fill="#fff"/><path d="M59.18 61.67c0-1.174.838-2.012 2.011-2.012 1.174 0 2.012.838 2.012 2.012 0 1.173-.838 2.012-2.012 2.012-1.173 0-2.011-.839-2.011-2.012Zm-27.663-2.012a2.012 2.012 0 1 0 0 4.024 2.012 2.012 0 0 0 0-4.024Z" fill="#FCB35E"/><path d="M2.013 59.658a2.012 2.012 0 1 0 0 4.024 2.012 2.012 0 0 0 0-4.024Z" fill="#fff"/><path d="M238.728 39.883a2.011 2.011 0 1 0 0 4.022 2.011 2.011 0 0 0 0-4.022Z" fill="#FCB35E"/><path d="M209.223 39.883a2.012 2.012 0 1 0 0 4.024 2.012 2.012 0 0 0 0-4.024Z" fill="#fff"/><path d="M179.55 39.883a2.012 2.012 0 1 0 0 4.024 2.012 2.012 0 0 0 0-4.024Zm-29.506 0a2.012 2.012 0 1 0 0 4.024 2.012 2.012 0 0 0 0-4.024Zm-29.674 0a2.011 2.011 0 1 0 0 4.022 2.011 2.011 0 0 0 0-4.022Zm-29.673 0a2.012 2.012 0 1 0 0 4.023 2.012 2.012 0 0 0 0-4.023Z" fill="#FCB35E"/><path d="M59.18 41.895c0-1.174.838-2.012 2.011-2.012 1.174 0 2.012.838 2.012 2.011 0 1.174-.838 2.012-2.012 2.012-1.173 0-2.011-1.006-2.011-2.011Z" fill="#fff"/><path d="M31.517 39.883a2.012 2.012 0 1 0 0 4.023 2.012 2.012 0 0 0 0-4.023Zm-29.504 0a2.012 2.012 0 1 0 0 4.023 2.012 2.012 0 0 0 0-4.023Zm236.715-19.94a2.011 2.011 0 1 0 0 4.023 2.011 2.011 0 0 0 0-4.023Zm-29.505 0a2.012 2.012 0 1 0 0 4.024 2.012 2.012 0 0 0 0-4.024Z" fill="#FCB35E"/><path d="M179.55 19.943a2.012 2.012 0 1 0 0 4.024 2.012 2.012 0 0 0 0-4.024Z" fill="#fff"/><path d="M150.044 19.943a2.012 2.012 0 1 0 0 4.024 2.012 2.012 0 0 0 0-4.024Z" fill="#FCB35E"/><path d="M120.37 19.943a2.011 2.011 0 1 0 0 4.023 2.011 2.011 0 0 0 0-4.023Z" fill="#fff"/><path d="M90.697 19.943a2.012 2.012 0 1 0 0 4.024 2.012 2.012 0 0 0 0-4.024ZM59.18 21.955c0-1.173.838-2.012 2.011-2.012 1.174 0 2.012.838 2.012 2.012s-.838 2.012-2.012 2.012c-1.173 0-2.011-.838-2.011-2.012Zm-27.663-2.012a2.012 2.012 0 1 0 0 4.024 2.012 2.012 0 0 0 0-4.024Zm-29.504 0a2.012 2.012 0 1 0 0 4.024 2.012 2.012 0 0 0 0-4.024ZM238.728 0a2.011 2.011 0 1 0 0 4.022 2.011 2.011 0 0 0 0-4.022Zm-29.505 0a2.012 2.012 0 1 0 0 4.024 2.012 2.012 0 0 0 0-4.024ZM179.55 0a2.012 2.012 0 1 0 0 4.024 2.012 2.012 0 0 0 0-4.024Zm-29.506 0a2.012 2.012 0 1 0 0 4.024 2.012 2.012 0 0 0 0-4.024ZM120.37 0a2.011 2.011 0 1 0 0 4.022 2.011 2.011 0 0 0 0-4.022ZM90.697 0a2.012 2.012 0 1 0 0 4.024 2.012 2.012 0 0 0 0-4.024ZM59.18 2.012C59.18.838 60.018 0 61.19 0c1.174 0 2.012.838 2.012 2.012 0 1.173-.838 2.011-2.012 2.011-1.173 0-2.011-.838-2.011-2.011Z" fill="#FCB35E"/><path d="M31.517 0a2.012 2.012 0 1 0 0 4.023 2.012 2.012 0 0 0 0-4.023ZM2.013 0a2.012 2.012 0 1 0 0 4.024 2.012 2.012 0 0 0 0-4.024Z" fill="#fff"/></g></svg>