<svg width="40" height="40" fill="none" xmlns="http://www.w3.org/2000/svg"><circle cx="20" cy="20" r="20" fill="url(#a)"/><path d="M20 17.875c1.683 0 3.1.508 4.25 1.525 1.15 1 1.725 2.4 1.725 4.2 0 1.8-.608 3.208-1.825 4.225-1.2 1.017-2.675 1.525-4.425 1.525-1.417 0-2.667-.317-3.75-.95-1.083-.633-1.867-1.567-2.35-2.8l2.95-1.725c.433 1.4 1.483 2.1 3.15 2.1.883 0 1.567-.208 2.05-.625.5-.433.75-1.017.75-1.75 0-.717-.242-1.292-.725-1.725-.483-.433-1.142-.65-1.975-.65h-5.3l.7-9.725h9.925v3.225h-6.725l-.225 3.15H20Z" fill="#fff"/><defs><linearGradient id="a" x1="31.144" y1="33.432" x2="2.822" y2="15.44" gradientUnits="userSpaceOnUse"><stop stop-color="#662DD8"/><stop offset="1" stop-color="#C8583F"/><stop offset="1" stop-color="#BF544D"/></linearGradient></defs></svg>