<svg width="39" height="33" fill="none" xmlns="http://www.w3.org/2000/svg"><path opacity=".3" d="M9.29 32.94c-2.64 0-4.77-1.02-6.39-3.06-1.56-2.1-2.34-5.01-2.34-8.73 0-4.62 1.17-8.73 3.51-12.33 2.4-3.6 5.76-6.48 10.08-8.64l2.7 5.04c-2.88 1.56-5.13 3.48-6.75 5.76-1.62 2.22-2.52 4.86-2.7 7.92.78-.3 1.5-.45 2.16-.45 2.04 0 3.69.66 4.95 1.98 1.26 1.26 1.89 2.91 1.89 4.95 0 2.28-.66 4.11-1.98 5.49-1.32 1.38-3.03 2.07-5.13 2.07Zm21.51 0c-2.64 0-4.77-1.02-6.39-3.06-1.56-2.1-2.34-5.01-2.34-8.73 0-4.62 1.17-8.73 3.51-12.33 2.4-3.6 5.76-6.48 10.08-8.64l2.7 5.04c-2.88 1.56-5.13 3.48-6.75 5.76-1.62 2.22-2.52 4.86-2.7 7.92.78-.3 1.5-.45 2.16-.45 2.04 0 3.69.66 4.95 1.98 1.26 1.26 1.89 2.91 1.89 4.95 0 2.28-.66 4.11-1.98 5.49-1.32 1.38-3.03 2.07-5.13 2.07Z" fill="url(#a)"/><defs><linearGradient id="a" x1="44.814" y1="49" x2="-57.904" y2="35.355" gradientUnits="userSpaceOnUse"><stop stop-color="#4B19F0"/><stop offset="1" stop-color="#F09A19"/></linearGradient></defs></svg>