<svg width="544" height="275" fill="none" xmlns="http://www.w3.org/2000/svg"><g filter="url(#a)" fill-rule="evenodd" clip-rule="evenodd"><path d="M107.559 36.479c16.916-5.826 19.795-21.003 17.635-34.957 0-.503.432-.863.864-.719 16.196 7.912 34.407 25.175 34.407 51.068 0 19.852-15.404 37.402-37.79 37.402a36.008 36.008 0 0 1-22.4-6.552 35.963 35.963 0 0 1-13.667-18.907 35.938 35.938 0 0 1 .815-23.31 35.971 35.971 0 0 1 14.953-17.907c.432-.288 1.008 0 1.008.503.216 2.662.936 9.35 3.887 13.379h.288Z" fill="url(#b)"/><path d="m208.116 73.521 1.224-1.438 3.815 12.084-.504.503c-2.879 2.661-7.198 4.028-12.741 4.028h-.216c-5.038 0-8.997-1.439-11.732-4.1-2.736-2.733-4.175-6.833-4.175-12.012V39.644h-9.718V26.337h9.718v-16.04h14.972v16.04h11.877v13.307h-11.949V69.35c0 1.366.36 5.754 4.535 5.754 2.159 0 4.174-.791 4.894-1.655v.072Zm7.918 13.81V26.41h14.972v60.922h-14.972Zm7.414-85.809a9 9 0 0 1 8.306 5.534 8.988 8.988 0 0 1-6.507 12.267 9.006 9.006 0 0 1-9.245-3.762 8.986 8.986 0 0 1-1.551-4.976c0-4.89 4.102-9.063 8.997-9.063ZM271.243 24.9c12.957 0 20.083 7.049 20.083 19.923V87.26h-14.972V48.42c-.288-6.905-3.599-10.07-10.653-10.07-6.334 0-11.445 3.884-14.036 7.193V87.26h-14.972V26.481h14.972v6.474c4.318-4.172 11.229-7.912 19.578-7.912v-.144Zm69.894 7.84V4.112h14.972v83.291h-14.972v-6.33a24.688 24.688 0 0 1-17.78 7.697c-16.339 0-27.28-12.803-27.28-31.864 0-19.132 10.941-31.935 27.28-31.935a24.488 24.488 0 0 1 17.78 7.768Zm0 12.875a18.427 18.427 0 0 0-14.109-7.193c-9.285 0-15.475 7.409-15.475 18.485 0 11.005 6.19 18.414 15.475 18.414 5.399 0 11.301-2.878 14.109-7.05V45.615Zm49.954-20.643c17.708 0 30.016 13.666 30.016 33.086v4.1h-45.276c1.512 8.56 8.278 14.026 17.492 14.026 5.83 0 12.236-2.518 15.907-6.186l1.008-.863 7.126 10.213-.72.648a34.996 34.996 0 0 1-24.545 8.775c-18.715 0-31.887-13.163-31.887-31.936a30.755 30.755 0 0 1 8.682-22.52 30.807 30.807 0 0 1 22.269-9.343h-.072Zm-15.332 25.893h30.736c-.864-9.134-8.422-13.306-15.404-13.306-10.509 0-14.468 7.912-15.332 13.378v-.072Zm81.555-25.893h1.079v15.104l-1.295-.216a20.235 20.235 0 0 0-3.815-.36c-4.823 0-11.517 3.381-14.037 6.978V87.26h-14.972V26.41h15.044v6.761c4.967-5.178 11.517-8.2 17.996-8.2Z" fill="#fff"/></g><defs><linearGradient id="b" x1="160.465" y1=".771" x2="73.053" y2="75.226" gradientUnits="userSpaceOnUse"><stop stop-color="#FF7854"/><stop offset="1" stop-color="#FD267D"/></linearGradient><filter id="a" x=".05" y=".771" width="543.344" height="273.54" filterUnits="userSpaceOnUse" color-interpolation-filters="sRGB"><feFlood flood-opacity="0" result="BackgroundImageFix"/><feColorMatrix in="SourceAlpha" values="0 0 0 0 0 0 0 0 0 0 0 0 0 0 0 0 0 0 127 0" result="hardAlpha"/><feOffset dy="2.767"/><feGaussianBlur stdDeviation="1.176"/><feColorMatrix values="0 0 0 0 0.00784314 0 0 0 0 0.0156863 0 0 0 0 0.176471 0 0 0 0.230539 0"/><feBlend in2="BackgroundImageFix" result="effect1_dropShadow_134_2030"/><feColorMatrix in="SourceAlpha" values="0 0 0 0 0 0 0 0 0 0 0 0 0 0 0 0 0 0 127 0" result="hardAlpha"/><feOffset dy="6.65"/><feGaussianBlur stdDeviation="2.826"/><feColorMatrix values="0 0 0 0 0.00784314 0 0 0 0 0.0156863 0 0 0 0 0.176471 0 0 0 0.331192 0"/><feBlend in2="effect1_dropShadow_134_2030" result="effect2_dropShadow_134_2030"/><feColorMatrix in="SourceAlpha" values="0 0 0 0 0 0 0 0 0 0 0 0 0 0 0 0 0 0 127 0" result="hardAlpha"/><feOffset dy="12.522"/><feGaussianBlur stdDeviation="5.322"/><feColorMatrix values="0 0 0 0 0.00784314 0 0 0 0 0.0156863 0 0 0 0 0.176471 0 0 0 0.41 0"/><feBlend in2="effect2_dropShadow_134_2030" result="effect3_dropShadow_134_2030"/><feColorMatrix in="SourceAlpha" values="0 0 0 0 0 0 0 0 0 0 0 0 0 0 0 0 0 0 127 0" result="hardAlpha"/><feOffset dy="22.336"/><feGaussianBlur stdDeviation="9.493"/><feColorMatrix values="0 0 0 0 0.00784314 0 0 0 0 0.0156863 0 0 0 0 0.176471 0 0 0 0.488808 0"/><feBlend in2="effect3_dropShadow_134_2030" result="effect4_dropShadow_134_2030"/><feColorMatrix in="SourceAlpha" values="0 0 0 0 0 0 0 0 0 0 0 0 0 0 0 0 0 0 127 0" result="hardAlpha"/><feOffset dy="41.778"/><feGaussianBlur stdDeviation="17.756"/><feColorMatrix values="0 0 0 0 0.00784314 0 0 0 0 0.0156863 0 0 0 0 0.176471 0 0 0 0.589461 0"/><feBlend in2="effect4_dropShadow_134_2030" result="effect5_dropShadow_134_2030"/><feColorMatrix in="SourceAlpha" values="0 0 0 0 0 0 0 0 0 0 0 0 0 0 0 0 0 0 127 0" result="hardAlpha"/><feOffset dy="100"/><feGaussianBlur stdDeviation="42.5"/><feColorMatrix values="0 0 0 0 0.00784314 0 0 0 0 0.0156863 0 0 0 0 0.176471 0 0 0 0.82 0"/><feBlend in2="effect5_dropShadow_134_2030" result="effect6_dropShadow_134_2030"/><feBlend in="SourceGraphic" in2="effect6_dropShadow_134_2030" result="shape"/></filter></defs></svg>