<svg width="40" height="40" fill="none" xmlns="http://www.w3.org/2000/svg"><circle cx="20" cy="20" r="20" fill="url(#a)"/><path d="M21.825 18.6c1.183.35 2.142.967 2.875 1.85.75.867 1.125 1.917 1.125 3.15 0 1.8-.608 3.208-1.825 4.225-1.2 1.017-2.675 1.525-4.425 1.525-1.367 0-2.592-.308-3.675-.925-1.067-.633-1.842-1.558-2.325-2.775l2.95-1.7c.433 1.35 1.45 2.025 3.05 2.025.883 0 1.567-.208 2.05-.625.5-.433.75-1.017.75-1.75 0-.717-.25-1.292-.75-1.725-.483-.433-1.167-.65-2.05-.65h-.75l-1.325-2 3.45-4.5H14.1V11.5h11v2.85l-3.275 4.25Z" fill="#fff"/><defs><linearGradient id="a" x1="31.144" y1="33.432" x2="2.822" y2="15.44" gradientUnits="userSpaceOnUse"><stop stop-color="#662DD8"/><stop offset="1" stop-color="#C8583F"/><stop offset="1" stop-color="#BF544D"/></linearGradient></defs></svg>