<svg width="25" height="26" fill="none" xmlns="http://www.w3.org/2000/svg"><path fill-rule="evenodd" clip-rule="evenodd" d="M7.813.112h9.375A7.81 7.81 0 0 1 25 7.92v9.367c0 4.311-3.498 7.807-7.813 7.807H7.813C3.498 25.093 0 21.597 0 17.286V7.92A7.81 7.81 0 0 1 7.813.112Zm9.375 22.639a5.473 5.473 0 0 0 5.468-5.465V7.92a5.473 5.473 0 0 0-5.468-5.465H7.813a5.473 5.473 0 0 0-5.47 5.465v9.367a5.473 5.473 0 0 0 5.47 5.465h9.375Z" fill="#fff"/><path fill-rule="evenodd" clip-rule="evenodd" d="M6.25 12.602a6.248 6.248 0 0 1 6.25-6.246 6.248 6.248 0 0 1 6.25 6.246 6.248 6.248 0 0 1-6.25 6.246 6.248 6.248 0 0 1-6.25-6.246Zm2.344 0a3.91 3.91 0 0 0 3.906 3.903 3.91 3.91 0 0 0 3.906-3.903A3.91 3.91 0 0 0 12.5 8.698a3.91 3.91 0 0 0-3.906 3.904Z" fill="#fff"/><ellipse cx="19.219" cy="5.889" rx=".833" ry=".832" fill="#fff"/></svg>