<svg width="96" height="103" fill="none" xmlns="http://www.w3.org/2000/svg"><path d="M55.9 67.377h-16c-9.3 0-16.9 7.595-16.9 16.888v17.087h49.8V84.265c0-9.293-7.6-16.888-16.9-16.888Z" stroke="#fff" stroke-width="2" stroke-miterlimit="10" stroke-linejoin="bevel"/><path d="M47.9 58.883c6.13 0 11.1-4.965 11.1-11.091C59 41.666 54.03 36.7 47.9 36.7s-11.1 4.966-11.1 11.092 4.97 11.091 11.1 11.091Z" stroke="#fff" stroke-width="2" stroke-miterlimit="10" stroke-linecap="round" stroke-linejoin="round"/><path d="M33.1 82.466v18.886m29.1-18.886v18.886M37.3 32.204c-1.1-.2-2.2-.3-3.4-.3h-16C8.6 31.804 1 39.398 1 48.69v17.09h21.1" stroke="#fff" stroke-width="2" stroke-miterlimit="10" stroke-linejoin="bevel"/><path d="M25.9 23.31c6.13 0 11.1-4.966 11.1-11.091 0-6.126-4.97-11.092-11.1-11.092S14.8 6.093 14.8 12.219c0 6.125 4.97 11.091 11.1 11.091Z" stroke="#fff" stroke-width="2" stroke-miterlimit="10" stroke-linecap="round" stroke-linejoin="round"/><path d="M11.1 46.893v18.886M58 32.204c1.1-.2 2.2-.3 3.4-.3h16c9.3 0 16.9 7.594 16.9 16.887v17.087H73.2" stroke="#fff" stroke-width="2" stroke-miterlimit="10" stroke-linejoin="bevel"/><path d="M69.4 23.31c6.13 0 11.1-4.966 11.1-11.091 0-6.126-4.97-11.092-11.1-11.092S58.3 6.093 58.3 12.219c0 6.125 4.97 11.091 11.1 11.091Z" stroke="#fff" stroke-width="2" stroke-miterlimit="10" stroke-linecap="round" stroke-linejoin="round"/><path d="M84.2 46.893v18.886" stroke="#fff" stroke-width="2" stroke-miterlimit="10" stroke-linejoin="bevel"/></svg>