<svg width="976" height="244" fill="none" xmlns="http://www.w3.org/2000/svg"><path d="M123.72 188.445c90.465 33.863 190.203 1.892 257.957-30.836 34.823-16.837 68.7-36.89 101.631-56.186 42.393-24.972 86.49-50.89 132.669-70.186 45.043-18.728 159.543-56.186 247.926 2.27 50.721 33.675 86.112 95.725 105.037 184.45 1.704 8.324 3.407 16.837 4.921 25.35h1.893c-1.514-8.513-3.218-17.215-4.921-25.728-18.926-89.293-54.506-151.722-105.794-185.585-89.14-59.024-204.208-21.377-249.63-2.46-46.368 19.297-90.275 45.215-132.858 70.186-32.742 19.297-66.619 39.349-101.442 56.186-67.375 32.539-166.546 64.321-256.442 30.837-31.985-11.919-61.32-31.782-89.519-50.89-11.734-7.945-23.657-16.08-35.959-23.647v2.27c11.924 7.378 23.468 15.135 34.824 22.891 28.199 19.296 57.534 39.16 89.707 51.078Z" fill="#fff"/></svg>