<svg width="1440" height="883" fill="none" xmlns="http://www.w3.org/2000/svg"><path opacity=".3" d="M430.137 347.486C197.506 326.513 45.066 615.612-161.355 569.553c-165.138-36.848-282.057-209.631-319.875-291.416M453.969 335C671.79 419.328 680.272 746.046 885.72 796.268c164.36 40.179 415.91-119.412 415.91-119.412 83.83-58.317 126.79-102.896 137.79-117.896" stroke="#fff" stroke-width="2"/><path opacity=".3" d="M447.39 336.753c223.059 69.295 253.776 394.676 462.168 430.788 166.712 28.889 406.812-147.465 406.812-147.465 79.66-63.892 119.48-111.293 129.43-127.008M444.236 338.151c-229.422-43.846-409.67 228.785-610.532 162.565-160.691-52.977-259.975-236.462-289.53-321.582" stroke="#fff" stroke-width="2"/></svg>