<svg width="40" height="40" fill="none" xmlns="http://www.w3.org/2000/svg"><circle cx="20" cy="20" r="20" fill="url(#a)"/><path d="M13.675 29v-2.575l5.975-6.15c1.333-1.4 2-2.567 2-3.5 0-.683-.217-1.233-.65-1.65-.417-.417-.958-.625-1.625-.625-1.317 0-2.292.683-2.925 2.05l-2.9-1.7c.55-1.2 1.342-2.117 2.375-2.75a6.383 6.383 0 0 1 3.4-.95c1.583 0 2.942.5 4.075 1.5 1.133.983 1.7 2.317 1.7 4 0 1.817-.958 3.683-2.875 5.6L18.8 25.675h6.575V29h-11.7Z" fill="#fff"/><defs><linearGradient id="a" x1="31.144" y1="33.432" x2="2.822" y2="15.44" gradientUnits="userSpaceOnUse"><stop stop-color="#662DD8"/><stop offset="1" stop-color="#C8583F"/><stop offset="1" stop-color="#BF544D"/></linearGradient></defs></svg>