<svg version="1.0" xmlns="http://www.w3.org/2000/svg" width="853.333" height="853.333" viewBox="0 0 640 640"><path d="M345.5 1.6c-11 4.5-29.4 10.3-32.6 10.4-2 0-8.1-1.4-13.5-3-17.2-5.3-34.9-4.4-46.2 2.3-3.1 1.9-12 6.7-19.6 10.7-18.2 9.5-28.7 15.7-36.1 21.4-7.1 5.6-16.7 14.7-16.1 15.3 1 1 6.7-3 9.7-6.7 1.8-2.2 4.1-4 5.1-4s1.8-.5 1.8-1.1c0-2.5 7.5-7.3 14.2-8.9 3.1-.8 4.8-1.8 5.1-3.1.3-1 1.4-2.2 2.4-2.6 2.9-1.2 13.6-7.4 15.5-9 .9-.8 2.4-1.3 3.2-1.1 1.4.2 1.3.8-.8 3.8-4.4 6.5-8.5 23-5.7 23 .6 0 1.1-.6 1.2-1.3 0-.6.2-2.3.4-3.7.3-1.4.7-4.2 1-6.4 1.7-11.4 15.4-23.9 31-28.1 17-4.6 36.9 1.3 45 13.3 2.2 3.3 2.3 3.8.9 5.2-1.3 1.3-1.7 1.2-3.4-1-1-1.4-2.7-4.2-3.6-6.3-.9-2-2.1-3.7-2.6-3.7-1 0-.2 3.1 1.8 7.2 1.9 3.6 1.8 5.8-.7 12.3-2.4 6.5-4.4 7.5-2.5 1.2.7-2.3 1.1-5.6.9-7.2-.6-4.2-4.1-12.1-6.4-14.1-2.6-2.3-2.4-.9.6 5 3.1 6.1 3.2 11.5.4 17.3-2.8 5.8-4.3 4.6-3.4-3.1l.6-6.1-2.5 5c-1.4 2.7-3.3 7.2-4.2 10-.8 2.7-1.8 5.6-2 6.4-.3 1-.7 1.1-1.8.2-1.6-1.3-1.3-4.6.9-10.2 3.4-8.8 2.6-17.4-2.2-22.5-3.6-3.9-3.9-2.2-.9 4.5 2.9 6.5 2.8 8.6-.6 15.3-2.1 4.3-2.1 4.3-7.9 2.3-7.5-2.7-11.6-2.2-20.7 2.4-4.5 2.3-8.2 3.8-8.2 3.4.1-.5.7-1.9 1.5-3.3 3.3-5.7.7-8.1-3.6-3.4l-2.4 2.7 2.3-.6c2-.5 2.2-.2 1.6 1.6-1 3.4-2.3 4.4-3.4 2.7-1.3-2.1-1.2-.5.5 6.5.8 3.3 1.4 7.4 1.5 9.2 0 4.4 1.6 5 1.8.7.2-6.1 2.1-11.2 5.5-14.7 2.6-2.8 4.4-3.6 10.2-4.7 9-1.7 11.1-1.5 14.6 1.4 2.2 1.9 2.5 2.5 1.4 3-2.1.8-1.9 1.8 1 6 1.4 2 2.5 3.9 2.5 4.1 0 .9-14.5.4-16-.5-1.1-.7 0-1 3.8-1 5.6 0 6.8-1.4 2.6-3-8.1-3.1-10.4-.4-10.3 12.4 0 6-.4 10.2-1.1 11.1-.6.8-.9 1.8-.6 2.3 1.6 2.7-7.3 5-11.9 3.2l-3-1.2 2.5-1.1c8.2-3.5 11-5 11-5.8 0-1.5-2-1-5.2 1.2l-2.9 2.1.7-6c.4-4 .3-6.2-.5-6.6-.7-.5-1.1.7-1.1 3.8 0 3.5-.5 4.8-1.9 5.6-2.8 1.5-4.1 1.2-3.4-.6.4-1.2.2-1.5-.8-1.2-.8.3-1.3 1.3-1.3 2.2.1 1.2-.8 1.6-4 1.7-2.2 0-4.9.2-5.8.4-3 .6-2-.3 2.7-2.4 5.5-2.4 6.4-4.6 5.3-11.9-1-6.5-2.2-8.2-5.3-8.2-1.2 0-5.3-2.2-9-5-7.1-5.2-11.3-6.6-17.2-5.7-4.6.8-5.2 1.5-2.9 3.3 2.7 1.9 3.6 1.8 3.6-.5 0-1.7.4-1.8 4.2-.9 4 .8 14.9 7.8 17.7 11.2 1.1 1.3 1.1 1.9.1 3.1-2.1 2.5-8 1.7-15.9-2-8.2-4-8.9-4.1-7-1.9 1.4 1.7 8.9 5.4 15.1 7.3 2.1.7 4.1 1.7 4.4 2.3 2.2 3.5-11.1 5.1-19.1 2.3l-4-1.4 3.3 2.8c1.7 1.5 3.2 3 3.2 3.3 0 .3-1.7 1.7-3.8 3.2-4.5 3.1-8.7 3.3-21.1 1.1-4.7-.8-8.6-1.3-8.8-1.1-.2.2 3.9 2.1 9.1 4.1 10.2 4.1 10 4.1 20.1 0 2-.8 2-.8 0 1.4-3.1 3.5-6.6 5-14 5.7-4 .4-8.6 1.7-11.2 3.1-2.4 1.2-5.5 2.3-6.9 2.3-1.3 0-2.4.5-2.4 1.1 0 .6-.7.9-1.5.5-.8-.3-1.5-.1-1.5.4 0 1.4 3.8 2.2 7 1.5 4.5-1 3.6.8-1.6 3.4-2.8 1.4-5.7 2.1-7.5 1.9-1.8-.3-2.8-.1-2.6.6.2.6 2.3 1.1 4.5 1.1 2.3 0 4.2.4 4.2 1 0 1.3-5.8 7.5-7 7.5-.5 0-2.1-1.1-3.6-2.5-2.9-2.7-7.4-3.1-8.2-.7-.5 1.5 5.3 4 11.2 4.8 4 .6 4.7.3 8.5-3.1l4.1-3.8 10.8.6c10.5.6 10.6.5 6.2-.9-5.3-1.8-12.9-2.4-15.1-1.3-.8.4-2.1.4-2.9-.1-1.2-.7-1.2-1.1 0-2.5 1.8-2.2 8.1-5.3 14.2-7.2 3.6-1 4.8-1.8 4.4-2.9-.4-1 .4-1.8 2.2-2.5 4.8-1.7 6.6-2.9 12.2-8 5.1-4.6 9.4-6.9 10.6-5.6.7.7-8.7 12.3-12.4 15.4-1.5 1.3-3.5 2.3-4.4 2.3-1 0-1.8.5-1.8 1 0 1.4 4.7.2 8.5-2.1 1.7-1 4.8-3.6 7-5.9 5.4-5.6 8.8-7.2 15.2-7.1 9.1.1 9.3 1.6.8 5.7-5.6 2.6-12.1 9.1-13.1 13.1-.4 1.3-1 2-1.6 1.7-1.6-1-5.8.6-5.8 2.2 0 1.3-.8 1.5-5.1.9-6.4-.9-5.9.8.9 2.9 4.7 1.5 4.7 1.5 1.2 1.5-1.9.1-4.8.8-6.5 1.7-1.6.8-3.8 1.3-4.8 1-2.7-.7-4.7.3-4.7 2.5 0 1.8 3.1 3.9 8 5.4 2.4.7 2.4.7.7-1.2-.9-1.1-1.7-2.1-1.7-2.4 0-.2 2-.5 4.4-.6 9.5-.3 13.8-3.2 23.2-15.9 8.2-11.1 14.7-14.5 21.9-11.4 2.3 1 2.2 1.1-2.3 1.5-3.7.4-5.6 1.5-2.6 1.5 1 0 3.2.9 4.8 1.9 2.7 1.8 3.1 1.8 5.3.4 2.1-1.4 2.3-1.4 1.7.1-.4 1-.1 1.6.9 1.6 2.9 0 6.7-2.3 6.7-4 0-3.1 5.6-9.5 10.4-11.9 6.3-3.1 10.1-2.3 16.3 3.3 4.2 3.8 4.6 4.5 3.4 6-1.9 2.2 0 2.1 6.7-.4 8.4-3.2 16.8-1.6 21.5 4 3 3.5 3.7 9.9 1.4 11.8-1.5 1.3-8.7-.2-8.7-1.7 0-4-15.6 1-22.7 7.2-1.8 1.6-2.1 2.7-1.7 6.1.9 7-2.1 7.8-16.3 4.8-5.5-1.2-8.6 0-20.3 7.9-5.2 3.5-12.7 7.7-16.5 9.2-12.5 5.1-15.3 6.6-15.9 8.4-.9 2.9-4.6 4.6-9.7 4.4-3.4 0-5.4.5-7.5 2.2l-2.9 2.2 1.6-2.5c.8-1.4 4.9-4.2 9-6.2 4.9-2.5 9.1-5.6 12.5-9.3 2.8-3 5.6-5.5 6.2-5.5.7 0 5.7-2 11.2-4.5 5.5-2.5 10.5-4.5 11-4.5s-.7 1.6-2.8 3.5c-2 1.9-3.2 3.5-2.5 3.5.7 0 3.1-1.8 5.5-4.1 9.1-8.7 9.5-8.9 15.9-8.9 3.3 0 7.6.7 9.6 1.5 4.1 1.7 5.3 1.9 5.3.6 0-.5-1.3-1.4-3-2-3.3-1.1-3.7-2-1.8-3.9 1-1 1.6-.8 2.9 1l1.7 2.2 1.9-3.3c5.5-10 7.2-11.9 12.7-14.6 4.8-2.3 6.5-2.7 11-2.2 6.2.6 10.3 2.9 10.8 5.9.4 2.8 2.5 3.4 3.2 1.1 1-3.2-.9-7.7-3.9-9.2-4.9-2.4-20.6-1.5-24.9 1.5-1.3.9-2.3 1-3.5.2-2.3-1.4-7 .8-13.6 6.4-5.3 4.4-11.8 7.7-14.9 7.8-1.1 0-2.7-.7-3.7-1.6-1-.9-3.9-1.9-6.4-2.1-7.4-.9-5.6-2.7 3.7-3.9 7.9-.9 11.1-2.1 18.5-7 5.9-4 7.2-4.5 11-4.1 5.1.5 7.7-1.5 4.4-3.2-5-2.7-10.7-.9-19.8 6.5-2.9 2.4-6.1 4.5-7.1 4.5-2.2.2-11.7-.2-16.1-.6-6.4-.6-9.5 1.1-14 7.4-4.2 6-5.1 8.6-2.8 7.9 1.2-.5 3.8-4.1 6.9-9.7.9-1.7 2.4-3.1 3.2-3.1 1.2 0 1 .9-.9 4.2-1.4 2.4-2.5 4.9-2.5 5.5 0 2.3 1.7 1.3 3-1.6.6-1.6 2.3-4 3.7-5.3l2.5-2.3-2.6 4.9c-1.4 2.7-2.6 5.7-2.6 6.8 0 1-.7 2.1-1.5 2.4-2.7 1.1-1.7 3.4 1.5 3.4 2.2 0 3-.5 3-1.7 0-1.3.3-1.4 1.2-.5 1.7 1.7-.7 4-6.1 5.6-2.5.8-5.9 2.1-7.6 3-1.6.9-3.7 1.6-4.6 1.6-.9 0-2.7.9-4 1.9l-2.4 2 4-1.4c5-1.6 5.9-1 2.2 1.7-1.5 1.1-4.6 3.8-6.8 5.9-4.6 4.4-9.5 7.3-10.8 6.4-1-.6-.4-6.1 1-8.7.5-1 5.2-5.2 10.5-9.4 5.3-4.1 9.3-7.8 9-8.1-.2-.3-1.7.3-3.3 1.4-4.4 2.9-9.9 5.2-14.5 5.9-3.6.6-3.9.8-2 1.5l2.2.8-3 4.8c-1.7 2.6-3 5.3-3 6 0 1.7-3.2 3.3-6.7 3.3-3.7 0-6.7 2.1-14.4 10.2-5.9 6-6.9 6.7-11.4 7.2-10.6 1.3-15.1 2.7-19.7 6.1-5.1 3.7-7.6 6.9-8.3 10.5-.6 3.1-4.8 10-8.2 13.4-2.6 2.7-2.8 2.7-3.1.8-.5-3.1 6.7-17 10.7-20.9 3.9-3.8 4-4.6 2.6-18.6-.9-8.6.1-10 4.5-6.3 1.7 1.4 3.6 2.6 4.1 2.6 1.7 0 .9 2.1-2.1 5.3-4.3 4.5-3.9 6.4.6 3.6 2.7-1.6 6.1-2.4 13.2-3.1 10.9-1 13.9-2.4 19.2-9.2 3.4-4.4 6.2-6.2 10.8-7.1 5.1-.9 5.2-3.5.2-3.5-4.2 0-4.7-1.8-.9-3.4 2.7-1.1 2.9-1.5 1.3-1.8-2.9-.6-8.3.8-10.4 2.7-1 .9-2.8 4.2-4.1 7.3-2.8 7.1-6.2 10.9-11.1 12.2-4.3 1.2-8.8.4-8.8-1.5 0-1.5 6.8-7.5 8.4-7.5.6 0-.5 1.6-2.4 3.5-1.8 1.9-3.1 3.8-2.7 4.1 2.1 2.1 12.7-6.6 12.7-10.3 0-1.3-.5-1.2-2.5.7-3 2.8-3 2.8-.5-5.1 2.5-7.8 3.7-9.4 8.4-11.4 3.9-1.6 4.3-2.4 2.4-4.3-1.7-1.7-5.9-1.5-8.8.5-1.4.9-2.6 1.7-2.7 1.8-.2.1-.7 2.5-1.3 5.3-1.2 6.7-4.7 12.1-8.2 12.9-1.6.3-2.8 1-2.8 1.5 0 .6 1 .8 2.3.5 2.1-.6 2.1-.6.3.8-2.5 1.9-13.6 2.1-13.7.2v-14.2l-2.2 4.5c-2 4.2-2.2 4.3-2.5 1.8-.4-3.3 1.1-6.3 4.3-8.4 4.8-3.1 8.2.5 5.4 5.8-.7 1.3-.7 2.4-.1 3 1.2 1.2 5.5-3.3 8.2-8.6 2.3-4.6 1.8-5.9-1-2.8l-1.9 2.1-4-2.2c-3.4-1.9-4.4-2-6.1-.9-1.8 1.1-2.1 1-3.1-1.5-.9-2.5-1.5-14.6-.7-16.8.2-.6-.1-1.1-.7-1.2-1.8-.4-2.2 3.9-2.8 28.2-.3 13.2-.9 25.6-1.3 27.5-.3 1.9-2.6 7.7-5.1 12.8-6.9 14.6-9.6 22.5-11.8 33.7-1 5.2-.7 14.4.6 19.3 1.2 4.8 1.1 4.8-2.7 10.2l-3.9 5.4.1 11.1c0 6.9.7 13.4 1.7 17.5 3.2 12 3.5 15.3 4.2 40.5.6 21.7 1 24.8 3.7 29.3 1.7 2.7 1.8 3.8.9 6.4-1.6 4.6-1.3 10.8.9 15.6 1.8 3.9 1.8 4.5.4 8.5-2.3 6.3-1.1 11.6 5.6 25.7 3.3 6.9 6.2 14.3 6.5 16.5.6 3.7.2 4.5-4.3 10.5-7 9.1-18 31-19.3 38.5-1 5.7-.8 10 .6 13.7 1.3 3.3-18.1 11.9-30 13.3-5.5.6-8.7 2.3-11.1 6-1.4 2.1-1.6 4.2-1.1 10.9.8 11.6 3.1 20.4 8.4 31.6 12.7 27.1 35.4 51.7 64.5 70 35.2 22 59.9 29.5 110.3 33.5 3.9.3 9 .8 11.5 1 2.5.3 8.3.7 13 1 14 1 19.1 1.4 26.5 2.2 12.1 1.4 55.6.6 74-1.2 2.2-.3 6.5-.7 9.5-.9 7.5-.7 12-1.4 22.5-3.7 14.1-3 44.7-11.9 48.1-14 1.7-1 4.8-2.1 7-2.4 5.4-.8 10.3-2.4 13.9-4.5 1.7-1 4.7-2 6.8-2.3 2-.3 5.1-1.5 6.7-2.7 1.6-1.2 4.1-2.3 5.5-2.6 11.1-2 49.7-22.5 54-28.7 1.8-2.5 1.8-8.4.2-14.6-2-7.3-3.7-6.4-3.7 1.9 0 6.6-.2 7.4-2.8 9.9-2.7 2.4-14.1 7.1-17.3 7.1-1 0-2.5-4.3-4.8-13.3-6.2-24.6-12.7-41.4-21.8-57-2.5-4.4-4.3-8.4-3.9-9.3.4-1-2.8-5.1-9.7-12.4-10.5-11.1-15.2-16.8-14.5-17.5.7-.7 6.2 2.5 9.8 5.6 1.9 1.7 6.2 5.6 9.5 8.8 7.8 7.4 9.3 8.4 6.9 4.1-2.6-4.5-12.3-14.4-21.8-22-11-8.8-16-14-14.7-15.3 1.7-1.7 9.3 1.9 14 6.8 5.4 5.6 11.7 7.7 22.1 7.3l7.3-.3 4.9 5.5c8 8.9 14.3 18.9 18.6 29.5 5 12.5 12.4 33.7 15.1 43.4 2.1 7.7 3.7 10.5 5.3 9.5 1.7-1.1.1-7.5-6.8-27.1-9.8-28.1-15.4-39.3-27.8-55.7-4.8-6.4-5.8-8.5-5.6-11 1-8.8.4-19.3-1.3-23.6-2-4.8-5.3-9-7.2-9-1.7 0-5-3.9-7.4-8.7-2.5-5.1-2.6-6.6-.4-8.4 3-2.6 7.3-9.2 7.3-11.4 0-1.2 1.4-4.9 3-8.1 3.5-6.9 4.4-14.4 2.5-21.9-1.1-4.1-1.1-5.4.1-7.7 1.7-3.3 1.8-8.8.2-12.3-1.9-4.2-2.8-2.8-2.8 4.5 0 3.8-.4 7-1 7-.5 0-2-1.1-3.4-2.5-1.9-1.9-3.6-2.5-6.8-2.6l-4.3-.1 3-1.3c1.6-.7 4.6-1.1 6.5-.8 3.3.5 3.4.5 1.8-1.2-2-2.2-7.7-2.2-14.2 0-8.7 3-11.6 2.3-17.6-4.1l-3.5-3.7 4.6 2.7c5.9 3.4 9.3 3.3 17.1-.4 4.4-2.1 7.7-3 10.8-2.9 7.3.2 7.9 0 9.2-2.4.7-1.2 1.6-5.2 2-8.9.4-3.8 1.2-10.1 1.7-14 .9-8 .7-73.9-.4-80.3-1.9-12.3-4.1-22.7-7.5-37-4.6-19-7.6-34.2-8.9-44.5-.9-8-.8-27.6.4-40.1.8-9.2-.2-12-7.3-19.5-6.1-6.7-13.7-12.5-23.5-18.1-4.4-2.6-9-6.1-10.5-8.1s-5.9-6.8-9.8-10.7c-9.3-9.2-17.3-13.3-29.7-15-8-1.1-9.4-1.6-11.5-4.1-5.4-6.6-7-9.1-7.6-11.9-1.2-5.3-5.3-10.3-11.4-13.8-3.2-1.9-7.8-4.8-10.1-6.5-9.6-7-26.9-10.2-35.6-6.6zM358 2.7c.9.8.8 12.9-.2 14.8-.6 1.1-2.1 3.1-3.4 4.4-2.6 2.6-2.3 4.5.7 3.6 4.4-1.4.1 4.7-4.6 6.5-1.4.5-5.5 1.5-9.2 2.1-8.5 1.4-9.7 2-15.5 7.7-2.6 2.5-5 4.4-5.2 4.1-.9-.9 4-13.6 6.4-16.6 3.3-4.1 6.7-5.5 12.6-5.2 3.9.3 4.8 0 5.4-1.7.5-1.1 2.6-3.2 4.9-4.7 2.3-1.5 4.1-3.2 4.1-3.7 0-1.4-.2-1.3-5.1 1.4-2.4 1.3-7.9 3.8-12.1 5.6-5.5 2.2-9 4.5-12 7.6-4.5 4.7-6.8 5.6-6.8 2.4 0-4.7 8.4-10.9 19.5-14.4 6.4-2 11.8-5.3 11-6.7-.5-.7-1.3-.5-2.5.6-2.7 2.4-3.7-.1-1.3-3.2 3.5-4.8 10.5-7.2 13.3-4.6zm10.5 7c.3 1.7 1 3.3 1.5 3.5 3.1 1 1.5 9.9-2.7 15.6-3.2 4.3-4 3.5-1.4-1.6 2.5-4.9 2-10.4-1.4-14.8-2.4-3.1-3.2-6.4-2-7.6 1.4-1.4 5.4 1.9 6 4.9zm6.4-1.7c.5 0 2 .9 3.5 2.1 2.1 1.7 2.4 2.4 1.5 3.5-2.5 3.1-6.7.6-5.3-3.1.4-1 0-1.5-1.5-1.5-1.2 0-2.1-.5-2.1-1.1 0-.6.7-.8 1.6-.5.9.3 1.9.6 2.3.6zM341 9.5c0 1.6-4.4 4.9-8 6-4.7 1.4-11.5 5.3-13.9 7.9l-2.4 2.6-1.9-4.1c-1-2.3-1.8-4.5-1.8-4.9 0-1 9.2-4.5 18-6.9 8.4-2.2 10-2.3 10-.6zm23.5 9.9c-.6 7.2-6.7 16.6-10.9 16.6-.6 0-4.2 2.5-8.1 5.6-7.5 6-13.1 9.1-18 9.6s-4.4-2.7 1.3-8.2c4.2-4 5.9-5 9.9-5.5 10.1-1.3 11.4-1.7 14.7-4.5 3-2.7 9.6-14.2 9.6-16.9 0-.6.4-1.1 1-1.1.5 0 .8 2 .5 4.4zm27.2-.7c3.3 1.5 7.8 7.1 6.8 8.2-.3.2-1.9-1-3.6-2.7-1.7-1.8-4.1-3.3-5.3-3.3-2.1-.2-7.8-.6-10.6-.8-1.2-.1-1.1-.5.4-1.6 2.6-2 8-1.9 12.3.2zm1.1 6.9c1.3.9 2.1 2.2 1.8 2.9-.8 2.1 1.9 6.6 5.6 9.8l3.3 2.7-9-3.1c-9.9-3.4-14.8-6.4-7.9-4.9 4.6 1.1 5.3.6 3-1.9-2.5-2.8-7.3-3.1-13.3-1.1-5.6 2-5.9 1.9-4.3-1 2.9-5.4 14.7-7.3 20.8-3.4zm8.5 7.4c.3 1.3 0 2-.9 2-.8 0-1.4-1-1.4-2.6 0-2.8 1.5-2.5 2.3.6zm-93.8 7c-2.3 4.5-2.7 3.3-.7-2.5 1.2-3.6 1.8-4.4 2-2.8.2 1.2-.4 3.6-1.3 5.3zm60.8-1.1c-2.6 1.5-6.8 4-9.3 5.7-7.8 5.3-14 6.8-14 3.3 0-.6.7-.8 1.6-.5 1.8.7 6.4-1.8 6.4-3.5 0-.6-.6-.7-1.2-.3-.7.4-.1-.6 1.3-2.1 1.5-1.5 3.9-2.9 5.3-3 1.5-.2 3.2-.8 3.9-1.3 1.3-1.1 7.4-2 9.5-1.3.8.2-.8 1.6-3.5 3zm18.6-1c.2.1-.2.7-.8 1.5-1 1.2-.7 1.5 1.9 1.4 2.9-.1 4.9 1.4 5 3.6 0 .4-1 .5-2.2.2-7.5-2.2-16.2-1.3-18.9 2-1.4 1.8-1 1.7 3.4-.1 6.1-2.5 10.4-2 14.3 1.9 3.4 3.4 4.3 5.9 2.4 7.1-.5.3-1 2.2-1 4.1 0 2.1-.4 3.3-1 2.9-.5-.3-1-2.8-1-5.5 0-6.8-1.5-7.4-10.2-4.4-6.8 2.4-6.9 2.4-13.8.8-3.9-1-7-2-7-2.4 0-.8 5.8-6.2 9.5-8.7 5-3.5 14.3-5.5 19.4-4.4zM318 40.7c0 1-.5 2.5-1 3.3-.7 1.1-1 .7-1-1.8 0-1.7.5-3.2 1-3.2.6 0 1 .8 1 1.7zm84.5 3.3c-.3.5-1.2.7-2 .3-2.1-.7-1.9-1.3.6-1.3 1.1 0 1.8.4 1.4 1zm-111.7 4.8c.2 3.1-.1 4.2-1.1 4.2-1.5 0-2.5-4-1.9-7.3.7-3.3 2.7-1.1 3 3.1zM437.4 52c7.2 3.4 17.6 13.2 17.5 16.4 0 2-.1 2-1.7-.4-2.9-4.4-9.8-10.7-13.1-11.8-1.7-.6-3.1-.7-3.1-.2 0 .5.8 1.1 1.8 1.4 1 .4 3.2 1.9 4.9 3.4 3.5 3.1 11.3 12.3 11.3 13.4 0 .3-3.3-1.2-7.2-3.4-11.9-6.5-16-7.8-24.9-7.8-5.1 0-7.8-.4-7.4-1 .3-.6-.3-1.1-1.4-1.1-1.2-.1-3-.2-4-.3-2.5-.1-4-1.6-1.7-1.6.9 0 1.5-.4 1.1-.9-.3-.6-2.8-.7-5.7-.4-6.1.7-5.9-.4.8-4.3 10.5-6.2 21.8-6.7 32.8-1.4zM302 49.7c0 .4-1.7 2.4-3.7 4.5-4.8 4.9-2.6 4.8 4.9-.2 3.3-2.2 6.7-4 7.6-4 2 0 10.2 4.8 10.2 6 0 1.4-1.3 1.2-3.6-.5-2.8-2.1-2.9-2-2.6 3.4.2 2.7-.1 5.8-.7 6.8-.9 1.6-1.1 1.6-1.2-.7-.1-1.4-.1-3.3 0-4.3.4-3.2-1.7-1.7-2.3 1.8-.9 4.6-2.9 5.9-2.2 1.3.5-3.3-.7-6.8-1.9-5.6-.4.3-.8 2.4-.9 4.6-.3 4.2-2.4 7.6-6.5 10.7-2.4 1.8-2.5 1.8-8.8-1.6-3.5-1.9-7.6-4.4-9.1-5.6l-2.7-2.1 2.8-3c1.5-1.6 4.5-3.4 6.7-4.1 2.1-.6 5.7-2.7 8-4.6 4-3.4 6-4.3 6-2.8zm56.5 6.1c5.8 3.1 8.5 5.4 8.9 7.8.2 1.2 2.5 5.4 5 9.4 5 8 6.5 12.8 4.6 14-2.2 1.3-4.6 0-10-5.6-4.9-5-6.5-5.9-9.7-5.5-.7.1-5.5-1.6-10.7-3.9-5.2-2.2-10.5-4-11.8-4-3.4 0-6.8-1.1-6.8-2.1 0-1.8 5.5-3.1 13-3.1 5.9-.1 9 .5 14.3 2.7 7.4 2.9 9.4 2.8 5-.3-7.3-5.1-9.3-5.6-21.1-5.4-9.3.1-11.4-.1-11.9-1.4-.8-2.1-.4-2.3 6.8-3.8 9.2-1.9 19.5-1.4 24.4 1.2zm24.6.3c1.1.5 1.7 1.4 1.4 1.9-.6 1-4.5-.9-4.5-2.2 0-1.1.8-1 3.1.3zm-1.8 5.1c5.7 3.8 8.6 7.1 9.8 10.7.6 2 2.4 5.3 4 7.3 4.1 5.2 3.6 6.9-.7 2.7-4.3-4.1-14.6-16.5-16.2-19.6-2.2-4-1.4-4.3 3.1-1.1zm-1.8 8c2.7 3.5 5.9 8.8 7.2 11.8 1.3 3 2.9 6.5 3.5 7.7 1.9 3.8.2 3.6-2.1-.2-1.1-1.9-3.1-3.9-4.4-4.4-2.9-1.1-14.3-20.4-13.1-22.3 1-1.5 4.2 1.1 8.9 7.4zm-146.1-1.1c-2 2.2-11.3 7.3-12 6.6-.7-.7 3.9-5.4 8-8.1 4.6-3.1 7.2-2.1 4 1.5zm198-1.6c5.4.6 6.9 1.2 6.1 2.5-1.2 1.9-15.5 4.6-15.5 3 0-.5 1.7-1.2 3.8-1.6 2-.4 4.4-1 5.2-1.5 2.4-1.4-1.9-1.1-10 .6-3.9.8-8.5 1.3-10.2 1-3.2-.6-11.8-4.2-11.8-5 0-.5 25.8.3 32.4 1zm-152.1 1.9c2.9 1.3 7.7 4.2 10.7 6.5 5 3.8 5.9 4.1 9.5 3.5 2.2-.3 5.4-1.5 7.1-2.5 4.6-2.8 5.7-2.5 3.9 1.1-3.3 6.3-12.6 6.6-21.5.7-9-5.9-16.8-5.6-24.1 1-4.5 4.1-4.6 3.8-1.9-3.7 3.4-9.3 7.1-10.8 16.3-6.6zm119 2.8c.8 1.7 1.3 3.8.9 4.6-.4 1.2-1 .9-2.9-1.2-2.5-3-3.1-6.6-.9-6.6.7 0 2 1.4 2.9 3.2zM344.5 74c.3.6.3 1-.2 1-1.1-.1-4.3-2.6-4.3-3.4 0-.9 3.7 1.1 4.5 2.4zm-6 .9c2.2 1 5.2 3.1 6.8 4.6 4.6 4.7 3.4 5.9-3.9 4-4.8-1.2-6.5-1.1-16.1.9-2.1.4-11-1.5-13.2-2.9-1.7-1 6.6-7.2 10.9-8.3 4.6-1.1 10.5-.4 15.5 1.7zm114 1.3 3.9 1.5-4.4.7c-2.5.3-9.4.9-15.5 1.3-10.2.6-10.9.5-9.6-1 1.2-1.5.9-1.7-4-1.7-3.3 0-4.9-.4-4.3-.9 2.2-2.2 27.8-2.1 33.9.1zm13.8 1.9c8.4 4.2 18.6 11 21.7 14.3l2.5 2.7-2.5-.9c-1.4-.6-3.8-1.7-5.4-2.5-2.3-1.2-6.8-1.5-22.7-1.5-21.5 0-26.2-.9-18.8-3.5 3.9-1.4 4.1-1.6 2.2-2.2-1.3-.4-2.1-1-1.8-1.4 1.4-2.4 25.1.4 31.5 3.8 4.9 2.5 6.8 2.7 4.9.5-1.6-2-9.8-6.2-13.4-6.8-3.2-.6-5.5-2.3-5.5-4.2 0-1.9.2-1.8 7.3 1.7zm-106.5 2.8c2.3 1.2 4.6 3.1 5.3 4.2 1.1 2.1 1 2.1-4.2 1.6-4.8-.5-5.9-1.1-9.1-4.8-2.1-2.3-3.8-4.5-3.8-5 0-1 6.1 1.1 11.8 4zM418 82c7.3 2.1 14.7 6.5 19.8 11.6 4.5 4.5 2.1 4.4-3.4-.2-2.5-2-4.9-3.2-5.6-2.8-.8.5-.9.2-.5-.9.5-1.2.1-1.7-1.3-1.7-1 0-2.2.5-2.5 1-1 1.6 1.1 3.7 6.2 6.2 4.5 2.3 13.9 10.6 13 11.5-.3.2-3.9-1.4-8.1-3.7-4.2-2.3-8.2-4-8.8-3.7-.8.2 0 1.1 1.7 2 3.2 1.6 17.1 15.5 19.8 19.8 1 1.4 1.4 2.9 1 3.2-1.2 1.2-4.6.7-5.7-.8-1-1.4-14.4-5-15.3-4.1-.7.7 14 6.8 17.5 7.2 4.7.6 6.3-.5 7.1-5l.6-3.6 8.4 7c4.7 3.8 8.9 7 9.4 7 1.5 0-1-2.5-10.2-10.2-4.7-4-9.9-8.6-11.4-10.2-8.2-8.5 7.2.4 16.3 9.4 7.5 7.5 12.4 15.8 12.2 20.7-.1 1.9.3 3.1.7 2.8.5-.3 1 1.4 1 3.7 0 2.4.4 6.6.9 9.3.5 2.8.9 10.2 1.1 16.5l.2 11.5-2.3-3.5c-1.6-2.5-2.3-3-2.5-1.9-.5 2.3 4.4 13 5.8 12.7 2.2-.6 7.8 11.9 8 18.2.4 8.5 0 8.8-3 2.8-1.6-3.2-3.9-7.1-5-8.7-6.3-8.8-11.5-20.4-12.5-27.6-.3-2.2-2.5-7.6-5.1-12-5.4-9.6-8-15.9-7.2-18 .4-.9 1.9-1.5 3.6-1.5 3.4 0 10.1 5.6 10.1 8.5 0 1.1.5 1.5 1.4 1.2 1.9-.8 2.3.5 2.5 9.3.1 4.1.6 8.1 1.1 8.9 1.3 2.3 2.3-6.5 1.6-14-1.1-12.3-2.6-16.5-7.4-21.1-4.3-4.1-7-5.2-16.9-7.3-4-.8-8.9-2.1-10.8-2.9-2.1-.9-3.7-1.1-4-.5-1.1 1.7 10.9 6 20.8 7.4 2.7.4 5.8 1.6 7.2 2.8 2.5 2.3 6.8 9.8 6 10.5-.3.3-2.3-.8-4.5-2.3-2.9-2-5.8-3-10.3-3.4l-6.2-.6 6.5-2 6.5-1.9-9.1-.7c-11.1-.8-17.2-3.7-27.4-13-1.9-1.7-6.9-5.7-11-8.8-4.1-3.1-8.6-6.6-10-7.9-1.4-1.2-3.2-2.2-4-2.3-7.8-.3-11.4-1.9-9.2-4.1 1.9-1.9 8.6 1 19.3 8.3 7.1 4.8 10.4 6.4 14.3 7 2.8.4 5.9 1 6.9 1.4.9.4 1.7.3 1.7-.3s-2.4-1.8-5.2-2.8c-7.3-2.3-12-4.8-18.8-9.8-3.1-2.3-7.3-4.8-9.1-5.5-1.9-.7-4.5-1.7-5.9-2.3l-2.5-1 2.5-1c1.4-.5 6-.7 10.3-.3 5.1.4 7.7.2 7.7-.5 0-.5-.6-1-1.3-1-.7 0-2.1-.6-3.1-1.3-1.5-1.1-1.4-1.3 1.5-1.5 3.9-.3 6-1.8 5.2-3.8-.7-1.8-4.3-1.8-11.3.1-3 .8-5.6 1.5-5.7 1.5-.2 0-.3-.9-.3-2 0-1.2.9-2.4 2.3-2.9 2.1-.9 2.1-1-1-2.1-8.9-3.2 5-3.2 15.7 0zm-23.8 4.5c1.1 2 1.1 2-1.1 0-1.3-1.1-2.8-2.9-3.3-4-1.1-2-1.1-2 1.1 0 1.3 1.1 2.8 2.9 3.3 4zM188.5 89c-.8 1.4-8.6 5.3-9.2 4.7-.4-.5.5-1.1 6.7-4.4 3-1.6 3.3-1.6 2.5-.3zm153.6.9c-1.4 2.5-7.9 8.1-9.5 8.1-.8 0-2-.7-2.7-1.6-1.6-1.9 0-3.4 6.6-6.5 5.3-2.5 6.9-2.5 5.6 0zm16.3-.4c.3.8 1.6 1.5 2.8 1.5 4.5 0 9.8 2.1 11.4 4.6 2.3 3.3 1 4.3-2 1.5l-2.5-2.3-10.7 1.6c-7.8 1.1-11.3 2.1-12.8 3.5-2.8 2.6-7.3 11.7-8 16-.9 6.2 2.3 10.3 6.4 8.1 1.6-.9 2-2.4 2.2-9.8l.3-8.7 1.4 4c1.5 4.3 4.7 8.5 6.6 8.5.7 0 1.2-1.5 1.2-3.8 0-9.9 3.6-10.9 4.1-1.1.2 3.5.7 6.8 1.3 7.3.6.6.9.6.9-.2 0-.7.5-1.2 1-1.2.6 0 1 1.1 1 2.5 0 1.5-.6 2.5-1.4 2.5-2.9 0-2.7 2.1.3 3.1 1.7.6 3.1 1.6 3.1 2.2 0 1.9 1.1 0 1.6-2.8.6-3.2 3.9-10.1 5.4-11 .5-.3 1.5-1.5 2.1-2.6.9-1.8.6-1.7-3 .6-5.3 3.3-5.2 2.1.3-3.3 3-2.8 5.4-4.2 7.3-4.3 9.9-.3 11.7.1 9.5 2.3-2 2-1.4 2.4 2.8 2 2.8-.3 5 .2 7.5 1.8 2.6 1.6 4.5 2.1 6.6 1.6 4-.8 7.5 1.1 12.7 6.8 4 4.3 5.6 8.3 3 7.3-7.8-2.9-7.2-.7.6 2.8 3.7 1.6 6 3.5 8.1 6.6 3.6 5.4 7.6 9.9 8.8 9.9 1.2 0 8.7 5.3 8.7 6.2 0 .4-1.2.3-2.6-.3-4-1.5-3.9-.5.3 2.7 12.8 9.7 12.4 11.5-1.5 6.8-4.5-1.5-10.1-4.3-13.6-7-4.6-3.4-6.2-4.1-7.3-3.3-1.5 1.3-.1 3.9 2.1 3.9.6 0 5.4 3.3 10.6 7.3 6.8 5.3 10.9 9.3 14.7 14.7 2.9 4.1 5.8 7.7 6.4 7.9 2 .6-.2-4.2-5-10.8-2.5-3.5-5.3-7.2-6.1-8.3-1.4-2-1.2-2 2.9.2 9.8 5 21.3 20.7 19.6 26.7-.5 1.6-.8 5.7-.8 9.3l.1 6.5-3-5.9c-1.6-3.2-3.1-5.6-3.4-5.4-.2.3.7 5.4 2.1 11.4 2.5 11.2 3.2 20.4 1.5 20.4-.5 0-1.1-1.5-1.4-3.3-.3-1.7-1-6.1-1.5-9.7-.7-4.6-2.9-10.2-7.2-19-7.7-15.5-9.1-17.5-14.3-20.7-5.5-3.4-10.8-8.5-9.6-9.3.5-.3-1.4-3.1-4.3-6.2-2.8-3-6.7-7.4-8.6-9.7-4.2-5.3-17.5-16.7-22.2-19.2-2-1-5.3-1.9-7.4-2.1-4.9-.3-5.1-1.1-.7-3.5 5.3-2.9 8.4-1.7 18.3 7.2 4.6 4.2 11 9.3 14.2 11.3 3.2 2 7.7 4.9 10 6.4s4.4 2.5 4.6 2.2c1-1-4.3-5.3-10.2-8.2-3.5-1.8-8.1-5-10.2-7.3l-4-4.2 3.5.8c5.1 1.1 6.9 1.1 7.2.1.2-.5-1.7-1.4-4.2-2-2.5-.7-7.4-3.4-11-6-8.2-6-8.2-6-4.3-5.3 1.8.4 4 .4 4.8.1 1.9-.8 2-3.4 0-3.4-.8 0-1.5-.5-1.5-1 0-1.7-8.3-1.1-12 .9-1.9 1-4.9 2.7-6.7 3.6-3.6 1.9-8.1 7.8-8.6 11.5-.4 2.4 3 11 4.3 11 .4 0 1.2-1.8 1.9-4 2.1-6.9 5.1-4.8 5.1 3.6 0 2.4.2 4.4.5 4.4s1.9-1.5 3.5-3.4c3.9-4.4 6-4.8 10.9-2.4 6 2.9 7.4 5.3 1.7 2.7-7.4-3.2-10.5-1.2-11.1 7-.2 2.8-.2 5.1 0 5.1s1.4-1.8 2.6-4c1.4-2.4 3.3-4.3 4.7-4.7 2.6-.6 13.2 2.2 13.2 3.6 0 .4-1.6 1.3-3.5 2-4.6 1.6-6.8 5-5.9 8.7.9 3.8 2.2 5.4 4.5 5.4 1.3 0 1.9.7 1.9 2.4 0 1.4.9 4 1.9 5.8 1.8 3.1 2.2 5.3 3.6 20.8 1.3 13.7 2 17.9 4.9 29.6 1.9 7.4 2.3 11.3 2.1 20.3-.6 21.5-2 37.1-3.5 37.1-.5 0-1.2 1-1.6 2.2-.4 1.3-1.7 3.6-2.9 5.3-2.8 3.8-6.7 12.5-5.5 12.5.4 0 2.4-1.9 4.4-4.3 2-2.3 3.6-3.6 3.6-2.9 0 2.1-6.1 10.1-8.3 10.8-4 1.3-4.3-4.5-.6-9.6 1.2-1.5 1.9-3.6 1.7-4.6-.5-2.5-5.5 5.8-6.4 10.7-.4 1.9-1.7 4.8-3.1 6.6l-2.3 3.2 2.5 1.7c1.4.9 4.2 1.7 6.2 1.8 4.6.3 8.8 4.8 10.4 11.1 1 3.9 1.7 4.8 4.8 6.1 3.7 1.5 8.1 5.1 8.1 6.6 0 1.4-8.3.9-14-.8-7.7-2.3-10.8-5.7-10.8-12.2-.1-5.5-.6-7.2-2.4-7.2-.7 0-.9 2-.5 6 .4 4.8.2 6-.9 6-1.7 0-11.7-9-10.9-9.8.2-.3 1.1.1 2 .8 2 1.6 1.9.1-.1-2.9-.9-1.2-5-3.8-9.1-5.7-10.1-4.6-21-12-22.8-15.4-.8-1.5-1.7-4.3-2-6.1-.7-3.7-2.1-5.9-4-5.9-.6 0-2-.9-3-2-3.3-3.7-9.8-1.6-10.7 3.5-.6 3 .3 3.2 2 .5 1.4-2.3 4.4-2.6 6-.8 1.5 1.9 4.4 12.5 4 15-.2 1.8-1 2.3-4.1 2.5-2.2.1-5 .9-6.4 1.8-1.4.9-2.7 1.5-2.9 1.2-.8-.8-1.6-20.7-1.7-46.3-.2-30 .4-33.1 7.3-37.9 6.3-4.4 6.5-2.5.6 4.4-6.6 7.7-7.1 10.7-2.7 16.7 3.7 5 9.6 10.5 8.8 8.1-.9-2.4.3-2.1 4.4.9 12.6 9.5 20.9 8.7 33.8-3.2 8.2-7.6 10.5-9 15.2-9.8 2.1-.3 5.1-1.7 6.6-3 2.5-2.2 2.8-3.1 2.8-8.5-.1-13.3-8.8-16-44.6-13.8-16.3 1.1-21.5 2-27.1 4.8-8.3 4.2-9.8 12.2-9.3 50.9.2 16.2.6 30.8.8 32.4.4 2.3-.1 3.5-2.3 5.7-2.4 2.5-3.6 2.9-8.2 2.9-3.3 0-6.2-.6-7.6-1.6-1.3-.9-2.5-1.4-2.8-1.1-1 1 .9 3.5 3.9 4.9 2.7 1.2 4.3 1.3 10 .3 3.7-.6 6.7-.8 6.7-.4s-1.9 1.4-4.2 2.4c-6.7 2.6-15.4.1-18.2-5.3-1.8-3.5-8.7-7.4-12.3-7-2.5.3-2.8 0-3.1-3-.4-4.1 2.3-13.5 4.4-15.3 1.2-1 2-1 3.5-.1 1.6 1 1.9.9 1.9-.7 0-2.7-3.2-3.5-7.3-1.8-6 2.5-10.2 10-7.8 13.8 1.7 2.8 2.2 8.6.8 9.7-.7.5-3 1.5-5.2 2.2-2.2.7-6.5 2.6-9.5 4.1-3 1.6-6.5 2.9-7.6 2.9-4 0-6.4 3.1-7.4 9.4-.8 4.9-.7 6.3.5 7.6 1 1.1 1.3 3.1 1.1 6.4-.3 3.5 0 5.2 1.2 6.5.9.9 1.8 2.8 1.9 4.1.2 4.3 4.4 14 5.9 14 .8 0 1.4-.9 1.4-1.9 0-2.6 1-5.1 2.1-5.1 1.6 0 1.1 9-.5 9.6-.8.3-1.9 1.9-2.5 3.5-.9 2.5-.8 2.9.8 2.9 3.9 0 3.2 6.8-.8 8.9-1.6.9-2.4.6-4.5-2.1-2.2-2.8-2.3-3.5-1.1-4.7 1.2-1.2 1.1-1.8-.5-4.2l-2-2.7 2.8.2c4 .2 3.8-1.8-.3-2.2-3.2-.3-3.8-.9-6.8-6.5-3.1-6-3.2-6.5-3.1-18.2.1-6.6.4-13.1.7-14.5.3-1.4.6-3.3.6-4.3.1-.9 1-2.6 2.2-3.8 1.1-1.1 1.9-2.2 1.7-2.4-.8-.9-11.7 5.5-16 9.4-3.6 3.2-5.1 5.5-5.9 8.7-1.5 6-2.9 6.5-2.9 1 0-6.7 1.4-8.8 9.6-14.1 9.3-5.9 11.6-9.5 6.2-9.5-1.1 0-1.8.7-1.8 1.9 0 2.6-4.4 3.3-5.9.9-.6-1-1.1-2.6-1.2-3.5 0-1.1-.5-.6-1.1 1.2-.6 1.6-1.7 3.4-2.4 3.8-.8.4-1.4 1.7-1.4 2.8 0 1.1-.4 1.7-1 1.4-.5-.3-1-1.7-1-3s.5-2.7 1-3c.6-.3 1-1.3 1-2.2 0-1.3-.3-1.3-1.6-.2-1.4 1.1-1.5.6-1.3-5.2.3-9.3 0-11.9-1.2-11.9-.5 0-1.7 1.6-2.5 3.5-1.4 3.4-1.3 3.8.6 6.2 2.8 3.6 1.7 4.2-1.4.8-3.2-3.4-3.2-5-.4-13.7 1.2-3.7 1.9-7 1.6-7.4-1.2-1.1-2.8.7-2.8 3.1 0 3.2-1.7 4.1-4 2-1-.9-2.9-1.5-4.2-1.4-3 .4-4.9-.8-4.2-2.6.4-.8 1-1.3 1.4-1 2.6 1.6 2.2-9.7-.5-16.3-1.7-4-1.9-7.2-.5-7.2.6 0 1 .4 1 1 0 .5.5 1 1 1 1.4 0 1.2-4.2-.4-6.2-.8-1.1-1.1-3.5-.8-6.8.3-4.1.1-5-1.2-5-2.5 0-1.9-1.2 2.1-4.7 3.7-3.1 3.7-3.2 1.8-4.6-1.9-1.5-1.9-1.5.2-6.9 1.2-2.9 2.4-6.7 2.6-8.3.3-1.7 1.2-5.1 2-7.6 2-6.1 1-7.9-3.5-6-1.8.8-5 1.6-7.2 1.9-4.8.6-4.6-1.3.5-3.9 4.8-2.5 8.4-3 10.7-1.3 1.5 1 2.3 1.1 2.8.3.4-.6-.1-1.6-1-2.1-1.6-.9-1.6-1.1-.1-3.5 1.8-2.7 1.3-2.6-3.8 1-4.7 3.3-4 1.3 1.5-4.3 5.8-5.7 5.3-5.7-3.5.3-3.2 2.1-6 3.7-6.3 3.5-.9-1 2.9-4.8 4.9-4.8 2-.1 2.1-.2.5-1.4-1.9-1.4-2.5-3.2-.8-2.1 2.3 1.4 11-4.7 11-7.7 0-.5-1.9-.8-4.1-.8-4.1 0-4.1 0-2.7-2.3.9-1.3 3.2-2.6 5.7-3.1 4.9-1.2 5.2-2.7 1.1-5.8-4-2.9-4.2-5.8-.3-3.2 1.5.9 3.9 2.8 5.3 4.1 3 2.8 3.7 1.6 1.6-2.6-2.3-4.3-2-5.4.9-4.7 3.6.9 3.1-.1-1.2-2.3-2.2-1.1-5.2-1.7-7-1.5-3.5.4-4.2-.6-1.8-2.6 1-.8 3.5-1.1 7.5-.7 4.3.3 6 .1 6-.7 0-1.6-3.7-3.6-7.2-3.8-3.1-.3-3.6-1.3-1.2-2.2 3-1.1 5.8-.6 8.1 1.6 2.6 2.4 3.8 2 2.8-1.1-.4-1.3-2.1-2.5-4.8-3.2-6-1.8-6.5-2.6-2.1-3.8 6.5-1.8 8.5-1.4 12.6 2.6 3.4 3.3 4 3.6 5.3 2.2.9-.8 2-4.1 2.5-7.2.5-3.2 1.2-6.2 1.5-6.7 1.1-1.7 2.5-1.1 3.6 1.6.5 1.5 1.2 2.4 1.6 2 1.1-1-1.7-5.3-4.5-6.7-1.4-.8-5.1-1.4-8.4-1.4-5.3.1-5.6-.1-3.4-1.2 1.3-.7 4.7-1.4 7.5-1.6 5.3-.4 8.3-1.7 4-1.7-1.3 0-3.1-.5-3.9-1.1-1.1-.8-.3-.9 3-.4 3.4.4 6.3 2 11.8 6.2 8 6.1 11.5 6.9 14.4 3.3 2.2-2.8 2.3-6.3.2-9.5-.9-1.4-1.4-2.6-1-2.6.3-.1.9-.2 1.4-.3.4-.1 2.1-.5 3.8-.9 1.9-.5 5.8-3.6 10.4-8.2 4.1-4.1 8.2-7.5 9.1-7.5.8 0 2.7 1.7 4 3.7 2 3.1 3.1 3.9 6.2 4.1 3 .3 4.3-.2 6.6-2.6 1.6-1.6 3.5-4.8 4.1-7.2 1.7-6.3 9-13.1 17.1-15.8 7.8-2.6 7.6-2.6 8.3-.7zm26.4 4.6c2.2 1.4 3.9 4.6 2.9 5.5-.9.9-7.8-1.4-9.8-3.2-1.1-.9-1.9-2.5-1.9-3.4 0-1.5.5-1.7 3.3-1.1 1.7.4 4.2 1.4 5.5 2.2zm94.3 0c8 2.1 11.6 4.7 10.6 7.4-.6 1.5-2.3 1.8-9.7 1.8-4.8.1-14.2-1.4-13.6-2.1.3-.3 5-.7 10.3-.9 20.7-.9 8.3-3.9-15.9-3.8-6.4 0-11.4-.2-11.1-.5 1-1.1 13.1-3.8 17.2-3.9 2.5-.1 7.9.8 12.2 2zm-198.3 7.1c-2.8 3.7-9.1 8.3-12.7 9.3-3.9 1.2-2-1.6 3-4.2 2.4-1.3 5.7-3.7 7.4-5.3 4-4 5.4-3.8 2.3.2zm86.9-1.8c.3.3.3 1 .1 1.6-.2.8-1.2.4-2.8-.9l-2.5-2 2.4.4c1.3.2 2.6.6 2.8.9zm-37.1 4.1c-.4 3.1-3 7.1-5.6 8.5-1.5.8-2.3.6-4-1.2-2.5-2.7-2.6-3.7-.2-3.4.9.2 1.7.8 1.7 1.4 0 3 1.6 1.9 3.9-2.7 2.8-5.5 4.6-6.6 4.2-2.6zm136.9.9c12.3 3.2 19.6 3.4 24.9.5 3.9-2 3.9-2 5.9-.1 2 2.1 2.7 9.6.9 11.4-1.2 1.2-9.3 1.7-11.9.7-2.7-1-3-2.8-.5-3.5 3.8-1.2 10.4-4.5 9.9-5-.3-.4-2.2-.1-4.3.6-5.1 1.7-9.6 1.5-19.3-1-4.5-1.2-9.1-2-10-1.7-1 .2-2.3-.4-3-1.4-.6-1.1-1.9-1.9-2.9-1.9-.9 0-2.4-.5-3.2-1.1-2-1.4.4-.9 13.5 2.5zm-12 2.6c4.5 3.1 8.3 7 6.8 7-.5 0-1.8-.9-2.9-2.1-1-1.2-4-3.2-6.6-4.5-2.6-1.3-5-2.9-5.4-3.5-1.1-1.8 3.6 0 8.1 3.1zm-85.5-2.4c0 1.4-3.4 6.2-5.1 7.2-2.5 1.6-2.6-.4-.2-3.8 2.3-3.4 5.3-5.3 5.3-3.4zm-72.3 4.2c-2.2 2.4-2.1 3.4 0 3 2.1-.4 2.7 2.1 1 4.2-1.9 2.4-7.8 7-8.8 7-.6 0-.6-.7 0-1.8s1.3-4.1 1.7-6.8c.7-5.6 1.7-7.1 4.7-7.6s3.3-.1 1.4 2zm171.2 1.4c5.4 2.9 13.2 9.3 15.4 12.9l1.8 2.8-2.7.7c-3.5.9-7.8-1.4-8.2-4.3-.2-1.1-2.8-4.8-5.8-8.2-3.1-3.4-5.3-6.1-5.1-6.1.3 0 2.3 1 4.6 2.2zM255 115c-2.6 2-6.9 3.4-7.7 2.6-1.2-1.2 4-4.6 7-4.6h3.2l-2.5 2zm243.7 6.4c1.1 1.1-1 2.6-3.7 2.6-5.5 0-8.3-2.4-3.7-3.3 2.4-.4 6.7-.1 7.4.7zm-216.9 4c4.4 2.8 5.2 4.7 4 9.3-1 3.8-3.2 3.6-7.4-.9l-2.9-3 2.5.6c2.3.6 2.2.4-1-2.3-1.9-1.7-5-3.4-7-3.8l-3.5-.6 3-1.4c3.8-1.6 7.4-1 12.3 2.1zm150 5.5c1.3 1.4 3.2 4 4.3 5.8 1.1 1.8 4.2 4.8 6.9 6.8 5.5 4 11 10 11 11.8-.1 1.5-28-26.8-28-28.4 0-1.4 2.3.2 5.8 4zm57.6-.8c-.8 1.3-2.4.1-2.4-1.8 0-1.3.3-1.3 1.5-.3.8.7 1.2 1.6.9 2.1zm8.6-1.2c1.2 2.4 1.3 6.1.2 6.1-1 0-3.2-4.5-3.2-6.5 0-2.1 1.7-1.8 3 .4zm-4 3.5c0 .1-.5 1.7-1.1 3.5-1.3 3.6-3.3 4-8.2 1.5-4.3-2.2-4.4-2.4-2.7-3.4 2-1.3 2.6-1.2 4.4.5 1.2 1.2 2 1.4 3.6.5 1.1-.6 2-1.5 2-2 0-.6.5-1 1-1 .6 0 1 .2 1 .4zm.9 8.8c-1.8 3.2-1.2 7.2 1.6 12.9 1.4 2.7 2.1 4.9 1.5 4.9-1.4 0-7.1-8.1-6.4-9.2.3-.5-.2-1.8-1.2-2.9-1.6-1.8-1.6-1.9 0-1.9.9 0 1.5-.4 1.2-.8-.6-1.1 2.2-5.2 3.5-5.2.6 0 .5.9-.2 2.2zm-236.9.5c.9 1-.6 5.3-1.8 5.3-.5 0-2.6-1.1-4.6-2.5-4.6-3.1-6.6-3.1-12.7 0-2.7 1.3-4.9 2.2-4.9 1.9 0-.8 3.3-4 5.5-5.3 2.2-1.3 17.2-.9 18.5.6zm-61.7 1c-.7.2-2.1.2-3 0-1-.3-.4-.5 1.2-.5 1.7 0 2.4.2 1.8.5zm302.7 2.2c0 1.2-2 2.5-2.7 1.8-.7-.7.6-2.7 1.8-2.7.5 0 .9.4.9.9zm-267 1.3c0 .6-2 3.1-4.5 5.5-4.9 4.7-5.4 5.5-2.7 4.7.9-.3 0 1.1-2.1 3.1l-3.8 3.6 3.6-.7c1.9-.3 3.5-.4 3.5-.1 0 .2-1.2 2.6-2.6 5.1-4.1 7.4-8.3 11.1-15.2 13.6-6.6 2.4-8.2 3.7-5.9 4.6.8.3 4.8-1.1 8.8-3 11.6-5.6 12.8-4.8 4.7 3.3-4.2 4-6.7 5.6-11.7 7.1-3.5 1.1-6.6 1.8-6.8 1.6-.6-.6 5.1-3.7 9.2-5.1 1.6-.5 3.1-1.8 3.3-2.7.3-1.6.1-1.6-3.1-.3-1.9.8-3.7 1.2-4 .8-.4-.3-2.2.4-4.2 1.6l-3.6 2.1 1.2-2.3c.6-1.2 4.1-5 7.8-8.4 6.1-5.8 7.4-8.3 2.4-4.8-4.9 3.4-3.3-2 3.5-11.5 1.6-2.3 1.6-2.4 0-1.7-3.2 1.2-2-2.1 2.5-7 5.9-6.4 19.7-12.8 19.7-9.1zm-23.9 8.6c-1.6 4.6-5.8 11.2-7.1 11.2-1.7 0-1.1-6.9 1-11 3.7-7.2 8.6-7.4 6.1-.2zm285.8 16.6c2.1 8.6 7.6 17.6 10.8 17.6.9 0 1.3 1.5 1.4 4.7.1 6.9.7 10.2 2.9 15.3 2.2 5.5 4.7 18.6 5.4 29.5.4 6.1.3 7.4-.5 5.5-1.6-3.9-3.7-13.8-4.3-20.9-.7-6.9-2.4-11.6-2.7-7.1-1 15.3 4.8 36.2 9.3 33.4 1.4-.9.8 1-1.2 3.6-2.2 2.9-2.2 2.9-4.3-3-.8-2.5-2.4-7-3.5-10s-2.3-9.6-2.7-14.5c-1.4-19.6-2.5-23.9-11.7-43.7-3.2-6.9-5.8-13.7-5.8-15l.1-2.3 1.5 2.5 1.5 2.5-.6-3.3c-1.6-9.9-1.6-10 .9-4.7 1.2 2.7 2.8 7.2 3.5 9.9zM412 160.9c-2 1.6-3.7 2.4-3.9 1.8-.5-1.3 3.6-4.7 5.7-4.7 1.1 0 .4 1-1.8 2.9zm86 3.3c2.2 5.1 6.4 20.7 5.7 21.4-.3.3-1.1-1.2-1.7-3.3-.7-2.1-1.8-4.5-2.5-5.3-1.2-1.4-5.5-14-5.5-16.1 0-2.4 2.3-.4 4 3.3zM155 163c-2.4 1.5-3.7 1.1-1.6-.5 1.1-.8 2.2-1.2 2.5-.9.3.3-.1.9-.9 1.4zm21.9 3.4c-4.7 4.4-6.9 5.6-12.5 7.2-5.7 1.5-7.7 2.7-13 7.6-3.4 3.2-6.5 5.5-6.8 5-.2-.4.6-2.7 2-5.1 2.9-5.2 3-6 .4-3.6-4.3 3.9-1.3-2.1 3.9-7.9 2.8-3.1 11.4-7.6 14.6-7.6 1.4 0 .7.8-2.2 2.6-5.3 3.1-5.6 5-.5 2.8 8.2-3.5 15.8-6 18.7-6.2.6-.1-1.5 2.3-4.6 5.2zm20.7-2.7c.4 1.6 1.5 4.2 2.5 5.9 1.8 2.9 1.8 3.2 0 6.4-2.3 4.3-3.7 4.8-3.8 1.3 0-1.6-.3-5.8-.7-9.6-.5-4.4-.4-6.7.3-6.7.6 0 1.4 1.2 1.7 2.7zm-11.1 6.5c-.9 2.9-3.2 8-5 11.3-1.9 3.3-3.7 8-4.1 10.5l-.6 4.5 4.7-7.5c2.6-4.1 5.6-8.5 6.7-9.6 1.7-1.9 1.8-2.5.6-4.3-1-1.6-1-2.3 0-3.3 1.8-1.8 3.6.5 3.6 4.7 0 2.4-1 4.8-3.2 7.7-6 8-7.6 12.5-7.5 21.3.1 4.4.7 9.3 1.3 11l1.1 3-2.9-3.5c-3-3.5-5.2-3.7-3.4-.3.6 1 1.3 4 1.6 6.8l.6 5-1.9-5.5c-2.2-6-7.7-12-11.1-12-1.6 0-.7 1.3 4.1 6 3.4 3.3 5.8 6.4 5.5 6.8-.4.4-1.7-.4-2.8-1.8l-1.9-2.4.3 5.9c.3 5.6.2 5.9-2.7 7.6-1.6.9-5 1.9-7.5 2.2l-4.4.5 2.7-2c2.1-1.5 2.7-2.8 2.7-5.8 0-2.1-.4-5-1-6.4-.7-2-.6-2.6.5-2.6 2 0 5.5 4.9 5.5 7.6 0 2.3 1.9 3.5 2.1 1.4.1-.6.2-1.6.3-2.3.4-2.1-2.8-6.8-5.9-8.7-1.6-1-6.1-3.1-9.8-4.5-7.6-3.1-9.7-5.4-10.3-11.4-.5-5.1 1-8.9 3.8-10 1.3-.5 4.4-2.9 6.9-5.3 2.8-2.6 7.1-5.2 10.8-6.7 3.4-1.3 8.2-3.8 10.7-5.7 2.4-1.9 4.6-3.4 4.9-3.4.2 0-.2 1.9-1.1 4.2-.8 2.2-1.2 4.3-1 4.5.6.6 5.6-6.1 5.6-7.5 0-2 2-6.5 2.7-5.9.3.4-.2 3-1.2 5.9zm276.2 2.1c.3 2 .1 3.7-.4 3.7-.8 0-2.2-3.2-3.8-9l-.7-2.5 2.1 2.1c1.2 1.1 2.4 3.7 2.8 5.7zm-33 1.3c11.8 7.5 19.8 18.9 20.8 29.6.6 5.6-.5 11.4-2 11.1-.5-.1-1.8-3.5-2.7-7.5-1.8-7-7.3-19.6-10-22.8-.7-.9-2.7-2.6-4.5-3.8-1.7-1.2-3.5-3.1-3.8-4.2-.9-2.9-7.1-4.3-10.9-2.5-4.6 2.3-4.4.4.4-2.8 3.1-2.2 5.7-1.6 12.7 2.9zm-4.7 6.2c0 1.2-6.8 4.8-7.5 4-1.1-1 3.3-4.8 5.5-4.8 1.1 0 2 .4 2 .8zm70.9 14.6c1.1 3.4 2.5 8.8 3.2 12.1 1.5 7.4 1.8 26 .4 27.4-.7.7-1-2.6-1.1-9.7-.1-11.7-3.2-25.7-7.9-36.1-3.2-6.8-3.1-7.4.5-3.2 1.6 1.9 3.8 6.2 4.9 9.5zm-64.9-9.6c0 .5-1.2 1.3-2.7 1.9l-2.8 1 3.7.7c3.5.8 9.6 5.1 8.6 6.2-.3.2-1.8-.2-3.3-1-1.9-1-4.5-1.3-8-1-5.9.6-7.2-.6-5.1-4.7.8-1.7 2.3-2.6 5.1-3 2.2-.3 4.1-.7 4.3-.8.1 0 .2.3.2.7zm-290.9 1.4c.2 1.8.2 1.8-.4 6.8-.6 5-1.1 6.7-3.7 12.6-2.6 5.7-2.9 10.3-1.2 14.7 1.3 3.3 1.2 4-.1 6.1-1.6 2.4-7.7 7.3-7.7 6.1 0-.3 1-1.9 2.1-3.5 1.8-2.4 2-3.6 1.4-6.7-1.2-5.9-1.1-17.2.3-23.5 1.8-7.7 8.9-17.3 9.3-12.6zm349.8 7.1c1.1 2.3 2.3 5.6 2.6 7.2l.7 3-1.9-3c-1.9-2.9-4.3-8.9-4.3-10.6 0-1.9 1-.7 2.9 3.4zm-273.9 0c0 2-12.7 12.7-15 12.7-.8 0-2.8 1.1-4.4 2.5-3.6 3.1-4.3 3.2-2.4.2.8-1.2 3.3-3.2 5.4-4.4 3.1-1.8 3.5-2.3 2.1-2.9-1-.3-2.8.1-4.2 1-1.4.9-2.5 1.4-2.5 1.2 0-1.1 4.5-4.6 5.9-4.6.9 0 4.1-1.4 7.1-3 4.9-2.6 8-3.6 8-2.7zm-21.8 2.5c.6 2.2-1.5 6.6-2.5 5.6-.9-.9-.9-5.9 0-6.7 1.1-1.2 2.1-.8 2.5 1.1zm243.5 3.9c3.3 1.5 7.3 7.7 5.9 9-.3.3-2.2-1.3-4.4-3.6-4.6-4.8-9.2-5.5-13.6-2-2.7 2.1-4.4 2.1-3.1-.1.8-1.4 8.3-4.9 10.3-5 .8 0 3 .8 4.9 1.7zm40 6c7.8 6.3 10.8 13.7 11.8 29.3.5 7.5.4 8.1-1.1 6.9-1.4-1.1-1.5-.9-1.2 1.6.4 3.6 3.7 4.8 4.5 1.6.9-3.6 2-2.3 3.7 4.6 1.9 7.5 5.1 13.2 10.4 18 5 4.8 2.6 4-4-1.2-3.2-2.5-5.8-4.1-5.8-3.6 0 .5 2.8 3.7 6.2 7 3.4 3.3 6 6.2 5.7 6.5-1.3 1.3-8.4-2.2-12-5.8-4.4-4.4-6.6-7.9-7.3-12.1-.6-3.1-1.3-4.1-2.2-3.2-.4.3-.2 2.4.4 4.7 1.2 4.7-.2 5.4-3.5 1.7-3-3.2-5-8.6-5.7-15.2-.3-3.5-1.6-7.5-3.2-10.2-3.1-5.3-4.6-10.1-3.4-10.8 1.1-.7 7 6.1 8.6 10.1.8 1.9 1.4 4.4 1.4 5.8 0 3.1.9 5.6 2.1 5.6 3.1 0-.8-12.3-6.7-21.1-5-7.5-6.7-11.9-4.6-11.9.5 0 3.5 2.2 6.6 5 3.1 2.7 6.1 5 6.7 5 2.7 0-1-6.5-9.3-16.1-7-8.1-6.4-8.9 1.9-2.2zm-40.1.8c2.6 1.7 3.2 4.5 1 4.5-2.8 0-4.6-1.2-4.6-3.2 0-1.7-.5-1.9-3.2-1.3-3 .5-3.2.5-1.5-.9 2.1-1.7 4.9-1.4 8.3.9zm18.4-.4c.6 1.1 1.4 6 1.7 11 .6 9 0 10.6-2.7 7.4-1.8-2.1-2.1-1.4-1.1 2.3.5 1.7 1.2 5.9 1.6 9.4.4 3.5 1.3 8.1 2.1 10.3.7 2.2 1.4 4.8 1.4 5.8 0 2.6-2.8 3.2-5 1.2-2.7-2.4-3.9-1-1.4 1.5 1 1 3.6 2.1 5.7 2.3 2.1.2 4 .6 4.2.9.2.2 1.8 4.4 3.5 9.2 3.4 9.4 6.3 14.8 10 18.1 1.2 1.1 2.6 3 3.1 4.2.7 1.9 1.4 2.2 3.8 1.7 7.8-1.6 10.1 1.7 10.5 15.3.2 4.8.6 9.6 1.1 10.5 1.1 2.7-3.8 2.3-6.9-.5-2.9-2.6-6.6-9.3-6.6-12 0-4.2-3.1-8.8-9.3-13.6-6.9-5.5-8.7-8.6-8.7-15.4 0-4.8-1.9-11.7-3.3-11.7-.5 0-.7 1.9-.5 4.5.3 2.4.2 4.2-.3 3.9-.5-.3-.9-1.1-.9-1.8s-1.8-5-4.1-9.5c-2.2-4.5-3.9-9.3-3.7-10.5.2-1.6-.6-3.1-2.2-4.4-2.3-1.9-2.5-2.6-2.5-11 0-8.7.1-9.2 3.4-13.9 2.9-3.9 3.6-5.9 3.9-11.1.5-6.5 1.4-7.6 3.2-4.1zm-247.5 5.3c-.4 5.1-2.3 9.2-7.5 16.2-2.1 2.8-4.5 6.7-5.3 8.6-1.8 4.2-6.8 8.3-13.5 10.8-6.6 2.5-8.7 1-2.5-1.8 2.7-1.1 5.9-2.4 7.3-2.8 2.8-.7 7.2-4.3 6.5-5.4-.2-.4-2.8.5-5.8 1.9-2.9 1.4-7.3 3.4-9.8 4.3-7.9 3.2-11.2 7.1-12.3 14.7-.3 2.4-1.3 5.7-2.1 7.4-1.7 3.5-2 6.1-.5 5.2.6-.4 2.2-2.8 3.5-5.5 2.8-5.6 8.8-12 11.2-12 1.4 0 1.4.2-.1 2.2-4.2 5.8-5.6 8.5-5.6 11 0 1.5-.5 3-1.2 3.4-.8.5-.9.1-.4-1.2.4-1.1-.8-.4-2.7 1.8-1.9 2-4.9 4.4-6.8 5.4-4.5 2.3-13.1 2.4-15.4 0-3.4-3.3-11.2.1-14.6 6.3-2.6 4.9-3.3 5-2.6.7.4-2.7 1.8-5.2 4.4-7.8l3.8-3.9-2.9.7c-4.7 1.1-2.7-1.6 4-5.6 4.9-2.9 5.5-3.6 3.6-3.8-1.3-.2-3.4.4-4.8 1.2-1.9 1.3-2.4 1.4-2.4.3 0-.8 2.4-2.6 5.3-4.2 7.5-4 11.5-7.2 13.3-10.6.8-1.7 1.8-2.9 2.1-2.6 1 1.1-1 6.9-3.4 9.8-2.8 3.2-2.6 4.4.5 3.5 2-.7 4.3-5.1 6.3-12.4.7-2.3 1.8-4.7 2.4-5.2.7-.5 5.6-1.9 11.1-3 17.7-3.6 26-9.9 28.4-21.4.8-4.1 1.9-6.2 4.1-8.1 1.7-1.4 3.5-2.5 3.9-2.5.5 0 .8 2 .5 4.4zm-61 .6c2.5 2.6 2.7 3.3 1.7 5.5-.7 1.4-1.2 3.6-1.2 4.9 0 5.7-14.8 21.9-19.3 21.1-2.9-.6-5.7-4.1-5.7-7.2 0-2.2.3-2.4 2.3-1.9 4.9 1.5 9.7 1.9 9.7.7 0-.6-.5-1.1-1.1-1.1-.6 0 .1-2.1 1.6-4.6 1.7-2.9 2.8-6.5 3.1-10.2.8-9.2 1.2-10.2 3.7-10.2 1.3 0 3.6 1.3 5.2 3zm290.2 2.5c3.3 1.4 3.7 1.4 4.9-.2 2.3-3.3 2.3-.8 0 4.1l-2.3 4.8-1.3-3.1c-.7-1.7-1.5-3.1-1.9-3.1-.3 0-1.7-.9-3.1-2-3-2.3-1.3-2.6 3.7-.5zm-2.3 4.6c2.9 2.3 3.6 5.5 1 4.5-.9-.3-1.9-.6-2.3-.6-.5 0-2.1-1-3.6-2.2-2.6-2-2.6-2.2-.9-2.9 2.8-1.1 2.9-1.1 5.8 1.2zm-276.8 3.1c1.1 1.8.5 7.1-.8 7.9-3 1.9-5.4-2.4-3.8-6.7 1-2.6 3.4-3.2 4.6-1.2zm250.1 1.4c5.5 4.1 5.6 10.6.1 14.7-3.5 2.6-5.7 1.9-13.8-4.1-8-6-16.2-9.2-25.8-9.9-4-.3-7-.8-6.8-1 1-1 15.2-1.9 28.8-1.9 13.3.1 14.9.3 17.5 2.2zm87.8 1.6c-.4 4.9-1.5 11.1-2 11.7-.7.6-.6-11 .1-13.6.9-3.3 2.2-1.9 1.9 1.9zm-278.8-.5c-.9.9-2 1.3-2.4.9-.4-.4-.1-1.1.7-1.6 2.5-1.6 3.5-1.1 1.7.7zm-22.7.2c0 1.1-5.8 6.1-7.1 6.1-1.6 0-.9-2 1.6-4.5 2.4-2.5 5.5-3.3 5.5-1.6zm16.8.8c-.4 2.2-2.2 2-2.6-.1-.2-1 .3-1.6 1.3-1.6s1.5.7 1.3 1.7zm9.6.4c-1 1.1-2.8 2.5-3.9 3-1.1.6-.4-.4 1.5-2.1 4-3.5 5.2-3.9 2.4-.9zm211 0c1.4 1.1 2.6 2.6 2.6 3.2 0 .7 1.5 4.2 3.3 7.9 2.9 6 3.1 6.8 1.5 6.8-3.7 0-3.1 8.6 1.2 17 3.4 6.6 6 16.4 6.7 24.7.3 4.6.3 8.3 0 8.3-1.6 0-3.9-6.8-4.7-13.8-.5-4.9-2-10.2-3.9-14.5-4.2-9.4-5-12.9-5.2-23.1-.2-11.4-.8-13.6-4.9-16.4-2.7-1.8-2.9-2.2-1.3-2.2 1.1 0 3.2.9 4.7 2.1zm-48.6 5.9c3.4 1.6 6.2 3.4 6.2 4 0 .6-1.3.4-3.2-.6-11.8-6.1-29.8-5.6-36.5 1.1-3.6 3.6-4.1 6.1-1.8 10.5 1.6 3.1 3.1 3.8 3.7 1.9.2-.6 2.6 0 6 1.6 7.2 3.3 19.5 4.4 25.3 2.2 2.2-.8 4.9-1.8 6-2.1l2-.8-2 1.7c-4.6 3.8-14 7.8-18.5 7.8-4.9 0-11.3-2.7-14.4-6.2-1.2-1.3-2.6-1.9-3.7-1.6-2.5.8-7.9-5-7.9-8.5 0-3.4 4.3-8.8 9.5-12 7.3-4.5 18.3-4.1 29.3 1zm-164.2.5c-1.1.8-2.5 1.6-3 1.6-8.5.9-9.4-.2-1.6-1.9 6.3-1.4 6.8-1.3 4.6.3zm241.6 4.1c-.6 3.5-1.2 2.9-1.2-1.4 0-2.3.3-3.2.9-2.4.4.7.6 2.4.3 3.8zM150 234.4c0 1.8-6.3 8.6-7.9 8.6-1.6 0-.1-2.8 3.8-6.8 3.2-3.5 4.1-3.9 4.1-1.8zm320.4 2.8c1.3 2.4 3.2 7 4.1 10.3 3.1 10.9 6.1 16.1 11.8 20.2 2.9 2.1 6.3 4.9 7.7 6.3 1.4 1.4 5 3.8 8.2 5.3 10.6 5.2 12.2 12.9 4.7 22.5-2.7 3.5-3.3 7.9-1.5 10.7 1.9 3 6.3 3.6 5.1.7-1.7-3.9-1.7-6.9.1-7.6 2.8-1.1 3.8 1 4.5 8.7.7 9-.4 10.5-8.2 11.3l-5.4.6 5.3-2.6c5.3-2.6 6.1-4.6 1.8-4.6-1.3 0-3.4-.8-4.7-1.8-1.8-1.5-2.2-2.8-2.2-6.9.1-2.8.4-6 .8-7.2 1.2-3.8-.4-2.2-2.5 2.5-2.2 5.2-2.5 7.6-1 10.5.6 1 .7 1.9.2 1.9-1.8 0-3.2-5.4-3.2-12.8 0-4.2-.4-9.4-.9-11.5-1.1-4.8.6-5.8 4.8-2.8 3.5 2.5 4.2 2.6 3.4.6-.9-2.5-5.4-4.3-11.3-4.6-7.3-.3-10.1-1.4-14-5.2-7.1-6.9-11-16.7-11-27.5 0-4.5-.3-5.5-2-5.9-2.3-.6-2.5-1.8-.5-5.3l1.3-2.5.7 2.7c.4 1.5 1.3 3.2 2.1 3.9 1.9 1.5 1.8-.9-.1-8.1-1.7-6.3-1.6-6-1-6 .2 0 1.5 1.9 2.9 4.2zm-84.9 1.9c2.2.8 4 1.8 4 2.4 0 .5-1.8 1.9-4 3-6 3-17.4 2.7-23.9-.5-9.7-4.8-6.2-7.2 9.4-6.6 5.8.2 12.3 1 14.5 1.7zm-228.4 1.2c-1.3 1.3-2.6.3-1.6-1.2.3-.6 1.1-.8 1.7-.5.6.4.6 1-.1 1.7zm343.3 7.3c1.9 7.5 2 11.3.1 6.1-1.8-4.8-3.5-14.1-2.5-13 .5.4 1.6 3.6 2.4 6.9zm9 9.3c.2 1.8.1 4.5-.3 5.9-.6 2.2-.9 1.7-2.4-3.9-4.1-15.3-4.3-18.8-.7-11.3 1.7 3.3 3.2 7.5 3.4 9.3zM151 245.4c0 2.6-4.4 6.9-9.4 9.2-2.8 1.3-5.7 2.4-6.3 2.4-3.6 0 .8-5.1 8.6-10.1 4.9-3.2 7.1-3.6 7.1-1.5zm209.5 1.2c3.2 1.3 8.4 2.2 14.8 2.6 2 .1 3.7.5 3.7.9 0 1.3-14.5-.3-19.9-2.2-6.2-2.1-9.5-4.5-4.6-3.3 1.7.4 4.4 1.3 6 2zm-162 .4c-.5 1.4-.2 2 .9 2 1 0 1.6.9 1.6 2.1 0 4.3-3.5 9.2-12.3 17.2-14.1 12.7-17.1 15.7-16.4 16.3.3.3 2.5-1.2 5-3.5 4.7-4.4 15.3-11.1 17.4-11.1 2.1 0 1.5 2.1-.7 2.7-1.1.3-2.1.9-2.1 1.4-.1.5-.2 1.4-.3 2 0 .6-4.4 4.7-9.6 9-6.4 5.3-10.6 8.1-13 8.5-9.8 1.8-17.4 8-21.8 17.6-2.9 6.5-6.1 9.8-9.4 9.8-2.4 0-2.3-.8.4-3 2-1.5 2.3-3.1 2.9-11.9 1-15 4.9-20.7 15.4-22.6 8.3-1.6 14.6-6.5 19.8-15.5 2.8-4.9 9.7-12.1 9.7-10.1s-2 5.2-6.4 10.6c-7.3 8.9-7.4 9-5.1 7.7 7.3-3.9 12.2-10.5 16-21.4.9-2.6 2.5-5.8 3.6-7.2 2.5-3.2 5.3-3.5 4.4-.6zm-65.9 1.2c-.4 1.3-1.4 6.1-2.2 10.8-1.6 8.7-2.5 10.7-4.2 9.6-1.5-.9-3.3-9.5-3.1-14.9.3-5.8 1.9-7.7 6.6-7.7 3.2 0 3.5.2 2.9 2.2zm320.7 16.2c3.3 6 2.6 7.3-1.4 2.6-4-4.7-7.8-12.7-8.5-17.6-.6-4.2-.6-4.3 9.9 15zm-15.2 4.8c1.1 2.1 1.6 3.8 1.1 3.8-.9 0-6.2-9.2-6.2-10.6.1-1.3 2.8 2.5 5.1 6.8zm-238.5-3.4c-.8.9-1.9 1.3-2.2.9-1-.9 1.6-3.8 2.8-3.1.6.4.4 1.3-.6 2.2zm315.2 4.4-1.3 2.3-.3-2.3c-.4-2.8 2.1-6.6 2.6-3.9.2.9-.3 2.6-1 3.9zm-61.5 2.5c1 1.2 2.2 4.8 2.8 8 .6 3.2 1.7 7 2.5 8.5 1.8 3.5 1.8 3.8-.5 3.8-2.2 0-2.7-1.1-3.6-9.4-.8-7.2-1.6-9.2-4.9-13-1.4-1.6-2.6-3.1-2.6-3.3 0-.8 4.7 3.2 6.3 5.4zm-22.3 5.5c0 1.8-1.7.6-3.4-2.5l-1.9-3.2 2.6 2.4c1.5 1.4 2.7 2.8 2.7 3.3zm-211-2.7c0 1.8-6.2 11.9-7.9 12.9-1.9 1.2-1.2-3 .8-4.8 1-.9 2.6-3.4 3.6-5.6 1.8-4.1 3.5-5.2 3.5-2.5zm-78 2.4c0 .5-1.3 1.9-3 3.1-2.1 1.5-3.2 3.3-3.6 6-.4 2.2-1.2 4.7-1.9 5.6-1 1.4-.9 2.2.1 4.2 1 1.9 1 2.9.1 4.3-1.9 3.1-3.9 0-4-6.2 0-4.3.5-6.4 2.9-10.4 3.3-5.4 9.4-9.7 9.4-6.6zm372.8-.2c-.1.5.2 2.4.6 4.3.4 1.9.3 5.3-.2 7.5l-1 4-.1-4c-.1-2.2-.8-5.7-1.5-7.7-.7-2.1-1.1-4-.8-4.3.8-.8 3.2-.6 3 .2zm-314.3 3.2c-.3.5-1.9 1.2-3.6 1.6-2.2.5-2.8 1.1-2.4 2.4.3 1-.2 2.4-1.2 3.3-2.7 2.4-10.1 6-11.5 5.6-2-.7 6-8.5 11.5-11.2 5.2-2.6 8.3-3.3 7.2-1.7zm228.3 2.7c-1 1-2.8-.6-2.8-2.4 0-1.5.1-1.5 1.7.1.9.9 1.4 1.9 1.1 2.3zm23 4.2c.2 4.4.1 4.6-1.3 2.8-1.5-2-2.1-7.7-.8-8.9 1.1-1.2 1.9 1.1 2.1 6.1zm15.3 3.7c2 .7 2.7 2.5.9 2.5-2.6 0-7.1-5.7-7.6-9.5l-.5-4 2.6 5.2c1.4 2.9 3.5 5.5 4.6 5.8zm-324.3-4.8c-.2 1-1.1 1.9-2.1 2.1-1.6.3-1.7.1-.7-1.7 1.3-2.5 3.3-2.8 2.8-.4zm57.8 3.5c-3.6 6.1-6.7 9.4-9.6 10.3-1.4.4-5.2 2.2-8.5 4-4.6 2.6-7.6 3.4-13 3.8-7.9.6-12 1.9-15.2 4.9-2.8 2.6-3.8 2-1.7-1 1.9-2.8 5.9-4.8 10.4-5.5 4.6-.6 8-2 14.9-6.1 3.2-1.8 7.4-3.9 9.5-4.6 2-.6 6.2-3.4 9.3-6.1 3.1-2.7 5.8-4.7 6-4.5.3.3-.7 2.4-2.1 4.8zm225.8-3.7c.3.9 0 1.5-.9 1.5-.8 0-1.5-.7-1.5-1.5s.4-1.5.9-1.5 1.1.7 1.5 1.5zm-205.7 9c3.3 2.9 5.6 6.1 6.8 9.2 1 2.6 2.2 5.4 2.8 6.1.6.7.9 3.3.9 5.7-.2 4.7.9 5.8 2.7 2.7.8-1.2.9-.4.4 3-.5 4-.3 4.8 1.1 4.8.9 0 1.6.7 1.6 1.5 0 2.5-1.8 1.7-5.5-2.3-4.2-4.4-5.2-7.5-3.5-10.7 1.1-2 .9-3.1-1.3-7.7-1.4-2.9-3.6-6.6-5-8.3l-2.5-3 .3 2.7c.5 4.5 1.5 6.7 3.6 7.3 1 .4 1.9 1.1 1.9 1.6 0 1.3-3.4-.6-8.3-4.4-2.2-1.7-4.5-2.7-5.6-2.4-1.5.3-1.7 0-1.4-1.7 1.1-4.9 1.2-5 3.9-2.5l2.6 2.4-.7-3c-.4-1.7-.8-3.6-1.1-4.3-.7-2.3 1.3-1.2 6.3 3.3zm204.5.7c.2 1.5-.1 2.8-.7 2.9-1.6.3-3.9-4.6-3.1-6.6.6-1.6.9-1.7 2.1-.4.7.8 1.5 2.6 1.7 4.1zm-249.6 1.4c-2.6 1.9-12.7 5.6-13.4 4.9-.7-.7-.7-.7 7.3-4.2 7-3 9.7-3.4 6.1-.7zm269.4-.1c-1 1.2-1 1.5.3 1.5.8 0 2-.7 2.7-1.5 1.9-2.3 7.8-1.8 14 1.1 3.6 1.7 5.6 2.1 5.8 1.4.3-.7 1.6-.1 3.2 1.5 4.1 3.9 5.5 2.7 2.4-1.9l-2.7-3.9 2.6 1.9c2.7 1.9 5.7 7.1 5.7 9.6 0 .8 1.6 4 3.5 7.3 2 3.2 3.4 5.9 3.2 6.1-.2.2-2.7-2.8-5.6-6.7-6.7-9-9.9-10.5-23.9-11.1-5.8-.3-10.8-1-11.4-1.6-.7-.7-2.4-1.2-3.8-1.2-4.5 0-4.3-1.4.2-2.6 2.4-.6 4.5-1.2 4.7-1.3.2 0-.2.6-.9 1.4zm70 1.9c0 1.4-.5 2.8-1 3.1-1.3.8-2.4-2-1.6-4 .9-2.4 2.6-1.7 2.6.9zM360 305c0 .5 3.7 3.3 8.1 6.2 7.1 4.6 7.9 5.3 5.6 5.6-1.4.2-4.8-.8-7.6-2.2-2.8-1.4-5.7-2.6-6.6-2.6-2 0-2.9-2.3-2.1-5.5.6-2.4 2.6-3.6 2.6-1.5zm96.5.5c5 0 9.7.5 10.6 1 .9.6 6.3 5.4 12 10.8 11.1 10.5 13.3 12.1 19 13.1 3.5.6 7.9 3.8 7.9 5.6 0 1.4-2.2 1.2-6.6-.6-2.7-1.1-5-1.4-8.3-.8-5.9 1-5.9 1-12.8-3.1-3.1-2-7.6-4-9.8-4.6-12.7-3.2-17.6-5.1-16.4-6.4.3-.3 1.9-.1 3.5.5 1.6.5 6.1 1.1 10.1 1.4 5 .2 8.3 1 10.9 2.5 3.7 2.2 5.2 2.2 3.9.1-1.2-1.9-6.7-3.8-14.1-5-10.6-1.6-12.5-2.1-11.8-3.1.3-.5 4.3-.9 9-.9 4.9 0 8.4-.4 8.4-1s-1-1-2.2-1.1c-2.9-.1-9.1-.6-10-.8-.5 0-.8-.6-.8-1.2 0-.7 1.9-1 5.5-.7 5.4.4 7.2-.3 3.8-1.7-1-.3-6.3-.9-11.8-1.1-12.5-.6-14.5-1-14.5-3 0-1.3.6-1.4 2.8-.8 1.5.5 6.8.9 11.7.9zm-319.5.2c-.1 2.7-5.6 6.1-7.2 4.5-1.6-1.6-.2-4 2.4-4.5 3.9-.7 4.8-.7 4.8 0zm59 .3c0 1-15.1 9-17 9-2.7 0 1.5-4.1 7.2-6.9 6.2-3.1 9.8-3.9 9.8-2.1zm223.6 2.5c-.3.8-1.5 1.5-2.7 1.5h-2.2l2.4-2.6c2.3-2.4 3.7-1.9 2.5 1.1zm12.3 2c4.6 5 5.7 8.3 1.3 3.9-1.6-1.6-4.1-3.7-5.5-4.7-2.9-1.9-3.5-3.7-1.3-3.7.7 0 3.2 2 5.5 4.5zM218 308.7c3.5 2 5 4.7 5.3 9.5.2 2.4 1.7 5.5 4.6 9.3 2.3 3.1 4 6.3 3.7 7-.3.8.4 2.1 1.5 2.8 1.7 1.3 1.8 1.6.4 2.7-1.2 1-1.9 1-2.7.2-2.2-2.2-3.4-1.3-3 2.1.7 6-6.3 9.3-7.9 3.6-1.1-4.2.4-5.3 3-2.3 1.6 1.9 2.6 2.3 3.3 1.6.8-.8-.1-2.9-3-7.3-4.3-6.4-5-9.4-3.2-14.6 1.3-3.6.3-6.5-3.9-11.3-4.6-5.2-3.7-6.7 1.9-3.3zm-3 6.6c2.9 4.7.7 6.1-3.1 1.9-3.5-3.9-4.1-7.9-.8-6.2 1.1.6 2.9 2.5 3.9 4.3zm-78.1-.7c-2.2 2.3-5.9 3.3-5.9 1.6 0-1.1 3-3.8 5-4.4 2.8-.9 3.2.4.9 2.8zm273.1-.7c0 1.1-3 1.9-4.8 1.4-.6-.3-1-.9-.6-1.4.7-1.2 5.4-1.2 5.4 0zm15 .1c0 .5-.7.6-1.7.3-1.9-.8-1.5.1 3.4 6.5 4.8 6.3 4.3 8.2-1.8 8.4-1.7.1-3.5-.5-3.9-1.2-1.2-2-.3-2.9 2-2.3 2.5.7 2.5.6-.1-5.1-1.1-2.6-1.8-5.4-1.5-6.2.6-1.6 3.6-1.9 3.6-.4zm-250 1c0 .6-2.8 1-6.2 1-4 0-7.8.7-10.5 2-2.4 1-4.5 1.5-4.8 1.1-.5-.9 2.2-3.5 4.5-4.4 2.7-1 17-.7 17 .3zm126-.4c0 .4-1.8 2.6-4 5s-4 4.9-4 5.5c0 .7-1.5 3-3.3 5.3-1.9 2.3-3.7 4.8-4.1 5.6-.6 1.5-.4-.5.9-8.5l.6-4-2 2.3c-3.1 3.5-4.8 11.4-4.3 18.9.2 1.8.8 2.3 2.8 2.3h2.6l-1.9 3.2c-1 1.7-2.4 3.3-3.2 3.6-.8.3-1.1 0-.8-.5.4-.6-.3-2.1-1.4-3.4-1.7-2-2-3.6-1.9-10.4.3-11.7.2-12.1-1.2-10.7-1.2 1.2-1.7 9.5-1.8 26.4 0 2.1-.4 3.8-1 3.8-1.2 0-2.7-5.7-3.6-13.5-.6-5.7 0-8.2 3.4-14.7.2-.4-1.3-.1-3.3.8-3.6 1.5-3.6 1.5-3.3-.8.2-1.3 1-2.4 1.8-2.4.8-.1 2.3-.2 3.3-.3.9 0 1.7-.8 1.7-1.7 0-1.1-.6-1.4-1.7-1-1.6.5-1.6.4 0-.7 1-.7 4.4-3.1 7.4-5.4 6.6-5.1 9-4.6 3.7.8-4.4 4.5-4 6.1.8 2.8 3.4-2.5 15.7-8.9 17.1-8.9.4 0 .7.3.7.6zm116.9 2c3.6 4.5 2.5 6.2-1.4 2.4-1.9-1.9-3.5-3.8-3.5-4.2 0-1.8 3-.7 4.9 1.8zm-60.4 1.2c5.7 4 6.6 6.3 6.3 16.5-.4 13.7-2 11.8-5.2-6.4-.4-2.2-2.3-5.5-4.7-8.3-3.2-3.6-3.7-4.6-2.2-4.6 1 .1 3.6 1.3 5.8 2.8zm-174.1.3c-.7 1.2-4.4 1.2-4.4 0 0-.5.6-1.1 1.3-1.4 1.7-.6 3.8.3 3.1 1.4zm184.7 2.1c4.3 3.8 5.2 6.5 5.1 16.7 0 14.8 0 14.9-1.6 12.9-.7-1-1.4-4.6-1.5-8-.1-3.8-.8-6.9-1.7-7.9-.8-.8-1.4-3.1-1.4-5.1 0-1.9-1.1-5.5-2.3-8.1-2.5-4.9-1.8-5 3.4-.5zm68.3 7.6c1.7 4.9 1.3 7.3-.4 2.6-1.1-3.1-4.6-9.9-6.4-12.5-.6-.8.3 0 2.1 1.9 1.7 1.9 3.9 5.4 4.7 8zm-83.4-2.4c1.5 4 1.2 8.6-.5 9.3-2.4.9-3-.4-3-6.5 0-3.2-.4-6.8-.9-8.2l-.8-2.5 2.1 2.6c1.1 1.5 2.5 3.9 3.1 5.3zm-221.3-3.6c-1 1-1.7 2.9-1.7 4.1v2.2l3.1-2.2c2.9-2 11.9-5.3 11.9-4.3 0 .2-1.2 2.7-2.6 5.5-1.5 2.7-2.3 5.3-1.9 5.7.3.4 2.4-1.3 4.6-3.8 2.2-2.7 3.9-3.9 3.9-3 0 .9-.6 2.2-1.2 2.9-.9.8-1.2 4.3-1.1 10.9.1 7.9-.1 9.1-.9 6.7-1.3-3.7-3.7-6.5-5.5-6.5-3.7 0-4.1-10.9-.5-12.9.9-.5 1.3-1.3.9-1.7-.4-.5-2.8.3-5.2 1.6-3.5 1.9-4.6 2.1-5.8 1.1-2-1.6-1.4-6.1.9-7.8 2.4-1.7 3.1-.8 1.1 1.5zm79.7-.6c2 3.2 2.4 6.3.7 6.3-2 0-5.5-5.1-4.8-6.9.9-2.2 2.4-2 4.1.6zm103.3 1c4.4 4.3 4.2 5.4-.5 2.4l-3.8-2.4-3.2 2.9c-3.2 2.9-5.6 3.6-6.6 2.1-.8-1.3 3.2-5.2 6.8-6.8 4-1.7 3.5-1.9 7.3 1.8zm79.1 9.7c7.9 8 8.2 8.5 7.6 11.9-.8 4.3-1.1 6.7-1.3 10.8 0 1.6-.8 3.9-1.7 5-1.5 1.8-1.5 1.8-.9-.3 1.7-6.1-.1-22-2.3-19.9-.4.4-.7 3.5-.7 6.8 0 4-.4 6.3-1.2 6.5-.9.3-1.3-1-1.3-4.6 0-2.7-.4-5.3-1-5.6-.5-.3-.7-1.9-.3-3.5.8-4-3.4-10.8-8.5-13.9-3.4-2.1-3.8-2.7-2.9-4.2 1.1-1.7 1.3-1.7 3.7.4 1.4 1.2 6.2 6 10.8 10.6zm-94.7-7.2c-1.8 3.3-2 3.5-2.1 1.4 0-2.3 2.8-6.6 3.7-5.7.3.2-.5 2.1-1.6 4.3zm-138 .2c-4.1 5.1-6.9 11.9-7.6 18.4-1 8.4-1.4 9.5-4.2 12.1-3.9 3.6-2.1 4.4 2.7 1.2 2.2-1.4 4-2.4 4-2.1 0 1.7-3.8 5.9-6.9 7.5l-3.6 1.9 3.6.1c2.2 0 4.3-.8 5.7-2 2.5-2.4 2.4-1.6 2.7-14.5.3-11.7 2-17 7.1-21.5 3.3-2.9 8.6-4.1 9.8-2.2.3.5-.4 2.1-1.5 3.8-6.2 8.9-9.9 19.3-11.4 31.6-1 8.1-7 13.4-16.3 14.5-2.6.3-6.2 1.1-7.9 1.9-1.8.7-3.3 1-3.4.6 0-.4-.2-1.4-.3-2.2-.7-3.1 1.5-6.1 5.9-8.2 5.4-2.6 5.8-3.8 1-3.2-4.9.6-4.4-1 1.8-4.9 3.4-2.2 6-4.8 7.1-7.1 1.5-3.3 1.6-4 .1-9.7l-1.6-6.2 2.9-3.6c3.1-3.9 10.7-10.1 12.4-10.1.5 0-.4 1.7-2.1 3.9zm186.3-1.7c1 4.1.7 4.8-2.4 4.8-3.4 0-3.5-.4-1.7-4.3 1.5-3.3 3.3-3.5 4.1-.5zm-9.8-.3c-.4.5-2.6 2.2-5.1 3.8-6.4 4-6.1 5.7.6 2.9 3.5-1.4 7.9-.7 7.9 1.3 0 1.8-5.8 5.1-11.9 6.6-6.5 1.7-11.7 1.1-14.6-1.9-.8-.8-2.3-1.3-3.3-1.1-.9.2-3.9.8-6.6 1.5-8 1.8-8.1-.4-.2-4.1 6.1-2.9 7.4-3.1 13.7-2.6 6.9.6 8.2 0 5.4-2.3-2.4-2-1.8-2.6 2.4-2.2 2.3.2 5-.3 6.7-1.2 3.2-1.7 5.8-2.1 5-.7zm-150.8 1.3c1 1 1.7 1 3.2 0 1.6-1 2-1 2 0 0 2.7-3.9 7.5-10 12.2l-6.3 5 5.1-7c4.6-6.2 5.4-9.5 1.7-6.4-2.2 1.8-2-.8.2-3.2 1.9-2.1 2.5-2.2 4.1-.6zm19.7 2.9c.9 1.7 1.4 3.3 1.1 3.6-.4.4-3.6-4.9-3.6-6.2 0-1.3 1.1-.2 2.5 2.6zm172.4.6c2 5.1 3.1 11.7 3.1 19.3 0 8.3-1.5 8.6-2.5.5-1.3-11.5-1.7-13.5-2.6-14-1.1-.8-1.2-8.5 0-8.5.5 0 1.4 1.2 2 2.7zm-123.5.5c-.4.7-1.5 2.4-2.5 3.8-2.1 3.2-3.6 8.7-4.3 16.9-.6 6.6-1.1 8-2.3 6.7-1-1-1-13 0-17.9.9-4.1 6-10.7 8.4-10.7.8 0 1.1.5.7 1.2zm205.9 4.9c5.6.2 10.1 1.1 12.4 2.6 1.9 1.3 2.6 1.4 3.3.4.6-1 1.5-.9 4.1.5 2.6 1.3 5.4 1.7 11.2 1.6 5-.1 7.6.2 7.2.8-.3.5-2 1-3.6 1-2.1 0-3.9 1-5.9 3.1l-2.8 3.2-3.5-2.2c-1.9-1.1-4.4-2.1-5.6-2.1-1.2 0-2-.4-1.7-.9 1.4-2.3-3.8-3.9-13.2-4-4.1-.1-5.4-.5-5.9-1.9-.4-.9-1.5-2.8-2.5-4.1-2.9-3.9-2-4.9 1.3-1.4 1.6 1.8 4 3.3 5.2 3.4zm11.2-3.1c.4.6-1.3 1-4.5 1s-4.9-.4-4.5-1c.3-.6 2.4-1 4.5-1s4.2.4 4.5 1zm41.3 3.2c.4 3.1-2.4 9.1-3.8 8.3-1.1-.7-1.3-5.8-.4-9.3.9-3.1 3.8-2.4 4.2 1zm-126.2 8.2c.4 3.5.3 4.8-.4 4.1-.6-.6-1.3-3.9-1.7-7.5-.7-7.9 1.1-4.9 2.1 3.4zm-39.8-5.7c.2.9-.7 1.3-2.7 1.3-3 0-3.9-.9-2.4-2.4 1.1-1 4.6-.3 5.1 1.1zm85.7-.6c.4.6.5 1.2.2 1.5-.7.7-3.7-.7-3.7-1.7 0-1.3 2.7-1.1 3.5.2zm-241.2 3c-3 5.1-11.1 12.7-16.3 15.4-3.2 1.6-5 3.2-5.2 4.7-.6 4.2-2.8 3.2-2.8-1.4.1-4.6 3.8-14.2 3.9-10.1.1 1.2.5 2.4.9 2.7 1.3.8 10.4-4.8 15.7-9.8 2.8-2.5 5.1-4.5 5.3-4.6.2 0-.5 1.4-1.5 3.1zm18 .6c.8 1.6 1.2 3.3 1 4-.2.6.1 1.4.6 1.8 1.6 1 1.3 2.2-1.1 4.6l-2.3 2.2 2.3-.6c1.2-.3 2.2-.4 2.2-.2s-1.3 2.4-3 4.8c-1.6 2.5-3 5.2-3 6 0 3.3-9.3 8.9-12 7.2-1.5-.9-.2-2.5 1.5-1.9 1.7.7 5.5-5 5.5-8.2 0-1.1 1.2-3.1 2.6-4.3 2.4-2.1 2.6-2.7 2.1-9.6-.2-4.1-.2-7.7.1-8 1.1-1.1 2.2-.4 3.5 2.2zm-24.3.2c0 .5-1.6 1.8-3.5 3-4.1 2.4-4.7 1.2-.7-1.8 3-2.2 4.2-2.6 4.2-1.2zm270.9 0c.7.5.9 1.1.4 1.4-.6.4-1.9 0-2.9-.8-1.5-1.1-1.6-1.4-.4-1.5.8 0 2.1.4 2.9.9zm-318.3 3.3c1.7 1.2 3.7 3.1 4.4 4.2 1 1.6.9 2.2-.6 3.4-2.9 2.2-8.4 4.3-9.4 3.7-1.1-.7-1.3-7.7-.4-11.3.8-2.8 1.9-2.8 6 0zm66.4 2.5c0 1.9-4.8 9.3-6.1 9.3-.6 0 .1-2.1 1.6-4.6 1.9-3.2 2.5-5.3 2.1-7.2-.6-2.6-.6-2.6.9-.8.8 1.1 1.5 2.6 1.5 3.3zm48.8 6.3c0 3.7-.1 4.1-.8 2-1.1-3.6-1.1-11.2 0-8.5.5 1.1.8 4 .8 6.5zm59.5-7.3c-.7.2-1.9.2-2.5 0-.7-.3-.2-.5 1.2-.5s1.9.2 1.3.5zm23.7.2c0 .6 2.1 1.3 4.8 1.6 12.1 1.7 14.5 4.2 8.7 9.2-2.6 2.2-5.2 3.4-8.4 3.8-2.5.4-5.7.9-7.1 1.1-1.4.2-8 .4-14.7.5-12 0-12.4-.1-20.4-3.6-8.8-4-11-4.2-5.2-.3 8.3 5.3 14.3 7.1 23.8 7.2 19.6.1 32.3-2 38.3-6.3 2.6-1.8 3.1-1.9 4.2-.6.7.8 1.9 1.5 2.6 1.5.8 0 1.4 1 1.4 2.5 0 1.6-.6 2.5-1.5 2.5-.8 0-1.5-.5-1.5-1 0-.6-.7-1-1.5-1-1.3 0-1.4.4-.5 2 1.3 2.5-.2 2.6-5.4.5-3.8-1.6-3.9-1.5-3.6 2.7.2 3.3-1.5 3.7-3.2.8-3-4.8-3.7-1.2-1.1 5.9 1.7 4.9 1.2 8.7-1 7.8-5.1-2.1-5-2.1-3.6.1 1.6 2.6 8.5 5.7 17.4 7.8 13.6 3.3 18.6 7.3 19.2 15.6l.4 5.3-2.8-5.5c-2.2-4.4-3.7-5.9-7.2-7.6-3.8-1.9-13.1-4.4-22.1-6.1-3.2-.6-10.7-8.1-11.5-11.6-.5-2-.2-3.3 1-4.7 1.7-1.9 1.5-5-.4-5-.5 0-1.3 1-1.6 2.2-1.5 4.7-3.8 8.8-5 8.8-.8 0-1.6 1.3-2 3-.8 3.8-3.6 4.2-2.9.4.3-1.5 1.3-4.3 2.4-6.4 2.2-4.4 3.3-9 2-9-1.1 0-2.1 1.5-4.1 6.4-1.9 4.8-4.3 6.6-6.1 4.8-.9-.9-.7-1.7 1.1-3.6 1.2-1.3 1.8-2.6 1.3-3-.5-.3-2.2 1-3.9 2.8-2.5 2.8-3.5 3.3-6.4 3-6.6-.8-10.4-1.5-13.5-2.6-3.5-1.2-9.4.4-9.4 2.6 0 1.8 2.2 3.6 4.2 3.6 1.1 0 3 1.1 4.3 2.4 1.3 1.3 4.6 2.9 7.3 3.5 9 2.2 16.1 10.6 16.2 19.2 0 2.4.5 3.9 1.5 4.3 1.3.5 1.4 1 .4 2.7-1.4 2.8-2.4 1.4-3.4-5.1-.7-4.7-3.7-9.4-9-14.4-4.3-4.1-7.2-5.9-8.5-5.1-1.8 1.1-1.1 2.3 2.1 3.4 3.1 1.1 4.2 2.1 7.6 6.9 1.5 2.2 4.6 13.2 3.9 14-.2.2-1.3-1.2-2.5-3.1-3.5-5.8-7.6-6.9-28-8.2-4.6-.3-8.7-.8-9.1-1-1.5-.9.2-4.4 4.1-8.9 3.2-3.6 4.8-4.6 8.4-5.2 6.2-.9 5.8-2.8-.4-2.2-2.9.3-6.2 1.4-8.2 2.9-3.8 2.6-3.1 1.3 2.8-5.1 2.3-2.5 3.1-4.1 2.6-5.5-1.1-3.6-1.2-6.6-.2-12.8 1.2-7.5 3.3-11.5 6.7-13 1.5-.6 4-2.2 5.6-3.4 2.7-2.3 3.2-2.3 17.5-1.8 13.5.6 14.8.5 17.6-1.4 3.3-2.1 5.5-2.6 5.5-1.2zm-94.8 4.8c-.5 5.1 3.1 10.4 7.8 11.7 4.4 1.2 10 5.2 10 7.2 0 .8.9 2.7 2 4.2 2.2 3 1.8 6.2-.7 6.2-1 0-1.4-.7-1-2 .7-2.6-4-6.6-9.3-8-2.2-.6-4-1.3-4-1.6 0-.4 1.1-.3 2.5 0 4.6 1.2 2.6-1.2-2.6-3-2.8-1-5.5-2.7-6.1-3.8-1.3-2.5-1.2-10 .2-12.6 1.5-2.8 1.6-2.6 1.2 1.7zm163.3 1.7c.2 2-.1 3.8-.6 4.1-.5.4-.9-1.5-.9-4.1 0-5.4 1-5.4 1.5 0zm38.2.5c1.6 2.1 1.6 3.1-.1 3.1-1.5 0-6.6-5.5-6.6-7.2 0-1.2 4.9 1.8 6.7 4.1zm21.3-2c1.4.8 4 2.7 5.8 4.4 3.4 3.3 3.7 3.2 2.2-.7-1.2-3.3-.8-3.3 4.8.6 6.5 4.5 10.6 5.7 19 5.8 4 0 8.2.5 9.3 1 2.1 1.2 4.9 6 4.9 8.6 0 1.4-.7 1.1-3.2-1.3-4.2-4.1-7.6-5.3-14.6-5.3-5.6 0-6.6-.4-13.6-5.4-3.7-2.6-4.2-1.5-.9 1.9 4 4 10.8 6.7 17.7 7.1 6 .4 8.6 1.6 8.6 3.9 0 .7.7 1.5 1.5 1.9 3.1 1.2 1.1 10-2.9 12.8-2.2 1.5-2.9.7-1.1-1.2 3.3-3.7.3-10.5-6.1-13.8-3.4-1.8-10.4-3.1-11-2.1-.6 1 0 1.3 6.2 2.9 4.3 1 9.4 5.2 9.4 7.6 0 1.8-1.8 1.8-3.6-.1-.8-.8-3.4-1.9-5.7-2.5-13.7-3.6-14.7-4.1-21.1-10.1-3.5-3.2-7.1-7.5-8-9.3-.9-1.9-3.2-4.3-5.1-5.5-1.9-1.1-3.5-2.4-3.5-2.9 0-1.2 7.8.1 11 1.7zm-47.5 3.2c2.8 2.9 4.3 4.8 3.4 4.3-2.6-1.5-9.9-7.8-9.9-8.6 0-1.8 1.8-.6 6.5 4.3zm9-2.1c1.7 1.9 1.7 2 0 2.6-1.9.8-4.9-2.2-3.9-3.7.8-1.4 1.9-1.1 3.9 1.1zm6 0c-.3.5-1.3 1-2.1 1s-1.2-.5-.9-1c.3-.6 1.3-1 2.1-1s1.2.4.9 1zm-197 2.8c.2 1.2 0 2.4-.6 2.7-.5.4-.9-.8-.9-2.6 0-3.5.8-3.5 1.5-.1zm-3.9.7c.2 1.1.6 4.2.9 7l.7 5-2-2.5c-1.1-1.3-2.4-3.8-2.8-5.5l-.7-3-.4 2.7c-.2 1.5.5 4.9 1.7 7.5 2.4 5.4 2.8 12.9 1 17.4-1.3 3.1-4.7 4.3-3.6 1.2.4-.9.9-3.5 1.2-5.8.5-3.5.1-4.7-3.5-9.7-6.9-9.5-4.9-17.1 4.3-16.5 2.1.1 3 .8 3.2 2.2zm156.4-1.6c0 1.6-1.2 4.1-2 4.1-.4 0-.5-1.1-.2-2.5.4-2.3 2.2-3.6 2.2-1.6zm-202 4.2c0 .6.7.9 1.5.5.8-.3 1.5-.1 1.5.3 0 1.1-7.4 7.1-8.7 7.1-.5 0-2.8 1.6-5.2 3.6-2.3 2-4.4 3.4-4.6 3.2-1-1 5.7-9.9 9.6-12.8 4.5-3.2 5.9-3.7 5.9-1.9zm255.8.8c.3.8-.1 1.2-.9.9-.7-.2-1.5-1-1.7-1.7-.3-.8.1-1.2.9-.9.7.2 1.5 1 1.7 1.7zm-21.4 2.6c4.1 1.9 8.6 4.9 10.1 6.6 3.4 4.1 6.8 10.9 5.9 11.7-.4.4-.9.2-1.1-.5-.2-.7-3.7-2.8-7.8-4.8-4.8-2.3-8.4-4.8-10.4-7.4-2.9-3.6-5.6-9.1-4.5-9.1.2 0 3.8 1.6 7.8 3.5zm7.6-1c1.6 1.9.1 1.9-2.4 0-1.6-1.2-1.7-1.5-.4-1.5.8 0 2.1.7 2.8 1.5zm-214 .3c0 2-6.3 9.3-10 11.8-5.3 3.5-6.3 2.4-1.2-1.2 2.2-1.6 5.2-4.8 6.7-7.1 2.5-4 4.5-5.5 4.5-3.5zm155.6 4.7c-.9 2.3-2.6.9-2.6-2.3 0-2.4.1-2.5 1.6-1 1 .9 1.4 2.4 1 3.3zm33.7 1.8c-.6 7.4.1 8.4 7.3 9.2 2.7.3 5.7.8 6.7 1.1 3.1.9 6.3 9.4 3.6 9.4-.6 0-3.3-1.6-5.9-3.5-2.7-2-6.3-4-8.2-4.7-4.9-1.6-6.8-3.7-6.8-7.4 0-2.6 2.7-10.4 3.6-10.4.1 0-.1 2.8-.3 6.3zm-27.2-3.6c.7 8.1.3 10.5-1.2 8.2-1.2-1.9-1.1-9.9.1-9.9.6 0 1.1.8 1.1 1.7zm-185.1-.3c0 .2-1.2 1.2-2.7 2.1l-2.8 1.8 1.9-2.1c1.7-2 3.6-2.9 3.6-1.8zm195.5 1.5c-.8 1.3-3.5 1.5-3.5.2 0-.5.8-1.1 1.8-1.3 2.1-.5 2.6-.2 1.7 1.1zm9.2 10.9c2 2.4 4.4 4 8.1 5.1 6.2 1.9 12.2 6.4 12.2 9.1 0 2.7-1 2.5-4.8-1-3.2-2.9-4.8-3.7-14.4-7.8-2.5-1.1-5.2-3.1-5.9-4.4-.7-1.2-1.2-2.4-1.1-2.6.6-.8 0-2.2-.8-2.2-1.5 0-.3 7 1.6 9.1 1.8 2 11.3 5.9 14.4 5.9 3.5 0 2.1 1.8-1.7 2.4-8.6 1.5-11.5 1.5-13.6.5-2.9-1.5-3.7-2.8-3.7-5.9 0-1.4-.6-3.5-1.4-4.6-1.9-2.7-1-6.5 2.6-10.9l3.1-3.7 1.3 3.7c.7 2.1 2.5 5.3 4.1 7.3zm16.3-3c-3.1.5-6-1.6-6-4.4v-2.5l4 3.3c3.3 2.7 3.6 3.4 2 3.6zm-247.4-.8c-1.4 2.2-3.1 4-3.7 4-.5 0 .4-2.1 2.1-4.6 3.9-5.6 5.4-5 1.6.6zm216.2-1.5c-.1 1.9-.5 3.2-.8 2.9-.8-.9-.7-6.4.2-6.4.5 0 .8 1.6.6 3.5zm68.2-2.2c0 1.5-4.7 6.7-6 6.7-1.7 0-1.1-1.7 1.6-4.9 2.7-3.3 4.4-4 4.4-1.8zm22.4 5.7c5.4 4.6 7.7 6 10.2 6 6.7 0 9.5 1.2 11.9 5.1 1.6 2.5 3.4 3.9 5.5 4.4 2.6.6 3 1.1 3 3.8 0 4.1-.9 5.4-4.3 6.2-2.4.6-3.4.1-7.4-4-6.6-6.6-8.7-7.9-17.8-11-7.4-2.5-12.6-5.5-9.8-5.5.7 0 1.4.4 1.8.9.3.5 4.9 1.9 10.3 3.1 5.3 1.2 11.1 2.6 12.7 3.1 2.8.8 2.9.8 1-.6-1.8-1.5-7-3.2-12.4-4.2-5.6-1-9.5-4.3-13-11.1-2.1-3.9 1-2.6 8.3 3.8zm-287.4-.3c-3.1 3.5-3.2 3.7-1.2 4.4 3.4 1.3 2.2 4.6-4 11.1-1 1-1.8 2.4-1.8 3.2 0 .8-1.1 2.7-2.4 4.3-4.5 5.5-5.6 8.8-5.4 16.5.3 6.3-.1 8.1-2.5 13-2.3 4.7-3.3 5.8-6 6.3-1.8.4-4.1.9-5.2 1.1-1.4.4-1.2 0 .8-1.3 4-2.6 4.5-5.9 1.7-10.8-6.5-11.3-8-14.9-8-19.6 0-9.7 4-14.5 18.8-22.7 19.3-10.8 20-11 15.2-5.5zm28-.2c0 .8-.9 1.9-2 2.5-2.3 1.2-2.5.7-1-2.1 1.3-2.2 3-2.5 3-.4zm11.5 1.4c.5 2.2-.1 4.3-2.2 8.3l-2.8 5.3-.3-3.3c-.2-1.9.4-4.4 1.2-5.8.9-1.3 1.7-3.5 1.8-4.9.3-3.4 1.5-3.2 2.3.4zm22.1 3.7.5 3.9-1.4-3.5c-3.2-8-3.2-7.7-1.3-5.9.9.8 1.9 3.3 2.2 5.5zm8.4-4.1c1 1.2 1 1.5-.4 1.5-2.1 0-2 .6.5 3.1 1.6 1.6 1.8 2.3.9 3.4-2.6 3.2-5.9-1.8-4.6-7 .7-2.9 1.8-3.2 3.6-1zm-35.9 2.8c-.8.8-1.1.7-1.1-.4 0-2 1.3-3.4 1.8-1.9.3.7-.1 1.7-.7 2.3zm22.9 1.1c0 3.3 3.1 6.1 8.5 7.6 2.9.8 6.3 2.8 8.6 5 3.3 3.1 3.9 4.3 3.9 7.8 0 2.2.4 4.4 1 4.7.9.6.6 14.6-.4 18.3-.2.9-.7 3-1.1 4.6-1.2 5.6-2.3.6-1.8-8.3.6-12.4-.7-14.6-11.1-18.7-5.7-2.2-8.2-3.8-8.8-5.4-1.2-3.1-2.2-15.5-1.4-17.5.8-2.2 2.6-.9 2.6 1.9zm129.3-.6c2.8.9 5 2.1 4.7 2.7-.9 1.8-7.9.9-11-1.3-3.7-2.8-4-2.7-4 .3 0 1.4-.4 2.5-1 2.5-1.4 0-3.2-4-2.6-5.7.7-1.8 5.5-1.3 13.9 1.5zm-166.3.1c0 .5-.9 1.1-2.1 1.4-1.6.4-1.8.3-.8-.9 1.3-1.6 2.9-1.9 2.9-.5zm150 1.6c.7 1.4 3.5 3.9 6.2 5.6 2.7 1.8 4.7 3.3 4.5 3.6-.3.2-2.3.1-4.6-.3-3.3-.5-4.5-1.3-5.2-3.1-.5-1.4-1.6-3.1-2.4-3.9-1.6-1.7-2-4.4-.7-4.4.5 0 1.5 1.1 2.2 2.5zm-196-.6c0 1-2.4 2.1-4.8 2.1-1.3 0-1.2-.3.4-1.5 2.1-1.6 4.4-1.9 4.4-.6zm54.8 2.8c-.4 1.9-5.5 3.6-7.6 2.4-1.2-.7-1-1.1.9-2.5 3.2-2.2 7.2-2.1 6.7.1zm84.8-.4c.4.4-.8.7-2.7.7-2.3 0-3-.3-2-.9 1.5-1 3.7-.9 4.7.2zm84.7 2.2c-.7 2.1-1.3 1.9-1.3-.6 0-1.1.4-1.8 1-1.4.5.3.7 1.2.3 2zm-66.4 2.4c4.8 3.5 9.1 9 9.1 11.8 0 2.2-.5 1.8-3.8-3.3-2.8-4.4-5.2-6.6-9-8.7-2.9-1.6-5.2-3-5.2-3.2 0-.9 6.2 1.5 8.9 3.4zm-171.3-1.4c1.5 1.2 1.6 1.6.5 2.4-2.2 1.4-8.1-.7-8.1-3 0-1.5 5.5-1 7.6.6zm120.7 1.5c1.4 1.1 3.3 4.1 4.3 6.6 1.6 4.1 1.6 4.7.1 6.1-1.4 1.4-1.6 1.2-2.6-2.3-.6-2.2-2.6-5.5-4.6-7.4-1.9-1.9-3.5-3.8-3.5-4.2 0-1.5 3.7-.8 6.3 1.2zm-62.5.7c3.2 1.4 3.4 1.7 1.5 2-2.4.5-6.3-1.2-6.3-2.7 0-1.3.5-1.3 4.8.7zm243.9-.2c-1.1.7-2.5 1.1-3.3.8-2.5-1-1.5-2.3 1.9-2.3 3 .1 3.1.2 1.4 1.5zm20.3.5c7.9 4 15 12.5 15 17.7 0 1-1.4 5.6-3 10.3-3.8 10.9-3.8 13.4 0 17.2 3.6 3.5 3.8 4.3.8 2.7-2.9-1.6-5.6-4.7-7.4-8.6-1.8-4.1-3.2-29.3-1.6-29.3.6 0 1.6 2.6 2.2 5.7 2.2 11.7 3 13.3 2.5 5.3-.6-8.6-3-13.5-9.4-19.3-4.7-4.2-4.6-4.5.9-1.7zm-128.6 5.2c-.8 1.2-5.4-3.1-5.4-5.1 0-1 .9-.6 3 1.4 1.6 1.5 2.7 3.2 2.4 3.7zm172.4-3.8c.4 2-2.6 5.8-3.9 5-1.3-.8-1.1-4.8.3-6.2 1.6-1.6 3.2-1 3.6 1.2zm-296 1.5c.3.9-.2.9-2.2 0-1.4-.7-2.6-1.6-2.6-2 0-1.2 4.3.6 4.8 2zm232.1 2.1c-2.2 1.4-3.4-.2-1.3-1.7 1.3-1 2-1 2.3-.2.2.6-.3 1.5-1 1.9zm-300.8 2.9c-1.2 1.6-2.1 3.5-2.2 4.3 0 .7-.4.3-.9-1-1.2-2.8.3-6.9 2.7-7.4 2.6-.5 2.7.8.4 4.1zm82.9-2.8c-.7 1.1-1.4 1.8-1.7 1.5-.8-.8.5-3.6 1.7-3.6.7 0 .7.6 0 2.1zm147.3-.5c5.5 1.8 9.9 5.7 9.1 7.8-.3.8.1 2.5 1 3.8 1.8 2.6 2.1 7.4.6 11.4-1.4 3.5-8.5 9.3-11.7 9.4-2.4 0-1.3-1.6 2.2-3.3 3.7-1.8 4.8-4.3 1.5-3.4-2.6.7-2.5.1.6-3.6 2.2-2.6 2.5-3.8 2.2-7.8-.6-5.4-3.3-9.3-9.3-13.2-4.5-3-3-3.4 3.8-1.1zm49.7.1c0 .5-.5 1.5-1 2.3-.8 1.2-1 1.1-1-.8 0-1.2.5-2.2 1-2.2.6 0 1 .3 1 .7zm-215.5 1.2c.6 1.1-3.3 2.6-4.3 1.6-.4-.3 0-1 .8-1.5 1.9-1.2 2.7-1.2 3.5-.1zm124 1.1c1 1.1 1.4 2 .8 2-.5 0-1.8-.9-2.8-2-1-1.1-1.4-2-.8-2 .5 0 1.8.9 2.8 2zm131.8 3.8c1 2.3 1.7 5.2 1.6 6.5 0 1.7-.5 1.3-1.9-1.8-2.1-4.8-3.7-11.5-2.3-10 .6.5 1.7 2.9 2.6 5.3zm-51.7-.6c1.9 2.1 3.4 4.3 3.4 5 0 .7-.7.2-1.6-1-2-2.9-6.6-5.2-10.4-5.2-3.8 0-3.9 1.6 0 2.5 3.1.7 8 4.1 8 5.5 0 .5-1.6.2-3.5-.6-1.9-.7-5-1.4-6.9-1.4-1.9 0-4.7-.5-6.3-1.1-2.7-1-8.3-5.6-8.3-6.9 0-.3 5-.5 11.1-.5h11l3.5 3.7zm-226.3-1.9c-2.3 3.8-6.9 9.7-7.6 9.7-.9 0 2.4-5.2 5.6-8.8 2.3-2.5 3.2-2.9 2-.9zm30.1.3c.9 2.4.7 2.8-.9 1.4-1.7-1.4-2-3-.6-3 .5 0 1.2.7 1.5 1.6zm21.3 2.9c2.6 2 5.8 3.8 7.2 4.2 3.4.8 8.4 3.3 9.3 4.7 1.5 2.2.7 5.4-1.7 7-1.6 1.1-2.5 2.6-2.5 4.3 0 2.6 0 2.6-2.1.7-1.5-1.4-2.2-1.5-2.8-.6-.4.7-2.1 1.6-3.6 2.1-2 .5-3.1 1.6-3.7 3.7-.5 1.6-2.3 4.6-4.1 6.7-3.1 3.6-3.5 3.8-5 2.2-2.3-2.3-2.1-4.2.6-4.9 1.2-.3 3.7-2.7 5.5-5.2 1.8-2.5 4.5-5 6-5.5 3-1.2 3-1.2-4.8-6.2-3.8-2.4-8.3-8.4-7.4-9.8.3-.5 2.3.5 4.5 2.3 2.1 1.7 4.2 2.9 4.5 2.6.3-.4-.8-2.5-2.5-4.9-2.8-3.8-3.9-6.9-2.5-6.9.3 0 2.6 1.6 5.1 3.5zm97.4-1c1.2-.4 2.1-.1 2.5.9.9 2.2 4.1 2 4.7-.4.4-1.6 1-1.8 3.5-1.1 1.6.5 4.7 1.7 6.8 2.7l3.9 1.9-5.3.3c-6.2.4-6.6 2.2-.9 3.4 4.4.9 8.3 3.3 9.2 5.6.5 1.3.1 1.2-1.7-.4-3.3-3-4.7-3.3-10.8-2.3-3 .5-7.5 1.2-10 1.5-4.2.5-4.4.5-2.5-.9 1.9-1.5 1.9-1.6-1.7-3.1-4.1-1.8-5.8-4.1-5.8-8.1 0-2.5 0-2.5 3-1 1.7.9 4 1.3 5.1 1zm112.3-.4c-.7 1.2-7.4 1.2-7.4 0 0-1.1 3.7-1.8 6.2-1.3 1 .2 1.5.8 1.2 1.3zm-270.6 1.1c-.9 1.3-2.7 4.7-4.2 7.6-1.5 3-3 5.2-3.2 4.9-.7-.6 4.3-10.6 6.4-13 2.1-2.4 2.7-2.1 1 .5zm307.4-.4c2 2.9 5 4.1 11.1 4.3 6.4.3 7.1 1.1 2.7 3.4-3.7 1.9-4.2 1.9-9.9-.6-3.9-1.6-5-2.7-5.9-5.5-1.1-3.7-.1-4.5 2-1.6zm-285.7 2.3c-.9 1.7-1.9 2.9-2.1 2.6-.7-.7 1.8-5.7 2.8-5.7.5 0 .1 1.4-.7 3.1zm13.3-1.9c-.3.7-1.9 1.4-3.6 1.6-3.5.4-3.5.3-3.2 8.6.2 6.9 2.2 13.5 5.6 18.6 2.3 3.4 3 7.3 1.8 10.4-.8 2.2-3.4 2-3.5-.2-.1-3.6-1-6.9-3.9-14.4-3.5-9.1-4.8-17.5-3-20.7 1.8-3.4 10.8-6.9 9.8-3.9zm150.6.9c4.7 2.8 6.6 6 6.6 11.4 0 4.8-1.7 9.2-4.5 11.5-1.5 1.2-1.6.9-1.3-3.5.3-4.6.6-5 4.7-7.2.2-.1-1.5-2.3-3.7-5-3.9-4.7-6.8-9.3-5.8-9.3.3 0 2 .9 4 2.1zm76.2 1.4c2.8 3 5.6 3.2 10 .4 3.6-2.2 4.6-1.3 1.6 1.4-2.7 2.5-7.5 3.1-10.8 1.4-4.8-2.4-6-.9-2.4 2.8 2 2 2.8 3.5 2.1 3.9-.6.4-2.2-.4-3.6-1.8-3.7-3.7-3.4-9.7.4-10.5.2-.1 1.4 1 2.7 2.4zm-213.6 4c1.7 4.6 2 7.5.6 7.5-1.5 0-2.6-3-2.6-7.3 0-3.4.8-3.5 2-.2zm-13.7 4.7c-.4 3.2.2 5.8 2.1 10.2 1.5 3.3 2.4 6.1 2.2 6.3-.3.3-1.7-1.3-3.1-3.6-2.9-4.2-4.2-11.1-3.1-15.6 1-4 2.4-2 1.9 2.7zm-26.1.9c-.5 1.3-.7 4.1-.5 6.2.5 4.6-2 13.5-4.8 17.1-2.5 3.2-3.7 2.8-1.5-.6 1.5-2.2 2-5.1 3-15 .3-2.6 1.2-6.1 2.1-7.8 1.9-3.6 3-3.5 1.7.1zm114.1-1c4.6 1.2 7.7 4.1 7.7 7.2 0 1.2.7 3.3 1.6 4.5.9 1.3 1.3 2.6 1 3-1.3 1.2-4.1-1.5-4.7-4.8-.4-1.8-1.3-3.8-2-4.5-4.1-3.7-15.3-4.1-21-.6-1.9 1.2-3.7 2.1-4.1 2.1-1.3 0-.9-5.8.4-6.6 3.5-2.2 13-2.3 21.1-.3zm107.8.5 2.4 2.7-3-.7c-3.1-.8-4.7-2.4-3.9-3.8.9-1.4 2-.9 4.5 1.8zm-231.2 13.3c-1.5 5.4-5.1 9.7-9.6 11.6-5.4 2.3-6 1.8-2.6-1.8 1.7-1.7 3.3-4.3 3.5-5.7.2-1.6 1.1-2.6 2.7-3 3-.7 3.7-2 5.3-9.5l1.3-6 .3 5c.2 2.7-.2 6.9-.9 9.4zm54.4-5.4c4.9-.6 5.1-.6 3 .9-4.6 3.4-6.8 3.6-10.7 1-3.1-2.1-6.6-6.9-6.6-9 0-.4 2.1 1.2 4.6 3.6 4.4 4.1 4.7 4.2 9.7 3.5zm259.1-6.9c2.5.9 1.9 3-1.6 6-3.8 3.1-5.3 5-6.2 8-.8 2.7 1.6 5.4 4.9 5.4 2.1 0 2.4-.4 2.3-3.5-.1-4.1.3-4.8 2.5-3.9 4 1.5 3.1 7.6-1.4 10-3.4 1.7-5.3 1.3-9-2-4.7-4.1-5-5.4-2.3-12.5 1.4-3.6 3-6.9 3.7-7.3 1.5-.9 4.9-1 7.1-.2zm-136.8 2.5c.8.6 1.1 1.5.8 2-.8 1.3-9.8 5.8-12.6 6.3-1.3.3-2.4.5-2.6.5-.1.1.6 1 1.6 2.1 1.4 1.6 3.4 2 9.5 2.3 4.3.2 8.3.9 8.9 1.5 2 2 .2 2.4-3 .8-3.5-1.8-5.6-1.5-10.3 1.3-4.4 2.7-7.2 2.6-10.6-.3-1.9-1.6-2.8-3.4-2.9-5.7-.1-1.9-.5-5.1-.9-7.2l-.7-3.7h5.3c5 .1 5.2.2 3.5 1.5-2 1.5-2 1.5 0 1.5 2.8 0 6.9-2.5 6.6-4-.3-1.5 5.3-.7 7.4 1.1zm53.7 3.4c2.5 2.4 2.8 3.2 2.5 8.3-.4 7-2.6 8.2-5.8 3-1.8-3-1.9-3.4-.4-4.5.9-.6 2.2-.9 3-.6 3.1 1.2 1.2-2.7-3.1-6.1-2.5-2.1-4.5-4.2-4.5-4.7 0-1.3 4.9 1.4 8.3 4.6zm20.7-1.4c0 1.1-.4 1.8-1 1.4-.5-.3-.7-1.2-.3-2 .7-2.1 1.3-1.9 1.3.6zm-132 .5c0 .2-.9.4-2 .4s-2-.4-2-.9.9-.7 2-.4c1.1.3 2 .7 2 .9zm128.1.1c0 .5.2 1.6.4 2.5.5 2.7-1.5 10.1-3.2 12-2.6 2.9-3.3 2.1-1.8-2.3.8-2.3 1.5-5.4 1.5-6.9 0-1.6.3-3.5.6-4.4.6-1.6 2.3-2.2 2.5-.9zm-33 4c-1.3 3.2-7.4 7.7-9.3 7-.8-.3-.3-.9 1.3-1.5 2.7-1.1 7.9-6.6 7.9-8.4 0-.6.3-.8.6-.5.4.4.1 1.9-.5 3.4zm-244.7-.5c3.4 4.8 1.6 7.1-6.4 8.3l-4.5.6 3.4-2.5c1.9-1.4 3-2.6 2.3-2.6-1.7 0-1.5-2 .5-4.2 2.1-2.3 2.9-2.3 4.7.4zm289.3.6c5 6.7 3.5 13.3-3.9 17.4-3.9 2.1-4.3 2.8-4.8 6.8-.4 3.5-1.1 4.8-3.2 5.9-3 1.7-3.7 1.4-4.3-1.9-.7-3.8 2-8.5 8.4-14.5 3.3-3.2 6.4-7 6.9-8.5 1-2.7.3-5.3-1.4-5-.5 0-1-.6-1.2-1.4-.5-2.5 1.2-1.9 3.5 1.2zm32.5 10.7c.2 3.1-.1 4-1.5 4.3-2.2.4-4.9-1.6-4.1-3 .4-.6 1-.5 1.5.3 1.1 1.7 1.1 1.1 1.1-8.6l-.1-7 1.4 5c.8 2.7 1.6 6.8 1.7 9zm-168.9-9.6c.8.8.8 1.4 0 2.2-.9.9 0 2 3.5 4.3 6.9 4.8 8.7 7.8 8.8 14.4.1 6.6-1 10.3-3.7 12.8-1.8 1.6-1.7 1.4.2-2.2 2-3.6 2.1-4.4 1-9.7-1.8-8.3-4.4-10.9-14.4-14-4.6-1.5-10.3-3-12.8-3.2-7.3-.9-8.9-1.5-8.9-3 0-.8.7-1.5 1.5-1.5s1.5.4 1.5.9c0 1.3 4.4 1.9 6.6.9 1-.5 3-1.6 4.4-2.4 2.8-1.7 10.4-1.4 12.3.5zm202.3 3.9c-.8.7-2.5-.8-3.7-3.1-1.1-2.1-1-2.1 1.5.2 1.4 1.4 2.4 2.6 2.2 2.9zm-346.8-.4c.4 1.8-2.4 5.6-4 5.6-.5 0-.4-.9.2-1.9.5-1.1 1-2.9 1-4.1 0-2.5 2.3-2.2 2.8.4zm75.2.2c0 .2-.9.4-2.1.4-1.1 0-1.8-.4-1.4-1 .5-.8 3.5-.3 3.5.6zm185.8 4.5c-1.2 2.2-3 4.7-4 5.6-1.8 1.6-1.8 1.6-.1-2.3 3.1-6.6 4.4-8.5 5.4-7.9.5.4 0 2.3-1.3 4.6zm45.9-1.9c-.3.7-.5.2-.5-1.2s.2-1.9.5-1.3c.2.7.2 1.9 0 2.5zm-210.7-.7c1.1 1.3 1 2.3-.1 5.7-.7 2.2-1.2 5-1.2 6 .4 4.4 7 8.1 9.4 5.2 1.7-2 3.1-.6 1.8 1.8-2.4 4.4-12.8-.3-14.9-6.8-1.1-3.2-1-3.9 1-6.6 3.1-4.2 1.4-5-2.1-.8s-3.6 6.6-.4 11.4c2.8 4.1 1.9 4.7-2 1.3-4.7-4-3.2-13.1 2.7-16.7 4-2.4 4.2-2.4 5.8-.5zm33 2.9c3 .3 7.8 1.2 10.5 2.1 4.6 1.3 5.3 2 8.3 7.4 1.7 3.3 3.2 7.1 3.2 8.4 0 2.9-7.3 11.5-12.3 14.6-1.8 1.1-5.2 2.3-7.4 2.7-5.3.8-11.9-2.2-15-6.9-2.4-3.5-3-8.1-1.3-9.2 1.7-1.1 1.1-3.3-1.7-6.1l-2.8-2.6 3 1.5c1.7.8 4.2 2.8 5.7 4.3 1.5 1.6 4.3 4.6 6.2 6.7 3.9 4.2 6.1 4.1 5.2-.3-.3-1.9-.1-3 .9-3.4 1.6-.6 3.1 1 3.7 3.9.4 2.3 1.8 2.4 3.2.2 1.3-2-.5-4.2-5.8-7-3-1.5-3.6-2.2-2.3-2.5 3.6-.7 1.5-1.9-4.5-2.5-5.8-.6-6.6-1-10-4.9-2-2.3-3.6-4.4-3.4-4.5.2-.2 1.9.5 3.7 1.6 1.9 1.1 6.1 2.7 9.4 3.7 9 2.5 12.3 4.4 13.9 7.8 1.5 3.2 1.1 7.4-1 10.9-1.5 2.7-7.2 3.6-12.2 2.1-6-1.7-7.1-2.9-6.5-6.8.6-4.3-1.3-5.6-2.2-1.6-.4 2-.1 4.2 1.2 6.7 2.2 4.5 6 5.8 14.3 5 4.5-.5 6-1.2 8.2-3.6 1.5-1.7 3.2-4.8 3.8-7.1 2.2-8.1-3.6-13.6-16.8-16-5.8-1.1-10.8-3.6-11.7-5.8-1-2.6.5-3.1 3.8-1.3 1.8 1 5.7 2.1 8.7 2.5zm85.3 1.3c-.1 2.9.2 5.3.6 5.3 2.1 0 16.8-3.3 18.4-4.1 2.5-1.4 2.1-.2-.7 1.6-2.9 1.9-18 4.4-19.9 3.3-.9-.4-1.2-1.7-1-3.1.3-1.4-.3-3.9-1.2-5.6l-1.6-3.2 2.8.3c2.7.3 2.8.5 2.6 5.5zM319 428c2.5 4.9 2.8 8.6.5 5.2-2.5-3.4-4.6-9.2-3.5-9.2.5 0 1.9 1.8 3 4zm126-.4c-.5 2-1.4 4.2-2 4.8-.9.8-1.1.6-.7-.9.4-1.1.9-3.2 1.3-4.8.3-1.5 1-2.7 1.4-2.7.4 0 .4 1.6 0 3.6zm-237.7 3.3c1.2 4.6 0 5.1-1.8.8-1.8-4.4-1.9-5-.3-4.5.7.3 1.6 1.9 2.1 3.7zm249.9-.7c-.9.9-1.2.7-1.2-1.2s.3-2.1 1.2-1.2c.9.9.9 1.5 0 2.4zm-123.8-1.3c1 1.6 9.5 5.1 12.3 5.1 1.6 0 3.5.5 4.3 1 1.3.9 1.3 1.1 0 2-2.4 1.6-7.8 1.1-12-1-3.6-1.8-7-5.4-7-7.2 0-1.1 1.8-1 2.4.1zm-186.5 1c1.2.8.8 1.7-2.2 5-4.6 5.1-4.8 8.8-.9 13.1 2.1 2.3 4.1 3.3 8.7 4.1 6.5 1.2 14.4 4.9 17.2 8.3l1.8 2-2.8-1.8c-3.2-2-4.8-1.4-2.9 1.2 4.8 6.6 5.2 7.7 4.6 11.6-.4 2.5-.2 4.1.6 4.6 1.8 1.1-5.5 8.8-9.4 9.8-3.4 1-7.8-.1-9.7-2.4-.6-.7-1.3-2.8-1.5-4.6-.1-1.8-.3-3.5-.3-3.7-.1-.2-.8.2-1.6.9-2.2 1.8-1.9 4 1.1 8.3 2.9 4.3 2.5 6-.6 3.2-1.1-1-2-1.3-2-.7 0 1.9 3.8 3.3 9.1 3.4 11.9 0 19.4-8.2 19.4-21.4 0-5.7.2-6.6 1.3-5.1 1.8 2.6 1.4 12.2-.7 17-3.2 6.9-12.2 12-20.3 11.6-1 0-2.9-.1-4.3-.2-3.2-.1-6.7-3.6-6.4-6.4.1-1.2-.1-3-.5-3.9-.9-2 2.4-7.2 5.5-8.8 2.2-1.2 2.7-.5 3.1 5 .3 3.2.6 3.5 3.9 3.8 4.1.3 7.8-2.3 6-4.1-.7-.7-1.7-.5-3.1.8-2.9 2.7-4.9.6-3-3.1 1.3-2.4 1.3-2.8-.9-4.5-1.3-1-3.3-1.9-4.5-2-1.9 0-1.9-.1.4-1 3.2-1.3 5.9-.6 9.3 2.7 3.1 2.9 5.4 2.1 4.3-1.4-1.4-4.2-9.8-5.1-24.4-2.6-4.3.7-9.7-1.1-11.5-4-.9-1.3-2.2-4.5-3.1-7.2l-1.5-4.9v5.2c-.1 4.7.3 5.7 3.5 9.3 4 4.4 4.1 5.6.5 3.7-6-3-8.2-15.8-3.9-22.7l2.2-3.5.7 4.3c1.1 6 4.1 9.7 10.4 12.7 4 2 6.2 2.5 8.4 2 4.4-.9 3.8-2.5-.9-2.5-5.7 0-10.6-2.3-13-6.2-2.5-4.2-2.7-7.2-.2-4.2 4.2 5.2 8.5 7.2 17.5 8.4 8.6 1.2 12.9.8 11.1-.9-.5-.5-4.3-1.2-8.4-1.6-10-.9-13.9-2.9-16.7-8.5-1.9-3.8-2.1-5.1-1.2-8.3 1.2-4.4 6.4-10.7 8.8-10.7.9 0 2.2.4 3 .9zm60.7 12.2c2.1 2.1 5 4.1 6.5 4.4 1.9.4 3.1 1.6 3.8 3.7 1.3 3.6 17.3 19.8 24.2 24.6 4.9 3.3 7.9 3.9 14.2 2.7 3.7-.8 3.9-.6 11.5 7.1 8.1 8.2 14.2 16.3 14.2 18.7 0 3.9 10.9 9.6 19.6 10.1 8.6.6 11.1-.7 12.8-6.3.7-2.6 2.5-6.4 4-8.5 1.4-2.1 2.6-4.6 2.6-5.6 0-3.3 1.5-3 5.9 1.4 2.5 2.4 6.2 5.3 8.1 6.4 3.4 1.9 3.5 2 3.2 7.5-.3 5 0 5.8 2.8 9.1 5.3 6 17.7 8.4 27 5.1 2.3-.8 4.4-1.5 4.6-1.5 1.3 0-.2 4.2-4.7 13.5-5.3 11.1-6.1 15.3-1.2 6.6 2.9-5.2 4-6 6.1-3.9.9.9 1.2.8 1.2-.5 0-.9.7-1.7 1.6-1.7 1.9 0 7.4-11.6 10.3-22 3.5-11.9 5.5-14.5 8-10.3.9 1.5 1 1.3 1.1-1.2 0-2.2.3-2.6 1.2-1.7 1.7 1.7 2.8 1.5 2.8-.4 0-.8.4-1.3.9-.9.6.3.8 1.4.6 2.5-.2 1.1 0 2 .5 2 1.6 0 5-5.3 5-7.8 0-1.4.3-2.2.8-1.8.7.7.8 1.1 1.1 3.7 0 .6 1.6.2 3.7-1 1.9-1.2 3.9-1.9 4.4-1.6 1 .6 1.8 5.1 2.5 14.5.8 10.4 1.4 14 2.5 14 .5 0 1-1.4 1.2-3.2.2-1.7.8-3.3 1.4-3.5 1.3-.4 3 5.7 4 14.3.9 7.7.8 9.5-.8 10.6-3.4 2.2-19.9 6-31.8 7.3-3 .3-8.2 1-11.5 1.5-3.3.5-7.8 1.2-10 1.5-19.6 2.8-45.7 10.7-48.1 14.6-.8 1.4-.4 1.3 10.6-2.6 8.2-2.9 32.1-8.6 44-10.5 10.3-1.6 11.7-1.8 18.5-2.5 3.3-.4 10.3-1.6 15.5-2.7 15.9-3.3 14.9-3.3 15.8-.7.5 1.3 2.1 11.8 3.6 23.4 1.5 11.5 3.7 25.7 4.8 31.5 1 5.8 2 11.2 2.1 12 .3 2.1-13 5.7-27.3 7.5-11.9 1.5-21.1 2.1-44 3-7.4.3-17.5.8-22.5 1-36.2 1.7-40.2 1.7-52 .1-12.7-1.8-15.5-2.1-25-3.1-10.4-1-14.8-1.4-22-2-31.3-2.6-52.6-8.1-77-20.1-21.8-10.7-43.7-25.8-58.1-40.1-21.7-21.5-31.4-42.4-30.5-66.1.1-4.5 4-8.2 8.4-8.2 4.7 0 12.7-2.5 23.2-7.2 10.2-4.6 16.1-5.2 22.3-2.1 3.2 1.5 3.7 2.2 3.4 4.8-.1 1.6 0 3.9.3 5 .6 2.5 6 8.5 9.9 10.9 3.7 2.4 11.7 2.5 17.1.2 11.9-5 16.2-11.6 17.1-26.6.8-11.5.9-11.8 8.2-22.8 6.6-9.9 8.2-13.1 8.2-17 .1-2.2.4-1.8 2 2.2 1.1 2.7 3.6 6.7 5.6 8.7zM356 430.6c0 1.7-2.2 1.4-2.8-.4-.2-.7.3-1.2 1.2-1.2.9 0 1.6.7 1.6 1.6zm48 3.6c0 2.3-1.5 2.4-1.6 0-.1-.9-.4-2.6-.8-3.7-.8-2-.7-2 .8-.1.9 1.1 1.6 2.8 1.6 3.8zm107.4-2.1c1.1 1 1.7 2.1 1.3 2.5-.8.9-11.7-3.6-11.7-4.8 0-1.6 8.3.2 10.4 2.3zm-193.5 4.4c0 .5-.6.1-1.4-.9-.8-1.1-1.5-2.7-1.5-3.5.1-1.7 2.9 2.6 2.9 4.4zm-58.1.4c-.4 2-3.8 2.7-4.9 1-.4-.7-.3-1.9.2-2.5 1.4-1.7 5.1-.5 4.7 1.5zm139.2-1c1.6 3 1.2 3.6-1 1.6-2.1-1.9-2.6-3.5-1-3.5.5 0 1.4.9 2 1.9zm105.6 1.5c4.2 4.2 4.3 5.9.4 8.6-3.8 2.7-3.9 4.4-.2 3.5 3.7-.9 6.1-3.2 8.4-8l1.9-4-.6 4.7c-.5 4-.3 4.8.9 4.8.9 0 1.6.6 1.6 1.4 0 1.8-5.6 6.6-7.8 6.7-.9.1-3 .3-4.7.5-7.8.9-8.8.7-11.2-2.1-2.8-3.1-2.7-5.9.2-6.1 1.1-.1 2.8-.2 3.7-.3 2.6-.2 7.8-5 7.1-6.6-.3-.8-1-1.5-1.7-1.5-1.9 0-5.7-3.1-5.1-4.1 1.2-1.8 3.7-.9 7.1 2.5zm-328.6-.3c0 1.1-2.9 1.7-10.1 2.3-6.4.5-8.9 1.7-11.2 5.5l-1.6 2.6-.1-3.2c0-3.4 2.1-6.3 4.8-6.4.9 0 4.9-.6 8.7-1.3 7-1.3 9.5-1.1 9.5.5zm158 .5c3.5 2.3 5.5 2.8 15 3.4 7.5.5 11.7 1.3 13.5 2.4 4.1 2.7 3 3.7-4 3.5-3.6-.1-6.8.1-7.1.4-1.3 1.3 1 2.7 4.4 2.7 3.2 0 12.2 3.2 12.2 4.3 0 .2-2.1-.3-4.6-1.1-4.2-1.4-5.3-1.4-11.7.2-4.7 1.1-7.4 1.3-8 .7-.7-.7-.5-1.2.6-1.6.9-.3 2.4-.7 3.3-1 2.5-.8.9-1.8-3.3-2-5-.2-9.6-2.7-12.7-6.8-2.3-3-3.5-7.7-2.1-7.7.3 0 2.3 1.2 4.5 2.6zm145.1-1.5c4.9 1.7 6.2 3.3 1.9 2.4-4.2-.9-9.3-3.4-6.9-3.5.9 0 3.1.5 5 1.1zm-346.8 1.6c-1.1 3.2-3.3 5.9-3.3 4.2 0-1.4 2.7-5.9 3.5-5.9.3 0 .2.8-.2 1.7zm17.7-.8c0 .5-.7 1.4-1.5 2.1-2 1.7-1.9 3.3.5 5.5 2.4 2.1 2.8 5.7.5 4.9-2.1-.9-5.8-7.2-4.9-8.6 2.1-3.7 5.4-6.1 5.4-3.9zm244.1 1.2c2.9 2 3.8 3.9 1.9 3.9-.5 0-2.4-1.3-4.2-3-3.8-3.4-2.1-4 2.3-.9zm-160.9 3.1c-.9.9-1.2.7-1.2-1.2s.3-2.1 1.2-1.2c.9.9.9 1.5 0 2.4zm152-2.3c3.3 1.3 8.7 6.7 9.4 9.5 1.2 4.9-.2 4.7-3-.4-2.3-4.2-3.8-5.6-8-7.6-3.3-1.6-4.4-2.4-2.9-2.4 1.2 0 3.2.4 4.5.9zm25.3 3.4c-.9 3.6-4 6.1-6.2 5.1-1.6-.7-1.5-.8.5-1.2 1.4-.2 2.9-1.7 3.9-3.8 1.9-3.8 2.7-3.9 1.8-.1zm42-.3c-1 1.1-2.3 2-2.8 2-.6 0-.2-.9.8-2s2.3-2 2.8-2c.6 0 .2.9-.8 2zm-225.4 3.4c0 1.7.2 5.2.3 7.9.1 2.6-.2 4.6-.7 4.4-.5-.1-2-2.9-3.4-6.1-2.2-5.4-2.3-6-.9-8.2 2.1-3.1 4.6-2.1 4.7 2zm101.5-1.6c.9 1.6 3.9 4.4 6.6 6.1 5.4 3.6 6 5.6.6 2.3-4.7-2.9-12.1-11.2-10-11.2.6 0 1.8 1.3 2.8 2.8zm87.8-.1c-.8 3.3-4.8 7.9-7.5 8.6-2.6.7-2.5.3 2.3-5.9 4.8-6 6.2-6.7 5.2-2.7zM241 448.1c2.2 2.8 3.8 5.5 3.4 6-.8 1.4-6 1.1-7.3-.5-1.9-2.3-2.9-7.1-1.9-8.9.5-1 1.1-1.7 1.3-1.7.3 0 2.3 2.3 4.5 5.1zm144.5-2.9c2.6 2.3 4.3 7.5 3.7 11.5-.2 1.2-1.5 3.3-2.9 4.7-4.5 4.5-9.8 2.7-9.1-3.1.4-3.6 1.9-3.6 3.6-.1 1.4 2.9 2.6 3.5 3.7 1.8.6-1-2.3-8-3.4-8-.3 0-1.7-.9-3-1.9l-2.4-1.8 5.1.5c6.5.6 6.9-1.1 1-3.8-3.9-1.7-4-1.9-1.6-1.9 1.5-.1 3.9.9 5.3 2.1zm53.3-.5c1.3 2.5.4 4.3-1.9 4.3-2.5 0-3.5-2.5-1.9-4.5s2.7-1.9 3.8.2zm16 3.1c-6.3 6.8-7.8 12.2-3.4 12.2 1.3 0 3.4.8 4.7 1.9 1.3 1 3.3 2 4.4 2.2 2.6.5 7.8 8.1 7.8 11.4 0 1.4-.6 3.2-1.3 3.8-.9.9-1.1.4-1-2.3.1-1.9.2-4 .1-4.7-.1-.6-3.5-1.9-7.6-2.8-11.5-2.6-15.9-7.2-13-13.7 1.7-3.9 4.9-7.8 6.4-7.8.5 0 1.8-1.1 2.8-2.4 1-1.3 2-2 2.2-1.4.2.5-.8 2.2-2.1 3.6zM160 446c0 1.1-.7 2-1.5 2-1.5 0-2.1-2.1-.8-3.3 1.2-1.3 2.3-.7 2.3 1.3zm108-.6c0 .8-.9 2.4-1.9 3.7-1.4 1.8-2.9 2.4-6 2.4-2.2 0-4.6-.7-5.3-1.4-1.1-1.1-.7-1.3 2.6-.8s4.2.2 6.5-2.2c3-3.3 4.1-3.7 4.1-1.7zm-91.9 2.4c-3.2 4.6-5 5.7-6.9 4.5-3.1-1.9-2-4.6 2.3-5.9 6.3-1.9 6.9-1.8 4.6 1.4zm7.2 1.5c-3.4 5.3-5.9 8.7-6.6 8.7-1.1 0 1.2-4.1 4.1-7.3 2.7-2.9 3.8-3.5 2.5-1.4zm147.5 3.7c3.4 2.8 6.2 5.8 6.2 6.6 0 .8-.9 3.3-2 5.5-1.8 3.4-2.3 3.8-4 2.9-3-1.6-3.7-3.3-.9-2.5 2 .6 1.7.1-1.5-2.9-4.4-4.2-4.2-5.7.3-3 3.7 2.2 5.5 1 2-1.3-3.5-2.5-6.6-6.1-7.2-8.3-.8-2.9.2-2.5 7.1 3zm-97.8 1.9c0 3.7-2.2 1.1-2.5-3-.3-3.1-.2-3.2 1.1-1.4.8 1 1.4 3 1.4 4.4zm82.5-2.9c-.3.5-1.6 1.5-2.8 2.1-2.2 1.2-2.2 1.2-.3-1 1.9-2.1 4.3-3 3.1-1.1zm180.1 6.5c6.3 2.5 13.4 2.6 15.8.2 2-1.9 2.6-2.1 2.6-.7 0 1.8-6.5 4.3-11.2 4.3-7.4-.1-15.8-5.7-15.8-10.5 0-.7.8.1 1.9 1.8 1.2 1.9 3.6 3.7 6.7 4.9zm-245.9-2.9c.8 2.2-1.5 4.4-2.6 2.5-1-1.6-.4-4.1 1-4.1.5 0 1.2.7 1.6 1.6zm188.8 10c.8 1.3 3.1 3.4 5 4.7 4.1 2.6 4 4.1-.1 4.5-2.7.3-3.1-.1-5.6-6-3.7-8.9-3.9-9.7-3.1-12.6.6-2.4.8-2.2 1.4 2.1.4 2.7 1.5 5.9 2.4 7.3zm-177-9.6c.8 1.3-2.5 1.3-4.5 0-1.2-.8-.9-1 1.2-1 1.5 0 3 .4 3.3 1zm101.4.4c2.5 1.3 6 6.6 4.3 6.6-1.2 0-8.2-6-8.2-7.1 0-1.2.6-1.1 3.9.5zm79.8 8.6c-.5 2.2-2.7-3.5-2.6-6.8 0-2.4.2-2.2 1.5 1.3.8 2.2 1.3 4.6 1.1 5.5zm-185.6-4.4c.9 2.6-.4 7.4-2 7.4-1.4 0-3.5-7.4-2.8-9.4.8-2.1 3.6-.9 4.8 2zm156.9-1.9c0 .4-1.4 2.2-3.2 4l-3.1 3.2 1.3 5.4c1.1 4.6 1 5.8-.3 8.3l-1.6 2.9-.1-3c0-1.7-.9-4.5-2-6.3-2.6-4.2-2.5-7.3.1-10.6 2.7-3.4 8.9-6.1 8.9-3.9zm-165.9 6.8c5 4.9 5.8 7 1.7 4.3-2.9-1.9-9.8-9-9.8-10.1 0-1.4 3 .7 8.1 5.8zm112.5-4.4c2.1 2.4 2.5 9.2.6 11.1-.9.9-1.2.4-1.2-2.8-.1-2.1-.7-5-1.5-6.4-2.5-4.4-1.3-5.6 2.1-1.9zm-86.7-.2c2 1.3.5 2.9-3.4 3.7-3.4.6-5.7 2.4-5.4 4 .4 2.5-.2 6.4-1 6-1.3-.8-3.2-9.2-2.5-11 1-2.6 9.5-4.5 12.3-2.7zm79.9 1.9c1.8 2.4 1.5 6.6-.9 9.6-3.1 3.9-5.2 4.7-8.8 3.5-5.9-2.1-8.4-11.9-3.6-14.1 3.4-1.5 4.1-.5 2.5 4.1-1.1 3.5-1.1 4.3.4 6.6 1.7 2.6 4 2.9 4.2.7.1-.7.2-3.9.3-7.3.1-5.8.2-6 2.4-5.4 1.2.4 2.8 1.4 3.5 2.3zm-115.7 1.4c4.7 3.3 9.1 7.9 8.4 8.6-.6.7-4.3-2-10-7.2-5.7-5.3-4.8-6.1 1.6-1.4zm76-1.9c-.1 1.2-1.5.9-1.9-.4-.3-.6.1-1 .8-.8.6.3 1.1.8 1.1 1.2zm79.9.6c-1.6 3-4 5.1-5.8 5.1-1.2-.1-.4-1.2 2.3-3.5 4.7-4 4.9-4.1 3.5-1.6zm-82.4 3.3c.5.7.1.9-1.3.6-1.6-.4-2.2 0-2.6 1.9-.4 1.9.4 2.9 4 5.4 2.4 1.7 4.2 3.3 4 3.6-.3.2-4-1.3-8.3-3.5l-7.8-3.9 4-2.6c4.3-2.8 6.9-3.3 8-1.5zM413 469c0 2.2-.2 4-.5 4-1.1 0-2.5-4.3-2-6 1.1-3.4 2.5-2.2 2.5 2zm-139.6-.1c.7 1.1-3.9 2-5.5 1.1-.8-.6-.6-.9.7-1.3 3.1-.8 4.3-.7 4.8.2zm16.1 0c-.5.5-3.2 1.2-6 1.6-4.3.5-4.8.4-3.3-.7 1.9-1.6 10.9-2.5 9.3-.9zm90.9 2c.8 1.3-4.8 2.4-7.5 1.6-1.7-.6-1.9-.9-.8-1.6 1.8-1.2 7.6-1.1 8.3 0zm-46.3 2.1c3.2 2.6.4 2.7-3.6 0-2.7-1.8-2.8-2-.9-2 1.2 0 3.2.9 4.5 2zm-37.1.5c.6.8 3.6 2.1 6.6 3 10.4 3 15.9 11.2 10.6 15.6-2.1 1.6-10.9 3.5-11.9 2.5-.3-.3 1.5-1 4-1.7 8.4-2.1 10.2-7.6 3.7-11.3-3-1.8-5.2-2.1-16.4-2.1-13.3 0-15.4-.6-11.9-3.7 4.1-3.5 13.1-4.9 15.3-2.3zm97.8 1.5c-2.3 3.2-2.8 3.6-2.8 2 0-1 3.6-5 4.5-5 .3 0-.4 1.3-1.7 3zm67.2-1c0 .5-1.6 1-3.5 1s-3.5-.5-3.5-1c0-.6 1.6-1 3.5-1s3.5.4 3.5 1zm-76 .9c0 1.2-2 2.5-2.7 1.8-.7-.7.6-2.7 1.8-2.7.5 0 .9.4.9.9zm-6.6 3c1.2 1.3 1.5 2.7 1 4.5-.8 3.2-2.1 3.4-2.6.3-.3-1.9-1-2.3-5.8-2.7l-5.5-.5 2.5-1.8c3.2-2.3 8.2-2.2 10.4.2zm22.6-.1c0 2.1-1.8 4.2-3.7 4.2-1.8 0-1.6-2.5.3-4.4 2.1-2.1 3.4-2 3.4.2zm-127 3.3c0 1.6-.4 2.9-.9 2.9-.9 0-2.1-5.7-1.3-6.5 1.1-1 2.2.8 2.2 3.6zm66.6-.5c4.3 1.4 10.7 2.7 14.2 2.8 5.3.3 6.8.8 9.3 3.2 3.2 3.1 3.7 5.9 1.3 9.2-1.7 2.5-3.6 3-2.8.7.4-.9 0-1.5-.9-1.5-1.7 0-4-2.4-3.1-3.3.8-.8 5.4 1.4 5.4 2.5 0 .5.4.7.9.4 1.8-1.2-.2-4.5-3.3-5.5-1.7-.5-6.7-1.2-11.1-1.6-11-.9-18.5-4.6-18.5-8.9 0-.8 0-.9 8.6 2zm115.7 3.1c11.9 11 29.2 29.2 33.2 35.3 9.1 13.8 14.3 26.4 19 45.9 4 16.6 4.2 18.2 1.6 19.8-5.3 3.3-22.6 9.5-30.6 10.9-10.8 1.8-20.3 3.5-22 3.9-1.1.2-2.6.1-3.2-.3-.7-.4-2.6-7.7-4.3-16.2-3.3-16.4-7.2-31.3-14.6-55-7.9-25.3-11.1-42.8-8.6-46.8.6-.9 1.6-1 3.9-.1 5.6 1.9 28.5 30 44.8 55 10.6 16.1 14.2 20.1 17.4 19.2 2.2-.6 4.1-5.1 4.1-9.6 0-2.4-.3-2.7-1.4-1.8-.8.7-1.7 2.3-2 3.7-.4 1.6-1.3 2.4-2.3 2.2-.8-.2-5.4-5.9-10.1-12.8-4.7-6.9-12.4-17.6-17.1-23.9-4.7-6.3-9.3-12.4-10.1-13.5-3.3-4.7 2.4 1 10.8 10.7 7.8 9.2 10.8 11.6 8.3 6.9-1-1.9-8.6-11.2-22.8-28-2.9-3.4-5.3-6.6-5.3-7.2 0-1.1 3-2.9 4.8-3 .7 0 3.6 2.1 6.5 4.7zm5.7-3.2c0 .8-.4 1.5-.9 1.5s-1.1-.7-1.5-1.5c-.3-.9 0-1.5.9-1.5.8 0 1.5.7 1.5 1.5zM303.3 483c6.2 1.8 4.2 2.9-2.4 1.4-7.7-1.8-11.3-3.8-5.4-3 2.2.3 5.7 1.1 7.8 1.6zm84.3-.9c.3.6-.2 2.8-1.2 5-1.7 3.4-2.3 3.9-5.4 3.9h-3.5l3.3-2c3.1-1.9 5.5-5.7 4.5-7.3-.7-1.2 1.5-.8 2.3.4zm102.5 6.6c16.6 17.4 27.7 39.2 37.2 73.3 4.4 15.6 5.1 18.8 4.8 21.7-.2 2-5.9 4.4-9.4 4.1-2.9-.3-3.3-.8-4.9-5.8-.9-3-2.9-10.7-4.3-17-6.7-29.3-16.3-47-37.2-69.1-7.8-8.1-9-10.9-4.2-9.4 3.8 1.2 22 20.4 27.8 29.3 3 4.5 5.6 8 5.9 7.7.6-.6-10.5-19.7-18-30.8-3.2-4.8-6.2-9.5-6.5-10.3-1.1-2.8 2.7-.1 8.8 6.3zm-194.6 6.4c3.4 1.6 7.8 3.1 9.8 3.3 4.1.4 5.5 1.2 4.3 2.3-1.3 1.3-17.8.8-21.9-.6-4.6-1.6-6.7-5.3-6.7-11.7v-4.6l4.3 4.1c2.3 2.3 6.9 5.5 10.2 7.2zm-.1-8.5c7.1 1.7 11 3.8 5.6 3-1.9-.2-5.1-.8-7-1.2-3.3-.7-3.4-.6-2 1.1 1.2 1.5 1.2 1.7.1 1.4-.8-.3-2.6-2-4-3.9-2.3-3-2.4-3.3-.6-2.6 1.1.5 4.6 1.4 7.9 2.2zm39.2 2.5c2.2 3.6 2.8 3.9 6.9 3.9 2.5 0 6 .6 7.8 1.4 3.6 1.5 9.7 7.9 9.7 10.1 0 2.4-2.5 1.7-4-.9-1.4-2.8-4-4-11.9-5.6-7.3-1.4-10.8-3.7-12.6-8.3-2.8-6.9-.2-7.3 4.1-.6zm56.7 6.9c-.3 1.1-.7 2-.9 2-.2 0-.4-.9-.4-2s.4-2 .9-2 .7.9.4 2zm-21.2 8.4c-1.2 1.3-2.1 2.9-1.9 3.6.2.7-.3 1.5-.9 1.7-.7.3-1.3-.3-1.3-1.2 0-1.4-.3-1.5-1.3-.6-1.9 1.5-5.2 9-4.4 9.8.4.3 2.5-.7 4.7-2.2 2.2-1.5 4.3-2.5 4.7-2.2.3.4-.2.9-1.1 1.3-.9.3-1.6 1.7-1.6 3 0 3.4-4.3 5.1-7.6 2.9-5.1-3.3-1.1-11.9 7.5-16.5 4.9-2.6 5.9-2.5 3.2.4zM385 508c-1.7 3.2-2.2 1.8-.8-2.1.8-2.2 1.3-2.8 1.6-1.7.2.9-.2 2.7-.8 3.8zm-87-2.5c8.2.7 9.2 1.1 7 2.6-1.7 1.1-3.6.9-15.2-1.7-1.6-.3-2.8-1-2.8-1.5 0-.6.8-.8 1.8-.5.9.3 5.1.8 9.2 1.1zm53.9-.6c1.7 1.1.7 4.1-1.2 4.1-2.8 0-4.1 2.7-2.7 6 1.5 3.6 2.5 3.8 4.2.7l1.2-2.2.6 2.5c1 4 .1 6.2-2.4 5.4-1.1-.3-2.7-1.3-3.4-2.3-1.9-2.4-4.4-11.5-3.6-13.4.7-1.8 5-2.3 7.3-.8zm30.4 9.6c.4.8.2 1.7-.3 2-.6.4-1-.3-1-1.4 0-2.5.6-2.7 1.3-.6zm-3.6 7.7c.2-.6.8-1.2 1.3-1.2s0 2.7-1.2 6c-1.1 3.3-2.4 6-2.9 6s-.8-.3-.8-.8c.4-2.5-.4-3.4-1.2-1.3-.5 1.3-1.2 2.2-1.5 1.9-.2-.3.5-3.1 1.7-6.3 1.6-4.3 2.4-5.4 3.1-4.4.7 1.1 1.1 1.1 1.5.1zm57.8 16.9c6.5 20.1 14.5 55.6 14.5 64.3 0 2.4-.3 2.6-4.9 2.6-5.7 0-5.6.1-6.6-10.5-.3-3.9-1.5-13.8-2.6-22-1.1-8.3-2.2-17-2.5-19.5-.2-2.5-.7-5.4-.9-6.5-.2-1.1-.7-4.7-1-8-.4-3.3-.8-7.2-1.1-8.8-.2-1.5 0-2.7.5-2.7.6 0 2.6 5 4.6 11.1zm-287 54.5c6 3.6 14.1 8.2 17.9 10.1 9.9 5 28.1 12.2 32.6 12.9 2.5.4 4 1.2 4.3 2.4.3 1.3 1.1 1.7 2.6 1.3 1.2-.3 2.8 0 3.6.7.8.6 2.3.9 3.4.5 1.1-.3 3.4.1 5.1 1 2.2 1.1 5.5 1.6 11.3 1.5 4.5-.1 12.3-.1 17.2 0 14.3.3 5.8 2.1-10 2.2-18.9.1-34.7-3.6-56.8-13.3-13.1-5.8-43.7-23.6-43.7-25.4 0-1.2 2.4 0 12.5 6.1zm367.1-1.6c3.2 1.2 2.8 1.9-1.4 2.4-2.5.4-3 .1-2.9-1.5.1-2.2.6-2.3 4.3-.9zm-8.6 4.4c0 .8-16.2 5.7-16.8 5.1-.8-.8 1.8-2.5 3.9-2.5.9 0 2.2-.7 2.9-1.5 1.1-1.3 10-2.3 10-1.1zm-44 9.2c0 .2-1.2.4-2.6.4-1.4 0-2.3-.4-2-.9.6-.8 4.6-.4 4.6.5zm15.5 3.4c.3.5-.1 1-.9 1-.9 0-1.6-.5-1.6-1 0-.6.4-1 .9-1 .6 0 1.3.4 1.6 1zm-30.9 2.5c1.8 1.4 1.8 1.4-.8 1.5-1.8 0-2.8-.5-2.8-1.5 0-1.9 1.1-1.9 3.6 0zm20.9 0c-2.2.8-5.1 1.3-6.5 1.3-1.9 0-1.6-.3 1.5-1.3 2.2-.8 5.1-1.3 6.5-1.3 1.9 0 1.6.3-1.5 1.3zm-22 8.5c-.3.5-1.2.7-2 .3-2.1-.7-1.9-1.3.6-1.3 1.1 0 1.8.4 1.4 1zm-41.2 8.7c-.7.2-2.1.2-3 0-1-.3-.4-.5 1.2-.5 1.7 0 2.4.2 1.8.5zm-68.8 1.8c-.5.2-2.2.6-3.7.9-1.9.4-2.6 1.1-2.2 2.1.7 1.8-.7 2-2.4.3-2.6-2.6-1.3-3.8 4.1-3.7 2.8 0 4.8.2 4.2.4zm52.8.2c-1.3.2-3.3.2-4.5 0-1.3-.2-.3-.4 2.2-.4s3.5.2 2.3.4zm-10.4 3.3c-.9.5-2.8.6-4.5 0-2.7-.8-2.6-.8 1.6-.9 3.2 0 4 .2 2.9.9z"/><path d="M347 28.5c0 .9.6 1.2 1.5.9.8-.4 1.5-1 1.5-1.5s-.7-.9-1.5-.9-1.5.7-1.5 1.5zm25.8 22.6c-2.4 1.4-2.3 2.8.2 2.2 2.5-.7 4.9-3.3 2.9-3.3-.8 0-2.2.5-3.1 1.1zm49.4 8.4c.7.8 8.7.9 9.5.2.3-.4-1.8-.7-4.7-.7-2.9 0-5.1.2-4.8.5zM319.4 78.4c-1 .8-1.6 1.8-1.2 2.2 1 .9 8.8-1.4 8.8-2.6 0-1.5-5.4-1.2-7.6.4zm90.6 4.7c0 .5 1 .9 2.2.9 1.2 0 1.8-.3 1.4-.7-1-1.1-3.6-1.2-3.6-.2zm65.1 55.3c.7 1.5 1.5 2.3 1.7 1.6.3-.7-.3-1.9-1.3-2.8-1.5-1.6-1.6-1.5-.4 1.2zm-12.5 14.1c1.4 1.9 3.7 6.8 4.9 10.7 1.3 4 2.4 6.4 2.5 5.3.8-8.5-4.1-19.5-8.6-19.5-1.1 0-.8.9 1.2 3.5zm-81.1-35c-6.2 3.1-9.7 6.9-9.3 10.2.4 3.5 2.1 3.1 4.1-1.1 1.1-2.3 3.7-4.9 7.2-7.2 3-1.9 5.5-3.7 5.5-3.9 0-1.1-2.8-.3-7.5 2zm-13.1 14.1c.7 2.7 2.1 4.3 3.9 4.4 1.2 0-1.8-6.3-3.2-6.8-1.1-.4-1.2.2-.7 2.4zm-6.9 7.5c-1 1.5.1 2.3 2 1.5.9-.3 1.3-1 1-1.6-.8-1.3-2.2-1.3-3 .1zm2.5 4.8c0 .9 5.3 3.1 7.6 3.1 2.5 0 1.4-1.8-1.7-2.9-3.9-1.3-5.9-1.4-5.9-.2zm-116.8 4.3c.3.7 1.3 1.5 2.2 1.6 1.2.3 1.7-.1 1.4-1-.3-.7-1.3-1.5-2.2-1.6-1.2-.3-1.7.1-1.4 1zm118.6 1.5c.6.2 1.8.2 2.5 0 .6-.3.1-.5-1.3-.5-1.4 0-1.9.2-1.2.5zm-17.3 3.1c-4.1.7-4.9 1.2-3.7 2.4 1.2 1.2 10.2.2 10.2-1.1 0-1.1-3.8-1.8-6.5-1.3zm52.1.5c-1 .8-1.7 1.9-1.5 2.6.3.9.9.8 2.3-.2 1-.8 1.7-1.9 1.5-2.6-.3-.9-.9-.8-2.3.2zm-42.6.5c0 1.3 2.5 2.2 6 2.2 4.7 0 13.1 2.1 12.4 3.1-.3.5 1 1.6 3 2.4 4.7 2 4.8 2 2.8-1.5-1.3-2.3-3-3.4-6.7-4.5-6.7-1.9-17.5-2.9-17.5-1.7zm-62.7.8c.3.3 2.2.6 4.2.6s3.9-.3 4.2-.6c.4-.3-1.5-.6-4.2-.6s-4.6.3-4.2.6zm15.2.4c-.6 1 3.4 3 6.1 3 2.3 0 1.6-2-1.2-3-3.2-1.3-4.1-1.3-4.9 0zm18.5 2.5c0 .8.9 1.5 1.9 1.5 1 0 2.1-.7 2.5-1.5.4-1.1-.1-1.5-1.9-1.5-1.6 0-2.5.6-2.5 1.5zm-44.7 6.2c-3.6.5-4.4 1.8-1.5 2.5 2.2.6 12.3.1 13-.6 1.5-1.6-4.9-2.6-11.5-1.9zm14.3.1c-.8 1.4 1.6 3.1 5.2 3.8 2.5.5 3.2.3 3.2-.9 0-.9-1-1.9-2.2-2.2-1.3-.4-3-.9-4-1.1-.9-.3-1.9-.1-2.2.4zm77.4.2c0 1.1 5.9 4 8.2 4 1.9 0-.3-1.7-4.4-3.5-2.4-.9-3.8-1.1-3.8-.5zm-102.5 2c-.8 1.3 2 2.4 4.1 1.6 2-.8.9-2.6-1.6-2.6-1 0-2.2.5-2.5 1zm70 .7c-3.3.7-6.4 1.8-7 2.4-.7.8-.4 1 1 .6 2-.6 6.2-1.2 15-2.2 2.8-.3 5.5-1.1 6-1.6 1.4-1.4-7.4-.9-15 .8zm18.2-1.1c-1.3 1.3-.7 2.4 1.4 2.4 1.1 0 1.9-.5 1.7-1.2-.5-1.4-2.2-2.1-3.1-1.2zm-94 2.1c-1.3 1.2-.7 2.3 1.2 2.3 1 0 2.1-.7 2.5-1.5.5-1.5-2.4-2.2-3.7-.8zm43.7.8c1 .8 3.9 1.7 6.5 2 2.5.3 5.9.8 7.4 1 1.9.3 2.7.1 2.5-.7-.5-1.5-9.1-3.8-14.3-3.7-3.7 0-3.8.1-2.1 1.4zm57.6-.8c0 .5 1.7 1.5 3.8 2.1 2 .7 5.8 1.8 8.5 2.6 6 1.9 6.3.2.4-2.4-5.2-2.3-12.7-3.7-12.7-2.3zm12.1 8.2c-.8.5.8 1.6 4 3 5.5 2.2 7.6 2.1 4.3-.4-2.8-2.1-6.9-3.4-8.3-2.6zm-6.1 5.5c0 1 2.8 1.3 4.1.5 1-.6.7-.9-1.3-.9-1.6 0-2.8.2-2.8.4zm2.5 6.2c1 .8 2.4 1.4 3.1 1.4.7 0 1.9.3 2.8.6 1.1.4 1.6.1 1.6-1 0-.9-.8-1.6-1.7-1.7-1-.1-3.1-.2-4.7-.4-2.7-.2-2.8-.1-1.1 1.1zm-3.5 4.8c0 .2.9.6 2 .9 1.1.3 2 .1 2-.4s-.9-.9-2-.9-2 .2-2 .4zm-1.6 3.7c-.9 1.6 1.2 3.3 3.1 2.5 1.4-.5 1.5-.9.5-2.1-1.5-1.8-2.6-1.9-3.6-.4zm-.4 6.3c0 .9.7 1.6 1.6 1.6.9 0 1.4-.5 1.2-1.2-.6-1.8-2.8-2.1-2.8-.4zm-116.6 14.1c-8.6 1.5-13.3 3-19.6 6.1-5.2 2.6-8.4 6.2-6.8 7.8.6.6 2.3-.4 4.7-3.1 5.1-5.4 14-7.6 30.8-7.7 11-.1 22.9 1.6 24 3.4.2.4-2.6.6-6.3.5-13-.2-24 3.4-32.7 10.8-4.5 3.8-9.6 6.7-11.9 6.7-.8 0-3.1-1.4-5.1-3.1-4-3.6-5.6-3.2-3.1.6 2.6 4 7.5 6.5 12.3 6.3 3.8-.1 4.8.4 10.3 5.6 8.2 7.5 14.7 10.8 21.9 10.9 6.1 0 14.6-3 17.7-6.4 3-3.4.7-3.2-5.8.4-5.4 3.1-7.1 3.5-11.8 3.3-7.6-.4-15.7-4.6-17.6-9.1-.8-1.9-1.4-3.6-1.4-3.9 0-.3 2.1.4 4.6 1.5 3.5 1.6 6.4 2 12.7 1.9 4.5-.1 9.3-.1 10.7-.1 2.2.1 2.3.3.7 1.2-2.2 1.3-12.1 1.6-20.2.6-5.4-.7-5.8-.6-4.1.7 4.4 3.5 19.1 3.2 27.8-.6 4.4-1.9 6.3-3.8 3.8-3.8-1.9 0-1-1.9 1.3-2.5 4.1-1.3 8.7-5.5 8.7-8 0-1.3-.4-2.7-1-3-.5-.3-1-1.1-1-1.7 0-.7 1.4.1 3 1.7 4.8 4.6 4.1 8-3.7 17.2-2.5 2.9-4.3 5.7-4.1 6.3 1.1 3.5 12.8-12.1 12.8-17.2 0-4.2-2.3-8-7.2-12.2l-4.3-3.6 4.6 1.5c6.4 2.2 11.6 6.8 12.9 11.4.5 2.1 1.2 10.5 1.4 18.7.2 8.2.5 17.1.7 19.9l.2 5 .7-4c.4-2.2.6-12.1.5-22-.1-25.4-1.6-28.2-16.4-32.9-17.5-5.5-32.2-7.2-44.7-5.1zm25.6 11.6c5.4.3 8 1.3 14.5 5.6 5.9 3.9 5.6 4.1-1.6.9-10.2-4.6-22.8-4.3-34.7 1-7.6 3.4-8.5 2.6-1.7-1.5 5-3 17.1-7.3 18.5-6.6.3.2 2.5.4 5 .6zm4.5 8.8c6 .4 5.6 4.9-.7 7.7-7.9 3.6-26.8 1.9-26.8-2.3 0-2.7 13.7-6.3 22.5-5.7 1.7.1 3.9.2 5 .3zm133.7 8.3c.6 1.8 2.8 2.1 2.8.4 0-.9-.7-1.6-1.6-1.6-.9 0-1.4.5-1.2 1.2zm-192.2 39c0 1.3.7 3.3 1.5 4.4 1.4 1.8 1.4 1.7 1.5-1.2 0-1.7-.7-3.7-1.5-4.4-1.3-1-1.5-.9-1.5 1.2zm86.1 10c-1.2 3.3-2.2 12.6-1.2 10.8 1.8-3.1 4-12 3-12.5-.5-.4-1.3.4-1.8 1.7zm-31 12.9c-2.8 2.3-7.3 4.9-9.8 5.9-2.6 1-4.9 2.3-5.1 2.9-.7 2.1 5.3 1.1 9.4-1.7 8.4-5.6 12.3-8.7 12.4-10 0-2-1.5-1.4-6.9 2.9zM397 323.3c0 1.8.7 4.2 1.5 5.3 1.3 1.8 1.4 1.6 1-2.1-.2-2.2-.4-4.6-.4-5.3-.2-2.8-2.1-.9-2.1 2.1zm12.5 3.3c.9 2.2 2.5 4.8 3.5 5.9 2 1.9 2 1.9 2-.1 0-2.4-3.9-8.5-5.8-9.2-1-.3-.9.5.3 3.4zm5.1 12.3c.6.7 3.7 1.4 6.9 1.6 7.7.6 6-1.2-2-2.1-4.6-.5-5.7-.4-4.9.5zm-153.5 7.6c-.1 3.3.4 7.7.9 9.7 1 3.5 5.8 10.4 6.6 9.5.2-.2-.6-2.6-1.8-5.3-1.2-2.7-3-8.3-3.9-12.4l-1.7-7.5-.1 6zM491.5 115c-.4.6.7 1 2.4 1s3.1-.5 3.1-1c0-.6-1.1-1-2.4-1-1.4 0-2.8.4-3.1 1zm-14.5 7.4c0 .9.7 1.9 1.5 2.3 2.5.9 2.7-.2.5-2.2-1.8-1.7-2-1.7-2-.1zm26 71.7c0 1.1.4 1.8 1 1.4.5-.3.7-1.2.3-2-.7-2.1-1.3-1.9-1.3.6zm-332-13.7c-9.3 3.5-15.4 8.2-17.1 13.3-1 3.3-.7 9.8.6 11.1 1 1 2.5-2 2.5-5.3.1-5.4 5.8-15.3 7.4-12.7.3.5-.4 2.7-1.5 5-1.8 3.6-2.4 7-2 10.9.2 2.1 2.1 1.5 3-.9.8-2.2.9-2.2 2.4.9 2.4 4.6 6.6 7.6 8.4 6.1 1.4-1.1 1.4-2.2-.3-14.4-.4-3 0-5.5 1.5-8.9 1.2-2.6 2.1-5.1 2.1-5.6 0-1.2-2.8-1-7 .5zm-22.4 15.5c-.8 1.2.3 4.1 1.5 4.1s1.2-3.7 0-4.5c-.5-.3-1.2-.1-1.5.4zm298.9 30.4c-1.4 5.6 2.1 18.5 6.3 22.9 1.4 1.5 2.7 2.6 2.9 2.4.2-.1-.8-2.4-2.2-4.9-2.3-4-3.7-11.1-4.5-22.5 0-.1-.4-.2-1-.2-.5 0-1.2 1-1.5 2.3zm35.9 66.8c-.4.7 0 1.7.9 2.4 1.2.9 1.8 3.4 2.2 8.6.3 4.1.8 8.2 1.1 9.1.8 2.8 2.4 2.1 2.4-1-.1-1.5.1-4.3.4-6.3.7-5.8-4.9-16.1-7-12.8zM159 253c0 .5.7 1 1.5 1s1.5-.5 1.5-1c0-.6-.7-1-1.5-1s-1.5.4-1.5 1zm-4.7 8.3c-6 4.6-5.6 7.9.5 4 3.3-2.2 6.2-5.5 5.5-6.5-.7-1.2-1.5-.9-6 2.5zm315.2-2.4c.5 6.1 3.7 15.1 5.4 15.1.7 0-3.6-16.3-5.2-20-.4-.8-.5 1.4-.2 4.9zM494 280c0 .8 4.5 3 6.2 3 .7 0 .7-.4-.1-1.4-1.2-1.5-6.1-2.8-6.1-1.6zm10 6.2c.1 1.9 2.9 5.3 3.7 4.5.8-.9-1.4-5.7-2.7-5.7-.5 0-1 .6-1 1.2zm2.2 8.7c-.8.5-1.2 1.6-1 2.4.2 1.1.7 1.4 1.6.8.8-.5 1.2-1.6 1-2.4-.2-1.1-.7-1.4-1.6-.8zm-284 36.2c.2.7 1 1.5 1.7 1.7.8.3 1.2-.1.9-.9-.2-.7-1-1.5-1.7-1.7-.8-.3-1.2.1-.9.9zm66.5 34.6c-1.3 1.2-.7 3.3.8 3.3.8 0 1.5-.9 1.5-2 0-2-1.1-2.6-2.3-1.3zm8.3 3.8c-.7.9-1 1.9-.6 2.2.8.9 3.8-.9 4.4-2.5.5-1.7-2.3-1.5-3.8.3zm10.3-.8c-.7.2-1.3 1.6-1.3 3 0 2.2.2 2.4 1.6 1.3.8-.8 2-2.2 2.5-3.2 1-1.8 0-2.3-2.8-1.1zm4.9 3.6c-1.5 2.1-1.8 3.3-1 3.6 1.3.4 4.8-3.5 4.8-5.5 0-2.3-1.3-1.6-3.8 1.9zm27.8 1.1c0 2.8 1.4 3.5 2.3 1.2.3-.8-.1-2-.9-2.6-1.2-1-1.4-.8-1.4 1.4zm-52 22.5c-6.3 2-10.4 4-9.7 4.8.7.6 14.4-2.5 17-3.9 1.6-.8 1.7-1.2.6-1.9-1.7-1.1-1.3-1.1-7.9 1zm188-30.3c0 1.2 3.5 3.3 5.5 3.3 1.8.1 1.8-.1-.5-1.9-2.5-1.9-5-2.6-5-1.4zm-306.4 16.7c-9.4 5.8-14.2 21.3-8.8 28.6 2.8 3.8 4.7 4 3.6.5-1.3-4.3-.8-12.7.9-16 .9-1.6 3.4-5.3 5.6-8.3 5.8-7.7 5.5-8.8-1.3-4.8zm71.6 5.6c-1.8 1.1 0 2.4 5.3 3.9 2.2.6 5.6 2.5 7.5 4.2 4.2 3.6 6.5 2.5 3.4-1.7-3.6-5-12.8-8.6-16.2-6.4zm1.8 17c0 1.3 5.5 5.1 7.2 5.1.7-.1-.3-1.4-2.2-3-3.5-3.1-5-3.7-5-2.1zm91.7 17.5c-.3.8-.2 1.8.4 2.2 1.6.9 2.2-.2 1.1-2.1-.8-1.5-1-1.6-1.5-.1zm-127.4 25.2c-.4 1-.7 3.7-.7 5.9.1 5 5.6 28.5 6.7 28.5 1 0 .1-8.1-1.8-17-.3-1.4-.7-5.8-1-9.9-.4-7.7-1.8-11-3.2-7.5zm50.7 35.3c0 .4.9 2 2 3.4s2 3.1 2 3.8c0 .6 1.5 3 3.4 5.3 6.2 7.6 14.8 21.6 22.8 37.4 12.8 25 13.4 23.2 1.2-3.1-4.1-8.7-7.7-17-8-18.5-1.6-6.4-9.9-17.2-13.4-17.2-.9 0-2.5-.9-3.5-2-1.8-2-1.7-2 .8-2 1.7 0 2.7-.5 2.7-1.5 0-.8-.8-1.5-1.8-1.5-1.1 0-2.4-1.1-3-2.5-1.1-2.3-5.2-3.6-5.2-1.6zm14.4 15.7c.7 1.9.2 1.8-1.9-.6-1.6-1.7-1.6-2-.3-1.5.9.4 1.9 1.3 2.2 2.1zm5.6 8.6c0 1.8-1.7.7-2.9-1.9-1.3-2.8-1.3-2.8.8-.9 1.2 1.1 2.1 2.3 2.1 2.8zm-64.3-21.6c-.7 1.2 3.5 14.4 4.6 14.4 1.4 0 0-7.6-2.2-11.8-1-1.9-2-3.1-2.4-2.6zm6 20.7c.4 4.1 1.7 6.6 2.8 5.5.8-.7-1.3-8.5-2.4-9.2-.4-.3-.6 1.4-.4 3.7zm179.3 1.2c0 .9.6 1.2 1.5.9.8-.4 1.5-1 1.5-1.5s-.7-.9-1.5-.9-1.5.7-1.5 1.5zm6 5c-1.1 2.9-.4 5.5 1.6 5.5 1.5 0 3.1-2.8 2.8-4.8-.1-.6-.2-1.7-.3-2.2-.2-2-3.2-.9-4.1 1.5zm-64.8 11.1c.4 2.1 2.2 2.3 2.6.1.2-1-.3-1.7-1.3-1.7s-1.5.6-1.3 1.6zm-2.2 5.8c-1.2 3.4-1.3 6.6-.1 6.6 1.6 0 3.5-7 2.2-8.3-.7-.7-1.3-.2-2.1 1.7zm-219.3.3c-1.3 1.2-.7 5.3.7 5.3 2.1 0 8.6-2.9 8.6-3.9 0-1.8-7.8-3-9.3-1.4zm14.7.5c-.3.4.1.8.8.9.7 0 2.1.2 3.2.4 1 .2 5.5.6 10 .9 10.1.8 17.5 2.3 34.6 7.4 21.2 6.4 33.1 9.1 48.2 11.3 17.3 2.4 25.1 2.9 26.9 1.9 2.4-1.5.4-2-10.7-2.5-18.7-1-29-3.1-60.5-12.5-10.8-3.2-23.4-6.4-28-6.9-11.2-1.5-23.9-1.9-24.5-.9zm-21.2 12c-2.1 3.3-2.2 4.5-.3 3.3 1.6-.9 4.3-6.5 3.2-6.5-.5 0-1.8 1.5-2.9 3.2zm220.4 1.3c.4.8 1.2 1.5 2 1.5s1.4-.7 1.4-1.5-.9-1.5-2-1.5c-1.3 0-1.8.5-1.4 1.5zM266 553c0 1.1 12 2.8 12.6 1.8.3-.4-.1-1-.8-1.2-2.4-.9-11.8-1.3-11.8-.6zm19 4c0 1.3 4.1 3 5.4 2.2.5-.2-.2-1.1-1.5-1.8-2.9-1.6-3.9-1.7-3.9-.4zm22.2 2.9c2 3.3 6.4 5.3 10.2 4.5 2-.3 4-1.2 4.6-1.9.8-1 .2-1.2-2.7-.8-2.5.3-5.1-.3-7.8-1.7-4.9-2.5-5.8-2.5-4.3-.1zm-10.2 5.8c1.1 1.6 3 3.9 4 5.3 1.5 2 1.9 2.1 2 .8 0-1.9-5.6-8.8-7.2-8.8-.5 0 0 1.2 1.2 2.7zm8 13.2c0 1.9 3.3 8.5 3.7 7.4.6-1.7-1.6-8.3-2.8-8.3-.5 0-.9.4-.9.9zm203.7-128.4c-4.6 1.6-5.2 2.1-3.4 2.8 1.7.6 9.5-2.7 8.2-3.5-.6-.3-2.7 0-4.8.7zM438 495.8c0 .5 1.1 2 2.4 3.4 1.2 1.4 3.3 4.2 4.6 6.2 3.6 5.9 3.5 3.3-.2-3.6-1.8-3.4-4.1-6.4-5-6.6-1-.2-1.8.1-1.8.6zm.4 10.4c.8 2.4 2.4 7 3.5 10.3 1.2 3.3 2.3 7.1 2.4 8.4.1 1.5 1.3 3.1 3.2 4.3 4.2 2.5 5.3 2.3 2.6-.6-1.3-1.4-2-3-1.6-3.6.4-.6 0-1.9-.8-2.8-.8-.9-3.2-5.9-5.2-11-3.8-9.3-6.5-12.8-4.1-5zm39.2 19c4.8 9.4 15.3 23.3 13 17.3-1.1-3.1-12.9-20.5-13.8-20.5-.5 0-.1 1.5.8 3.2zm-20.6-1.3c0 .6 3.2 6.1 7.1 12.2 3.9 6.2 8 13.2 9.1 15.5 1 2.4 2.5 4.4 3.3 4.4 2 0 1.2-1.8-7.2-15.4-7.4-12-12.3-18.6-12.3-16.7zm-9 10c0 1.2 2.6 2.1 5.8 2l2.7-.1-3-1.3c-3.5-1.6-5.5-1.9-5.5-.6zm2.5 7.1c1.8 2 8.2 4.6 9.1 3.7.7-.7-7.8-5.7-9.6-5.7-.9 0-.8.6.5 2zm7.5 14.8c0 1 4.1 3.5 4.7 2.8.9-.8-1.7-3.6-3.3-3.6-.8 0-1.4.3-1.4.8zm20.3 5.5c.4 1 .7 2.2.7 2.5 0 .9 4.6 6.2 5.3 6.2 1.3 0-1.6-5.9-4-8.1-2.1-2-2.5-2.1-2-.6zm-19.1 1.4c.2 1 1.1 1.9 2.1 2.1 2.4.5 2.1-1.5-.4-2.8-1.8-1-2-.9-1.7.7zm1.6 7c.6.2 1.8.2 2.5 0 .6-.3.1-.5-1.3-.5-1.4 0-1.9.2-1.2.5zM283 493.9c0 1.5 2.4 2.9 6.5 3.6 2.6.5 3.6.4 3-.2-1.6-1.6-9.5-4.4-9.5-3.4zM263.5 15c-1 1.6 7.7 1.5 10.5-.1 1-.5-.5-.8-4.2-.9-3.1 0-6 .4-6.3 1zm-8.6 9.6c-4.4 1.3-10.5 6.1-9.4 7.2.3.3 1.8-.4 3.3-1.6 1.5-1.3 5-3.3 7.7-4.7 5.7-2.7 5.1-3-1.6-.9zm11.4 1.8c.9.7 1.7 2.3 1.7 3.6 0 1.9.2 2 1.5 1 2.1-1.7 1.9-3.7-.4-5-2.9-1.5-5-1.2-2.8.4zM225 37.6c.8.8 2.1 1.9 3.1 2.5 1.5.7 1.7.6 1.3-.6-.6-1.5-3.5-3.5-5-3.5-.3 0-.1.7.6 1.6zm24.5-.5c-1.1 1.7 0 2 2.1.4 1.7-1.3 1.7-1.4.2-1.5-.9 0-2 .5-2.3 1.1zm8 8.9c-5.3 2.2-8.3 7.6-7.1 12.5 1 3.8 2.1 3 3.9-2.9 2-6.2 3.1-7.3 8.9-9.1l4.3-1.4h-4c-2.2 0-4.9.4-6 .9zm-60 7c.3.5 1.2.7 2 .3 2.1-.7 1.9-1.3-.6-1.3-1.1 0-1.8.4-1.4 1zm-2.5 6.9c0 .6.9 1.5 2.1 2.1 1.8 1 2 .9 1.7-.7-.3-1.9-3.8-3.2-3.8-1.4zm-15.5 2c-4.6 1.2-10.3 4.4-8.4 4.8 1.7.4 12.9-4.1 12.9-5.1 0-.7-.4-.7-4.5.3zm-16 9.2c-.4.6-.4 1.3-.1 1.6.8.8 3.6-.5 3.6-1.7 0-1.3-2.7-1.3-3.5.1zm-6.7 9.5c-2.1 2.6-3.8 5.4-3.7 6.3 0 1.2.4 1.1 1.6-.7.8-1.2 2.1-2.2 2.8-2.2 1.5 0 3.8-4.3 3.3-6.4-.2-1.2-1.3-.3-4 3zm6.9-2.9c-1.1 1.1-.8 5.1.5 5.9.7.5.9.2.5-.8-.3-.9.1-2.5.9-3.7 1.3-1.7 1.3-2.1.1-2.1-.7 0-1.7.3-2 .7zM152 91.9c0 1.1-.4 2.1-1 2.1-2.2 0-.8 1.9 2.1 2.9 4.8 1.6 5.2 1.4 3.2-2-2.6-4.5-4.3-5.6-4.3-3zm38.3 8.4c.5 1.5 3.7 2.2 3.7.9 0-.5-.9-1.2-2.1-1.5-1.3-.3-1.9-.1-1.6.6zm94.8 14.1c-.7.8-.8 1.7-.3 2 .6.3 1.5-.1 2.1-.8.7-.8.8-1.7.3-2-.6-.3-1.5.1-2.1.8zm-77.6 4.6c.3.5 1.3 1 2.1 1s1.2-.5.9-1c-.3-.6-1.3-1-2.1-1s-1.2.4-.9 1zm309.9 383.6c.3.9.6 1.8.6 2 0 .2.7.4 1.5.4 1.3 0 1.4-.4.5-2-1.3-2.4-3.5-2.7-2.6-.4zm14.6 34.2c0 .5.7 1.6 1.6 2.3 1.4 1.2 1.6 1.1 1.3-.5-.4-2-2.9-3.5-2.9-1.8z"/></svg>